{"glyphs":{"0":{"ha":1415,"x_min":-4,"x_max":1372,"o":"m 1372 604 q 1372 589 1372 600 q 1369 566 1371 578 q 1367 543 1368 554 q 1365 526 1365 532 q 1358 493 1363 510 q 1350 460 1354 476 q 1256 252 1319 346 q 1104 91 1192 158 q 910 -14 1017 24 q 685 -51 803 -51 q 410 5 538 -51 q 191 158 283 61 q 47 383 99 254 q 0 658 -4 513 q 3 664 3 660 q 29 831 6 751 q 99 985 53 910 q 138 1043 114 1011 q 190 1106 161 1075 q 248 1162 218 1136 q 306 1201 278 1188 l 307 1207 l 313 1207 l 315 1211 q 324 1215 319 1214 q 333 1219 329 1217 q 349 1230 342 1225 q 364 1240 357 1235 q 405 1260 383 1251 q 447 1276 426 1268 q 563 1309 504 1299 q 683 1319 622 1319 q 942 1270 817 1319 q 1164 1126 1068 1221 q 1225 1059 1196 1094 q 1278 983 1254 1024 q 1290 957 1285 971 q 1303 931 1296 943 q 1312 915 1307 922 q 1319 900 1317 908 q 1337 855 1331 878 q 1350 808 1343 832 q 1368 708 1364 754 q 1372 604 1372 661 m 1047 940 q 949 937 999 936 q 851 938 900 938 l 814 938 q 784 837 797 888 q 754 736 771 786 q 771 735 763 735 q 788 736 779 736 q 807 733 800 736 l 807 283 l 1008 283 l 1008 504 l 1161 504 q 1187 595 1172 550 q 1213 688 1201 640 l 1008 688 q 1009 702 1010 694 q 1008 717 1008 710 q 1008 726 1008 721 q 1011 733 1008 731 l 1182 733 q 1212 843 1194 789 q 1243 953 1229 897 l 1051 953 q 1047 940 1044 950 m 186 931 q 158 833 174 882 q 132 736 143 785 q 149 735 140 735 q 165 736 157 736 q 174 736 169 736 q 183 733 179 736 l 183 283 l 385 283 l 385 457 q 385 487 385 472 q 388 517 385 501 q 426 516 407 515 q 465 517 446 517 q 488 517 476 517 q 513 514 500 517 l 513 286 q 551 283 532 283 q 590 283 571 283 q 651 284 621 283 q 714 283 682 285 l 714 938 q 651 938 682 936 q 590 939 621 939 q 513 935 550 939 l 513 724 l 385 724 q 385 789 385 756 q 386 854 386 822 q 382 938 386 896 l 192 938 q 188 935 189 938 q 186 931 188 932 m 781 -87 q 777 -99 778 -93 q 772 -110 776 -104 q 764 -108 768 -110 q 754 -107 760 -107 q 750 -108 751 -107 q 763 -117 754 -115 q 778 -124 771 -118 q 782 -139 782 -131 q 778 -157 782 -149 q 749 -167 767 -167 q 724 -162 736 -167 l 724 -160 q 726 -148 724 -153 q 729 -136 728 -143 q 740 -140 735 -137 q 750 -142 744 -142 l 754 -142 q 747 -133 754 -135 q 735 -131 740 -132 q 726 -120 731 -124 q 721 -108 721 -117 q 735 -89 721 -94 q 760 -83 749 -83 q 781 -87 769 -83 m 256 -85 l 307 -85 l 307 -86 q 305 -98 308 -93 q 303 -110 301 -103 q 294 -110 299 -111 q 286 -110 290 -110 q 279 -112 281 -110 q 290 -116 282 -117 q 301 -115 297 -115 l 306 -115 q 301 -126 304 -122 q 300 -139 299 -131 l 279 -139 l 279 -167 l 265 -167 q 253 -164 256 -167 l 254 -114 q 249 -110 254 -112 q 252 -97 251 -103 q 256 -85 253 -92 m 342 -85 q 341 -101 342 -93 q 340 -118 340 -110 q 346 -142 340 -132 l 350 -142 q 357 -133 357 -142 q 357 -119 357 -125 l 357 -85 l 371 -85 q 382 -87 379 -85 l 383 -112 q 378 -149 383 -131 q 350 -167 374 -167 q 321 -154 335 -167 q 318 -134 318 -143 q 318 -114 318 -125 q 315 -110 318 -111 q 310 -110 313 -110 q 314 -97 313 -103 q 318 -85 315 -92 l 342 -85 m 418 -87 q 417 -113 418 -100 q 418 -139 417 -126 q 424 -142 419 -142 q 432 -142 429 -142 l 435 -142 q 431 -154 432 -149 q 426 -167 429 -160 l 393 -167 l 393 -114 q 390 -111 393 -111 q 385 -110 388 -111 q 389 -98 388 -104 q 393 -85 390 -92 l 407 -85 q 418 -87 415 -85 m 465 -85 q 465 -112 465 -99 q 465 -139 464 -125 q 470 -142 465 -142 q 478 -142 475 -142 l 481 -142 l 481 -144 q 478 -156 482 -151 q 475 -167 475 -160 q 465 -167 469 -167 q 454 -168 460 -168 q 439 -164 444 -168 l 440 -115 q 435 -110 440 -110 q 438 -97 438 -103 q 442 -85 439 -92 l 465 -85 m 510 -85 l 535 -85 q 541 -101 538 -93 q 546 -118 544 -108 q 554 -102 553 -112 q 558 -85 556 -92 l 585 -85 q 573 -126 581 -106 q 558 -167 565 -147 l 538 -167 q 523 -126 531 -147 q 510 -85 515 -106 m 589 -85 l 643 -85 q 638 -97 640 -92 q 636 -110 636 -103 q 629 -110 633 -111 q 622 -110 625 -110 q 615 -112 617 -110 q 626 -116 618 -117 q 638 -115 633 -115 l 642 -115 q 639 -126 640 -121 q 636 -136 638 -131 l 615 -136 q 626 -139 618 -140 q 638 -139 633 -137 l 642 -139 l 642 -140 q 639 -153 642 -147 q 633 -167 636 -160 l 589 -167 l 589 -112 q 586 -110 589 -110 q 582 -110 583 -111 q 586 -98 585 -104 q 589 -85 588 -92 m 714 -117 q 712 -131 714 -124 q 703 -142 710 -137 q 708 -153 703 -149 q 714 -165 714 -157 l 714 -167 q 703 -168 710 -168 q 687 -165 694 -168 q 679 -151 679 -162 q 676 -156 676 -153 q 676 -161 676 -158 q 675 -167 676 -167 l 651 -167 l 651 -114 q 649 -111 651 -111 q 646 -108 646 -111 q 649 -97 646 -101 q 654 -85 651 -92 l 665 -85 q 699 -88 685 -83 q 714 -117 714 -93 m 678 -124 l 681 -124 q 688 -115 689 -124 l 688 -112 q 683 -111 685 -112 q 679 -110 682 -110 l 678 -110 l 678 -124 m 814 -85 l 814 -167 l 790 -167 l 792 -114 q 789 -110 792 -111 q 783 -110 786 -110 q 788 -97 786 -103 q 790 -85 789 -92 l 814 -85 m 853 -87 q 864 -85 856 -85 q 878 -88 871 -85 q 892 -94 885 -92 q 904 -124 899 -106 q 892 -153 901 -139 q 865 -167 883 -167 q 834 -153 846 -167 q 822 -121 822 -140 q 832 -99 822 -108 q 853 -87 842 -89 m 874 -112 q 863 -110 868 -110 q 852 -113 857 -110 q 847 -124 847 -117 q 867 -142 847 -142 l 868 -142 q 878 -125 878 -135 q 874 -112 878 -119 m 936 -85 q 944 -97 940 -92 q 951 -110 949 -103 q 954 -102 954 -108 q 954 -92 954 -96 q 957 -85 954 -86 l 979 -85 l 979 -167 l 958 -167 q 948 -151 953 -160 q 939 -133 943 -142 q 935 -147 935 -137 q 936 -162 936 -156 l 936 -167 l 913 -167 l 913 -114 q 910 -111 913 -111 q 904 -110 907 -111 q 908 -97 907 -103 q 913 -85 910 -92 l 936 -85 m 1044 -87 q 1056 -83 1049 -83 q 1069 -87 1063 -83 q 1083 -94 1076 -92 q 1092 -110 1088 -101 q 1096 -126 1096 -118 q 1084 -155 1096 -144 q 1056 -165 1072 -165 q 1025 -154 1036 -165 q 1014 -124 1014 -143 q 1024 -100 1014 -111 q 1044 -87 1033 -89 m 1056 -142 q 1071 -125 1071 -142 q 1065 -114 1071 -118 q 1054 -110 1060 -110 q 1050 -112 1049 -110 q 1039 -126 1039 -114 q 1056 -142 1039 -142 m 1126 -85 q 1136 -97 1132 -92 q 1143 -110 1140 -103 q 1145 -102 1146 -108 q 1144 -92 1144 -96 q 1147 -85 1144 -87 l 1171 -85 l 1171 -167 l 1150 -167 q 1141 -151 1147 -158 q 1132 -136 1135 -144 q 1129 -147 1128 -139 q 1131 -160 1131 -156 l 1129 -164 q 1118 -167 1126 -167 l 1104 -167 l 1104 -114 q 1101 -111 1104 -111 q 1099 -107 1099 -111 q 1101 -96 1099 -100 q 1104 -85 1104 -92 l 1126 -85 m 706 -219 q 703 -233 704 -226 q 699 -247 701 -240 l 678 -247 q 688 -250 681 -251 q 699 -250 696 -249 l 703 -250 q 703 -252 703 -251 q 704 -254 704 -253 q 702 -262 704 -258 q 700 -271 700 -267 q 693 -272 697 -272 q 685 -271 689 -271 q 678 -274 679 -271 q 689 -276 681 -276 q 701 -275 697 -275 l 706 -276 q 702 -289 703 -283 q 699 -301 701 -294 l 651 -301 l 651 -251 q 649 -248 651 -249 q 646 -244 646 -247 q 649 -233 646 -242 q 654 -221 653 -224 l 663 -222 q 681 -220 672 -222 q 700 -218 690 -218 l 706 -219 m 768 -219 q 760 -247 765 -235 l 739 -247 q 748 -253 739 -254 q 761 -251 757 -251 q 763 -252 763 -251 q 765 -253 764 -253 q 757 -276 764 -264 l 739 -276 l 739 -301 l 714 -301 q 713 -283 711 -292 q 714 -262 714 -274 q 711 -250 714 -256 q 708 -242 708 -244 q 713 -233 713 -239 q 717 -221 713 -226 l 725 -222 q 743 -220 735 -222 q 761 -218 751 -218 l 768 -219 m 993 -219 q 989 -237 990 -226 q 975 -247 988 -249 l 975 -301 l 949 -301 l 949 -250 q 944 -247 949 -246 q 938 -247 940 -247 l 936 -247 q 938 -234 936 -240 q 940 -221 940 -228 l 949 -222 q 967 -220 958 -222 q 986 -218 976 -218 l 993 -219 m 1024 -304 l 1015 -304 l 1015 -301 q 1003 -300 1010 -301 q 996 -292 996 -299 q 997 -276 1000 -285 q 1003 -274 1003 -274 q 1013 -276 1008 -274 q 1024 -279 1018 -279 l 1026 -278 q 1021 -272 1026 -274 q 1009 -267 1015 -269 q 998 -260 1003 -264 q 993 -244 993 -256 q 1006 -225 993 -231 q 1029 -219 1018 -219 q 1050 -224 1039 -219 l 1050 -228 q 1048 -235 1050 -233 q 1047 -244 1046 -237 q 1043 -247 1044 -247 q 1035 -246 1039 -247 q 1028 -244 1032 -244 q 1021 -247 1022 -244 q 1043 -256 1032 -250 q 1054 -276 1054 -262 q 1044 -295 1054 -286 q 1024 -304 1033 -304 m 1129 -304 l 1122 -304 l 1122 -301 q 1094 -288 1104 -300 q 1085 -260 1085 -276 q 1098 -231 1085 -242 q 1128 -221 1111 -221 q 1153 -229 1142 -221 q 1147 -241 1150 -236 q 1143 -253 1144 -246 q 1126 -247 1138 -247 q 1118 -249 1122 -247 q 1111 -256 1114 -250 l 1111 -268 q 1116 -274 1111 -272 q 1124 -275 1121 -275 q 1133 -274 1129 -275 q 1143 -272 1138 -272 q 1144 -274 1144 -272 q 1148 -283 1146 -279 q 1153 -292 1150 -286 q 1142 -299 1150 -299 q 1129 -304 1135 -300 m 111 -221 l 138 -221 q 140 -235 139 -228 q 142 -250 142 -243 q 147 -236 144 -243 q 150 -221 150 -229 l 171 -221 q 174 -235 174 -228 q 178 -250 175 -243 q 183 -236 183 -244 q 186 -221 182 -228 l 238 -221 l 238 -225 q 240 -236 238 -232 q 240 -247 242 -240 q 248 -236 247 -244 q 251 -221 249 -228 l 271 -221 q 274 -236 271 -229 q 276 -250 278 -243 q 282 -236 282 -244 q 285 -221 282 -228 l 336 -221 q 339 -235 339 -228 q 342 -250 339 -243 q 347 -236 344 -243 q 349 -221 349 -229 l 369 -221 q 374 -235 372 -228 q 378 -250 375 -243 q 382 -236 382 -244 q 385 -221 382 -228 l 408 -221 q 401 -262 407 -242 q 393 -301 396 -282 l 367 -301 l 367 -299 q 365 -286 368 -292 q 363 -274 361 -281 q 356 -287 357 -279 q 354 -301 354 -294 l 328 -301 q 320 -266 324 -283 q 310 -232 317 -249 q 294 -301 299 -268 l 269 -301 q 265 -288 267 -294 q 261 -276 264 -282 q 256 -288 256 -281 q 253 -301 257 -296 l 228 -301 q 220 -265 225 -282 q 213 -229 215 -249 q 202 -265 204 -246 q 194 -301 200 -283 l 168 -301 l 168 -299 q 165 -286 169 -292 q 163 -274 161 -281 q 157 -287 158 -279 q 156 -301 156 -294 l 129 -301 q 120 -262 126 -282 q 111 -221 114 -242 m 468 -221 l 468 -247 l 481 -247 q 483 -237 485 -244 q 483 -225 482 -229 l 483 -221 q 491 -222 488 -222 q 499 -221 494 -221 q 504 -221 501 -221 q 510 -224 507 -221 l 510 -301 l 483 -301 l 483 -274 l 471 -274 q 467 -285 467 -276 q 468 -297 468 -293 l 468 -301 l 442 -301 l 442 -256 q 443 -251 443 -254 q 440 -248 443 -249 q 438 -244 438 -247 q 440 -233 438 -237 q 442 -221 442 -228 l 468 -221 m 513 -221 l 538 -221 l 546 -237 q 549 -230 549 -235 q 553 -221 550 -225 l 579 -221 q 572 -242 576 -233 q 564 -258 568 -250 q 558 -276 560 -267 q 558 -301 556 -286 l 532 -301 q 531 -267 532 -276 q 526 -252 529 -257 q 520 -242 524 -247 q 513 -221 517 -237 m 610 -286 l 610 -301 l 585 -301 l 585 -250 q 581 -247 585 -247 q 576 -247 578 -247 q 581 -234 579 -240 q 585 -221 582 -228 l 597 -221 q 628 -227 613 -221 q 643 -253 643 -233 q 628 -283 643 -268 l 626 -283 q 619 -285 621 -283 q 610 -286 617 -287 m 610 -260 l 613 -261 q 618 -254 618 -261 q 613 -247 618 -247 l 610 -247 l 610 -260 m 811 -304 l 811 -301 q 782 -289 792 -301 q 772 -257 772 -276 q 785 -232 772 -242 q 814 -222 799 -222 q 844 -233 832 -222 q 856 -262 856 -244 q 841 -292 856 -278 q 811 -304 826 -307 m 822 -247 q 819 -247 819 -247 q 815 -246 818 -246 q 799 -262 799 -246 q 804 -276 799 -268 q 808 -277 807 -276 q 813 -278 810 -278 q 829 -260 826 -278 q 826 -253 828 -257 q 822 -247 824 -250 m 889 -221 q 895 -235 890 -229 q 903 -247 900 -240 q 905 -237 906 -244 q 904 -225 904 -229 l 904 -221 l 931 -221 l 931 -301 l 907 -301 q 899 -285 903 -293 q 886 -271 894 -276 l 886 -301 l 864 -301 l 864 -250 q 861 -247 864 -247 q 856 -247 858 -247 q 860 -234 858 -240 q 864 -221 861 -228 l 889 -221 m 1194 -304 l 1194 -301 q 1168 -290 1179 -301 q 1157 -262 1157 -278 q 1167 -233 1157 -244 q 1197 -222 1178 -222 q 1226 -233 1213 -222 q 1239 -260 1239 -243 q 1226 -292 1239 -278 q 1194 -304 1213 -306 m 1194 -278 q 1213 -268 1207 -278 l 1213 -264 q 1208 -250 1214 -254 q 1194 -247 1203 -246 l 1189 -247 q 1183 -261 1183 -253 q 1194 -278 1183 -274 m 1246 -221 l 1272 -221 q 1277 -230 1275 -225 q 1285 -237 1279 -235 q 1292 -230 1289 -235 q 1297 -221 1294 -225 l 1324 -221 l 1324 -301 l 1297 -301 l 1297 -265 q 1296 -264 1297 -264 q 1291 -269 1293 -264 q 1288 -276 1289 -274 l 1286 -276 q 1278 -270 1279 -276 q 1272 -262 1278 -264 l 1272 -301 l 1246 -301 l 1246 -251 q 1243 -248 1246 -249 q 1240 -244 1240 -247 q 1243 -233 1240 -239 q 1246 -221 1246 -228 m 421 -304 q 410 -289 410 -299 q 424 -276 410 -276 q 436 -289 436 -276 q 421 -304 436 -304 m 1071 -304 l 1068 -304 q 1060 -298 1063 -304 q 1057 -289 1057 -292 q 1071 -275 1057 -275 q 1078 -279 1076 -275 q 1083 -286 1081 -283 l 1083 -290 q 1078 -299 1083 -297 q 1071 -304 1074 -301 z "},"1":{"ha":1415,"x_min":-4,"x_max":1372,"o":"m 1372 604 q 1372 589 1372 600 q 1369 566 1371 578 q 1367 543 1368 554 q 1365 526 1365 532 q 1358 493 1363 510 q 1350 460 1354 476 q 1256 252 1319 346 q 1104 91 1192 158 q 910 -14 1017 24 q 685 -51 803 -51 q 410 5 538 -51 q 191 158 283 61 q 47 383 99 254 q 0 658 -4 513 q 3 664 3 660 q 29 831 6 751 q 99 985 53 910 q 138 1043 114 1011 q 190 1106 161 1075 q 248 1162 218 1136 q 306 1201 278 1188 l 307 1207 l 313 1207 l 315 1211 q 324 1215 319 1214 q 333 1219 329 1217 q 349 1230 342 1225 q 364 1240 357 1235 q 405 1260 383 1251 q 447 1276 426 1268 q 563 1309 504 1299 q 683 1319 622 1319 q 942 1270 817 1319 q 1164 1126 1068 1221 q 1225 1059 1196 1094 q 1278 983 1254 1024 q 1290 957 1285 971 q 1303 931 1296 943 q 1312 915 1307 922 q 1319 900 1317 908 q 1337 855 1331 878 q 1350 808 1343 832 q 1368 708 1364 754 q 1372 604 1372 661 m 1047 940 q 949 937 999 936 q 851 938 900 938 l 814 938 q 784 837 797 888 q 754 736 771 786 q 771 735 763 735 q 788 736 779 736 q 807 733 800 736 l 807 283 l 1008 283 l 1008 504 l 1161 504 q 1187 595 1172 550 q 1213 688 1201 640 l 1008 688 q 1009 702 1010 694 q 1008 717 1008 710 q 1008 726 1008 721 q 1011 733 1008 731 l 1182 733 q 1212 843 1194 789 q 1243 953 1229 897 l 1051 953 q 1047 940 1044 950 m 186 931 q 158 833 174 882 q 132 736 143 785 q 149 735 140 735 q 165 736 157 736 q 174 736 169 736 q 183 733 179 736 l 183 283 l 385 283 l 385 457 q 385 487 385 472 q 388 517 385 501 q 426 516 407 515 q 465 517 446 517 q 488 517 476 517 q 513 514 500 517 l 513 286 q 551 283 532 283 q 590 283 571 283 q 651 284 621 283 q 714 283 682 285 l 714 938 q 651 938 682 936 q 590 939 621 939 q 513 935 550 939 l 513 724 l 385 724 q 385 789 385 756 q 386 854 386 822 q 382 938 386 896 l 192 938 q 188 935 189 938 q 186 931 188 932 m 781 -87 q 777 -99 778 -93 q 772 -110 776 -104 q 764 -108 768 -110 q 754 -107 760 -107 q 750 -108 751 -107 q 763 -117 754 -115 q 778 -124 771 -118 q 782 -139 782 -131 q 778 -157 782 -149 q 749 -167 767 -167 q 724 -162 736 -167 l 724 -160 q 726 -148 724 -153 q 729 -136 728 -143 q 740 -140 735 -137 q 750 -142 744 -142 l 754 -142 q 747 -133 754 -135 q 735 -131 740 -132 q 726 -120 731 -124 q 721 -108 721 -117 q 735 -89 721 -94 q 760 -83 749 -83 q 781 -87 769 -83 m 256 -85 l 307 -85 l 307 -86 q 305 -98 308 -93 q 303 -110 301 -103 q 294 -110 299 -111 q 286 -110 290 -110 q 279 -112 281 -110 q 290 -116 282 -117 q 301 -115 297 -115 l 306 -115 q 301 -126 304 -122 q 300 -139 299 -131 l 279 -139 l 279 -167 l 265 -167 q 253 -164 256 -167 l 254 -114 q 249 -110 254 -112 q 252 -97 251 -103 q 256 -85 253 -92 m 342 -85 q 341 -101 342 -93 q 340 -118 340 -110 q 346 -142 340 -132 l 350 -142 q 357 -133 357 -142 q 357 -119 357 -125 l 357 -85 l 371 -85 q 382 -87 379 -85 l 383 -112 q 378 -149 383 -131 q 350 -167 374 -167 q 321 -154 335 -167 q 318 -134 318 -143 q 318 -114 318 -125 q 315 -110 318 -111 q 310 -110 313 -110 q 314 -97 313 -103 q 318 -85 315 -92 l 342 -85 m 418 -87 q 417 -113 418 -100 q 418 -139 417 -126 q 424 -142 419 -142 q 432 -142 429 -142 l 435 -142 q 431 -154 432 -149 q 426 -167 429 -160 l 393 -167 l 393 -114 q 390 -111 393 -111 q 385 -110 388 -111 q 389 -98 388 -104 q 393 -85 390 -92 l 407 -85 q 418 -87 415 -85 m 465 -85 q 465 -112 465 -99 q 465 -139 464 -125 q 470 -142 465 -142 q 478 -142 475 -142 l 481 -142 l 481 -144 q 478 -156 482 -151 q 475 -167 475 -160 q 465 -167 469 -167 q 454 -168 460 -168 q 439 -164 444 -168 l 440 -115 q 435 -110 440 -110 q 438 -97 438 -103 q 442 -85 439 -92 l 465 -85 m 510 -85 l 535 -85 q 541 -101 538 -93 q 546 -118 544 -108 q 554 -102 553 -112 q 558 -85 556 -92 l 585 -85 q 573 -126 581 -106 q 558 -167 565 -147 l 538 -167 q 523 -126 531 -147 q 510 -85 515 -106 m 589 -85 l 643 -85 q 638 -97 640 -92 q 636 -110 636 -103 q 629 -110 633 -111 q 622 -110 625 -110 q 615 -112 617 -110 q 626 -116 618 -117 q 638 -115 633 -115 l 642 -115 q 639 -126 640 -121 q 636 -136 638 -131 l 615 -136 q 626 -139 618 -140 q 638 -139 633 -137 l 642 -139 l 642 -140 q 639 -153 642 -147 q 633 -167 636 -160 l 589 -167 l 589 -112 q 586 -110 589 -110 q 582 -110 583 -111 q 586 -98 585 -104 q 589 -85 588 -92 m 714 -117 q 712 -131 714 -124 q 703 -142 710 -137 q 708 -153 703 -149 q 714 -165 714 -157 l 714 -167 q 703 -168 710 -168 q 687 -165 694 -168 q 679 -151 679 -162 q 676 -156 676 -153 q 676 -161 676 -158 q 675 -167 676 -167 l 651 -167 l 651 -114 q 649 -111 651 -111 q 646 -108 646 -111 q 649 -97 646 -101 q 654 -85 651 -92 l 665 -85 q 699 -88 685 -83 q 714 -117 714 -93 m 678 -124 l 681 -124 q 688 -115 689 -124 l 688 -112 q 683 -111 685 -112 q 679 -110 682 -110 l 678 -110 l 678 -124 m 814 -85 l 814 -167 l 790 -167 l 792 -114 q 789 -110 792 -111 q 783 -110 786 -110 q 788 -97 786 -103 q 790 -85 789 -92 l 814 -85 m 853 -87 q 864 -85 856 -85 q 878 -88 871 -85 q 892 -94 885 -92 q 904 -124 899 -106 q 892 -153 901 -139 q 865 -167 883 -167 q 834 -153 846 -167 q 822 -121 822 -140 q 832 -99 822 -108 q 853 -87 842 -89 m 874 -112 q 863 -110 868 -110 q 852 -113 857 -110 q 847 -124 847 -117 q 867 -142 847 -142 l 868 -142 q 878 -125 878 -135 q 874 -112 878 -119 m 936 -85 q 944 -97 940 -92 q 951 -110 949 -103 q 954 -102 954 -108 q 954 -92 954 -96 q 957 -85 954 -86 l 979 -85 l 979 -167 l 958 -167 q 948 -151 953 -160 q 939 -133 943 -142 q 935 -147 935 -137 q 936 -162 936 -156 l 936 -167 l 913 -167 l 913 -114 q 910 -111 913 -111 q 904 -110 907 -111 q 908 -97 907 -103 q 913 -85 910 -92 l 936 -85 m 1044 -87 q 1056 -83 1049 -83 q 1069 -87 1063 -83 q 1083 -94 1076 -92 q 1092 -110 1088 -101 q 1096 -126 1096 -118 q 1084 -155 1096 -144 q 1056 -165 1072 -165 q 1025 -154 1036 -165 q 1014 -124 1014 -143 q 1024 -100 1014 -111 q 1044 -87 1033 -89 m 1056 -142 q 1071 -125 1071 -142 q 1065 -114 1071 -118 q 1054 -110 1060 -110 q 1050 -112 1049 -110 q 1039 -126 1039 -114 q 1056 -142 1039 -142 m 1126 -85 q 1136 -97 1132 -92 q 1143 -110 1140 -103 q 1145 -102 1146 -108 q 1144 -92 1144 -96 q 1147 -85 1144 -87 l 1171 -85 l 1171 -167 l 1150 -167 q 1141 -151 1147 -158 q 1132 -136 1135 -144 q 1129 -147 1128 -139 q 1131 -160 1131 -156 l 1129 -164 q 1118 -167 1126 -167 l 1104 -167 l 1104 -114 q 1101 -111 1104 -111 q 1099 -107 1099 -111 q 1101 -96 1099 -100 q 1104 -85 1104 -92 l 1126 -85 m 706 -219 q 703 -233 704 -226 q 699 -247 701 -240 l 678 -247 q 688 -250 681 -251 q 699 -250 696 -249 l 703 -250 q 703 -252 703 -251 q 704 -254 704 -253 q 702 -262 704 -258 q 700 -271 700 -267 q 693 -272 697 -272 q 685 -271 689 -271 q 678 -274 679 -271 q 689 -276 681 -276 q 701 -275 697 -275 l 706 -276 q 702 -289 703 -283 q 699 -301 701 -294 l 651 -301 l 651 -251 q 649 -248 651 -249 q 646 -244 646 -247 q 649 -233 646 -242 q 654 -221 653 -224 l 663 -222 q 681 -220 672 -222 q 700 -218 690 -218 l 706 -219 m 768 -219 q 760 -247 765 -235 l 739 -247 q 748 -253 739 -254 q 761 -251 757 -251 q 763 -252 763 -251 q 765 -253 764 -253 q 757 -276 764 -264 l 739 -276 l 739 -301 l 714 -301 q 713 -283 711 -292 q 714 -262 714 -274 q 711 -250 714 -256 q 708 -242 708 -244 q 713 -233 713 -239 q 717 -221 713 -226 l 725 -222 q 743 -220 735 -222 q 761 -218 751 -218 l 768 -219 m 993 -219 q 989 -237 990 -226 q 975 -247 988 -249 l 975 -301 l 949 -301 l 949 -250 q 944 -247 949 -246 q 938 -247 940 -247 l 936 -247 q 938 -234 936 -240 q 940 -221 940 -228 l 949 -222 q 967 -220 958 -222 q 986 -218 976 -218 l 993 -219 m 1024 -304 l 1015 -304 l 1015 -301 q 1003 -300 1010 -301 q 996 -292 996 -299 q 997 -276 1000 -285 q 1003 -274 1003 -274 q 1013 -276 1008 -274 q 1024 -279 1018 -279 l 1026 -278 q 1021 -272 1026 -274 q 1009 -267 1015 -269 q 998 -260 1003 -264 q 993 -244 993 -256 q 1006 -225 993 -231 q 1029 -219 1018 -219 q 1050 -224 1039 -219 l 1050 -228 q 1048 -235 1050 -233 q 1047 -244 1046 -237 q 1043 -247 1044 -247 q 1035 -246 1039 -247 q 1028 -244 1032 -244 q 1021 -247 1022 -244 q 1043 -256 1032 -250 q 1054 -276 1054 -262 q 1044 -295 1054 -286 q 1024 -304 1033 -304 m 1129 -304 l 1122 -304 l 1122 -301 q 1094 -288 1104 -300 q 1085 -260 1085 -276 q 1098 -231 1085 -242 q 1128 -221 1111 -221 q 1153 -229 1142 -221 q 1147 -241 1150 -236 q 1143 -253 1144 -246 q 1126 -247 1138 -247 q 1118 -249 1122 -247 q 1111 -256 1114 -250 l 1111 -268 q 1116 -274 1111 -272 q 1124 -275 1121 -275 q 1133 -274 1129 -275 q 1143 -272 1138 -272 q 1144 -274 1144 -272 q 1148 -283 1146 -279 q 1153 -292 1150 -286 q 1142 -299 1150 -299 q 1129 -304 1135 -300 m 111 -221 l 138 -221 q 140 -235 139 -228 q 142 -250 142 -243 q 147 -236 144 -243 q 150 -221 150 -229 l 171 -221 q 174 -235 174 -228 q 178 -250 175 -243 q 183 -236 183 -244 q 186 -221 182 -228 l 238 -221 l 238 -225 q 240 -236 238 -232 q 240 -247 242 -240 q 248 -236 247 -244 q 251 -221 249 -228 l 271 -221 q 274 -236 271 -229 q 276 -250 278 -243 q 282 -236 282 -244 q 285 -221 282 -228 l 336 -221 q 339 -235 339 -228 q 342 -250 339 -243 q 347 -236 344 -243 q 349 -221 349 -229 l 369 -221 q 374 -235 372 -228 q 378 -250 375 -243 q 382 -236 382 -244 q 385 -221 382 -228 l 408 -221 q 401 -262 407 -242 q 393 -301 396 -282 l 367 -301 l 367 -299 q 365 -286 368 -292 q 363 -274 361 -281 q 356 -287 357 -279 q 354 -301 354 -294 l 328 -301 q 320 -266 324 -283 q 310 -232 317 -249 q 294 -301 299 -268 l 269 -301 q 265 -288 267 -294 q 261 -276 264 -282 q 256 -288 256 -281 q 253 -301 257 -296 l 228 -301 q 220 -265 225 -282 q 213 -229 215 -249 q 202 -265 204 -246 q 194 -301 200 -283 l 168 -301 l 168 -299 q 165 -286 169 -292 q 163 -274 161 -281 q 157 -287 158 -279 q 156 -301 156 -294 l 129 -301 q 120 -262 126 -282 q 111 -221 114 -242 m 468 -221 l 468 -247 l 481 -247 q 483 -237 485 -244 q 483 -225 482 -229 l 483 -221 q 491 -222 488 -222 q 499 -221 494 -221 q 504 -221 501 -221 q 510 -224 507 -221 l 510 -301 l 483 -301 l 483 -274 l 471 -274 q 467 -285 467 -276 q 468 -297 468 -293 l 468 -301 l 442 -301 l 442 -256 q 443 -251 443 -254 q 440 -248 443 -249 q 438 -244 438 -247 q 440 -233 438 -237 q 442 -221 442 -228 l 468 -221 m 513 -221 l 538 -221 l 546 -237 q 549 -230 549 -235 q 553 -221 550 -225 l 579 -221 q 572 -242 576 -233 q 564 -258 568 -250 q 558 -276 560 -267 q 558 -301 556 -286 l 532 -301 q 531 -267 532 -276 q 526 -252 529 -257 q 520 -242 524 -247 q 513 -221 517 -237 m 610 -286 l 610 -301 l 585 -301 l 585 -250 q 581 -247 585 -247 q 576 -247 578 -247 q 581 -234 579 -240 q 585 -221 582 -228 l 597 -221 q 628 -227 613 -221 q 643 -253 643 -233 q 628 -283 643 -268 l 626 -283 q 619 -285 621 -283 q 610 -286 617 -287 m 610 -260 l 613 -261 q 618 -254 618 -261 q 613 -247 618 -247 l 610 -247 l 610 -260 m 811 -304 l 811 -301 q 782 -289 792 -301 q 772 -257 772 -276 q 785 -232 772 -242 q 814 -222 799 -222 q 844 -233 832 -222 q 856 -262 856 -244 q 841 -292 856 -278 q 811 -304 826 -307 m 822 -247 q 819 -247 819 -247 q 815 -246 818 -246 q 799 -262 799 -246 q 804 -276 799 -268 q 808 -277 807 -276 q 813 -278 810 -278 q 829 -260 826 -278 q 826 -253 828 -257 q 822 -247 824 -250 m 889 -221 q 895 -235 890 -229 q 903 -247 900 -240 q 905 -237 906 -244 q 904 -225 904 -229 l 904 -221 l 931 -221 l 931 -301 l 907 -301 q 899 -285 903 -293 q 886 -271 894 -276 l 886 -301 l 864 -301 l 864 -250 q 861 -247 864 -247 q 856 -247 858 -247 q 860 -234 858 -240 q 864 -221 861 -228 l 889 -221 m 1194 -304 l 1194 -301 q 1168 -290 1179 -301 q 1157 -262 1157 -278 q 1167 -233 1157 -244 q 1197 -222 1178 -222 q 1226 -233 1213 -222 q 1239 -260 1239 -243 q 1226 -292 1239 -278 q 1194 -304 1213 -306 m 1194 -278 q 1213 -268 1207 -278 l 1213 -264 q 1208 -250 1214 -254 q 1194 -247 1203 -246 l 1189 -247 q 1183 -261 1183 -253 q 1194 -278 1183 -274 m 1246 -221 l 1272 -221 q 1277 -230 1275 -225 q 1285 -237 1279 -235 q 1292 -230 1289 -235 q 1297 -221 1294 -225 l 1324 -221 l 1324 -301 l 1297 -301 l 1297 -265 q 1296 -264 1297 -264 q 1291 -269 1293 -264 q 1288 -276 1289 -274 l 1286 -276 q 1278 -270 1279 -276 q 1272 -262 1278 -264 l 1272 -301 l 1246 -301 l 1246 -251 q 1243 -248 1246 -249 q 1240 -244 1240 -247 q 1243 -233 1240 -239 q 1246 -221 1246 -228 m 421 -304 q 410 -289 410 -299 q 424 -276 410 -276 q 436 -289 436 -276 q 421 -304 436 -304 m 1071 -304 l 1068 -304 q 1060 -298 1063 -304 q 1057 -289 1057 -292 q 1071 -275 1057 -275 q 1078 -279 1076 -275 q 1083 -286 1081 -283 l 1083 -290 q 1078 -299 1083 -297 q 1071 -304 1074 -301 z "},"2":{"ha":1415,"x_min":-4,"x_max":1372,"o":"m 1372 604 q 1372 589 1372 600 q 1369 566 1371 578 q 1367 543 1368 554 q 1365 526 1365 532 q 1358 493 1363 510 q 1350 460 1354 476 q 1256 252 1319 346 q 1104 91 1192 158 q 910 -14 1017 24 q 685 -51 803 -51 q 410 5 538 -51 q 191 158 283 61 q 47 383 99 254 q 0 658 -4 513 q 3 664 3 660 q 29 831 6 751 q 99 985 53 910 q 138 1043 114 1011 q 190 1106 161 1075 q 248 1162 218 1136 q 306 1201 278 1188 l 307 1207 l 313 1207 l 315 1211 q 324 1215 319 1214 q 333 1219 329 1217 q 349 1230 342 1225 q 364 1240 357 1235 q 405 1260 383 1251 q 447 1276 426 1268 q 563 1309 504 1299 q 683 1319 622 1319 q 942 1270 817 1319 q 1164 1126 1068 1221 q 1225 1059 1196 1094 q 1278 983 1254 1024 q 1290 957 1285 971 q 1303 931 1296 943 q 1312 915 1307 922 q 1319 900 1317 908 q 1337 855 1331 878 q 1350 808 1343 832 q 1368 708 1364 754 q 1372 604 1372 661 m 1047 940 q 949 937 999 936 q 851 938 900 938 l 814 938 q 784 837 797 888 q 754 736 771 786 q 771 735 763 735 q 788 736 779 736 q 807 733 800 736 l 807 283 l 1008 283 l 1008 504 l 1161 504 q 1187 595 1172 550 q 1213 688 1201 640 l 1008 688 q 1009 702 1010 694 q 1008 717 1008 710 q 1008 726 1008 721 q 1011 733 1008 731 l 1182 733 q 1212 843 1194 789 q 1243 953 1229 897 l 1051 953 q 1047 940 1044 950 m 186 931 q 158 833 174 882 q 132 736 143 785 q 149 735 140 735 q 165 736 157 736 q 174 736 169 736 q 183 733 179 736 l 183 283 l 385 283 l 385 457 q 385 487 385 472 q 388 517 385 501 q 426 516 407 515 q 465 517 446 517 q 488 517 476 517 q 513 514 500 517 l 513 286 q 551 283 532 283 q 590 283 571 283 q 651 284 621 283 q 714 283 682 285 l 714 938 q 651 938 682 936 q 590 939 621 939 q 513 935 550 939 l 513 724 l 385 724 q 385 789 385 756 q 386 854 386 822 q 382 938 386 896 l 192 938 q 188 935 189 938 q 186 931 188 932 m 781 -87 q 777 -99 778 -93 q 772 -110 776 -104 q 764 -108 768 -110 q 754 -107 760 -107 q 750 -108 751 -107 q 763 -117 754 -115 q 778 -124 771 -118 q 782 -139 782 -131 q 778 -157 782 -149 q 749 -167 767 -167 q 724 -162 736 -167 l 724 -160 q 726 -148 724 -153 q 729 -136 728 -143 q 740 -140 735 -137 q 750 -142 744 -142 l 754 -142 q 747 -133 754 -135 q 735 -131 740 -132 q 726 -120 731 -124 q 721 -108 721 -117 q 735 -89 721 -94 q 760 -83 749 -83 q 781 -87 769 -83 m 256 -85 l 307 -85 l 307 -86 q 305 -98 308 -93 q 303 -110 301 -103 q 294 -110 299 -111 q 286 -110 290 -110 q 279 -112 281 -110 q 290 -116 282 -117 q 301 -115 297 -115 l 306 -115 q 301 -126 304 -122 q 300 -139 299 -131 l 279 -139 l 279 -167 l 265 -167 q 253 -164 256 -167 l 254 -114 q 249 -110 254 -112 q 252 -97 251 -103 q 256 -85 253 -92 m 342 -85 q 341 -101 342 -93 q 340 -118 340 -110 q 346 -142 340 -132 l 350 -142 q 357 -133 357 -142 q 357 -119 357 -125 l 357 -85 l 371 -85 q 382 -87 379 -85 l 383 -112 q 378 -149 383 -131 q 350 -167 374 -167 q 321 -154 335 -167 q 318 -134 318 -143 q 318 -114 318 -125 q 315 -110 318 -111 q 310 -110 313 -110 q 314 -97 313 -103 q 318 -85 315 -92 l 342 -85 m 418 -87 q 417 -113 418 -100 q 418 -139 417 -126 q 424 -142 419 -142 q 432 -142 429 -142 l 435 -142 q 431 -154 432 -149 q 426 -167 429 -160 l 393 -167 l 393 -114 q 390 -111 393 -111 q 385 -110 388 -111 q 389 -98 388 -104 q 393 -85 390 -92 l 407 -85 q 418 -87 415 -85 m 465 -85 q 465 -112 465 -99 q 465 -139 464 -125 q 470 -142 465 -142 q 478 -142 475 -142 l 481 -142 l 481 -144 q 478 -156 482 -151 q 475 -167 475 -160 q 465 -167 469 -167 q 454 -168 460 -168 q 439 -164 444 -168 l 440 -115 q 435 -110 440 -110 q 438 -97 438 -103 q 442 -85 439 -92 l 465 -85 m 510 -85 l 535 -85 q 541 -101 538 -93 q 546 -118 544 -108 q 554 -102 553 -112 q 558 -85 556 -92 l 585 -85 q 573 -126 581 -106 q 558 -167 565 -147 l 538 -167 q 523 -126 531 -147 q 510 -85 515 -106 m 589 -85 l 643 -85 q 638 -97 640 -92 q 636 -110 636 -103 q 629 -110 633 -111 q 622 -110 625 -110 q 615 -112 617 -110 q 626 -116 618 -117 q 638 -115 633 -115 l 642 -115 q 639 -126 640 -121 q 636 -136 638 -131 l 615 -136 q 626 -139 618 -140 q 638 -139 633 -137 l 642 -139 l 642 -140 q 639 -153 642 -147 q 633 -167 636 -160 l 589 -167 l 589 -112 q 586 -110 589 -110 q 582 -110 583 -111 q 586 -98 585 -104 q 589 -85 588 -92 m 714 -117 q 712 -131 714 -124 q 703 -142 710 -137 q 708 -153 703 -149 q 714 -165 714 -157 l 714 -167 q 703 -168 710 -168 q 687 -165 694 -168 q 679 -151 679 -162 q 676 -156 676 -153 q 676 -161 676 -158 q 675 -167 676 -167 l 651 -167 l 651 -114 q 649 -111 651 -111 q 646 -108 646 -111 q 649 -97 646 -101 q 654 -85 651 -92 l 665 -85 q 699 -88 685 -83 q 714 -117 714 -93 m 678 -124 l 681 -124 q 688 -115 689 -124 l 688 -112 q 683 -111 685 -112 q 679 -110 682 -110 l 678 -110 l 678 -124 m 814 -85 l 814 -167 l 790 -167 l 792 -114 q 789 -110 792 -111 q 783 -110 786 -110 q 788 -97 786 -103 q 790 -85 789 -92 l 814 -85 m 853 -87 q 864 -85 856 -85 q 878 -88 871 -85 q 892 -94 885 -92 q 904 -124 899 -106 q 892 -153 901 -139 q 865 -167 883 -167 q 834 -153 846 -167 q 822 -121 822 -140 q 832 -99 822 -108 q 853 -87 842 -89 m 874 -112 q 863 -110 868 -110 q 852 -113 857 -110 q 847 -124 847 -117 q 867 -142 847 -142 l 868 -142 q 878 -125 878 -135 q 874 -112 878 -119 m 936 -85 q 944 -97 940 -92 q 951 -110 949 -103 q 954 -102 954 -108 q 954 -92 954 -96 q 957 -85 954 -86 l 979 -85 l 979 -167 l 958 -167 q 948 -151 953 -160 q 939 -133 943 -142 q 935 -147 935 -137 q 936 -162 936 -156 l 936 -167 l 913 -167 l 913 -114 q 910 -111 913 -111 q 904 -110 907 -111 q 908 -97 907 -103 q 913 -85 910 -92 l 936 -85 m 1044 -87 q 1056 -83 1049 -83 q 1069 -87 1063 -83 q 1083 -94 1076 -92 q 1092 -110 1088 -101 q 1096 -126 1096 -118 q 1084 -155 1096 -144 q 1056 -165 1072 -165 q 1025 -154 1036 -165 q 1014 -124 1014 -143 q 1024 -100 1014 -111 q 1044 -87 1033 -89 m 1056 -142 q 1071 -125 1071 -142 q 1065 -114 1071 -118 q 1054 -110 1060 -110 q 1050 -112 1049 -110 q 1039 -126 1039 -114 q 1056 -142 1039 -142 m 1126 -85 q 1136 -97 1132 -92 q 1143 -110 1140 -103 q 1145 -102 1146 -108 q 1144 -92 1144 -96 q 1147 -85 1144 -87 l 1171 -85 l 1171 -167 l 1150 -167 q 1141 -151 1147 -158 q 1132 -136 1135 -144 q 1129 -147 1128 -139 q 1131 -160 1131 -156 l 1129 -164 q 1118 -167 1126 -167 l 1104 -167 l 1104 -114 q 1101 -111 1104 -111 q 1099 -107 1099 -111 q 1101 -96 1099 -100 q 1104 -85 1104 -92 l 1126 -85 m 706 -219 q 703 -233 704 -226 q 699 -247 701 -240 l 678 -247 q 688 -250 681 -251 q 699 -250 696 -249 l 703 -250 q 703 -252 703 -251 q 704 -254 704 -253 q 702 -262 704 -258 q 700 -271 700 -267 q 693 -272 697 -272 q 685 -271 689 -271 q 678 -274 679 -271 q 689 -276 681 -276 q 701 -275 697 -275 l 706 -276 q 702 -289 703 -283 q 699 -301 701 -294 l 651 -301 l 651 -251 q 649 -248 651 -249 q 646 -244 646 -247 q 649 -233 646 -242 q 654 -221 653 -224 l 663 -222 q 681 -220 672 -222 q 700 -218 690 -218 l 706 -219 m 768 -219 q 760 -247 765 -235 l 739 -247 q 748 -253 739 -254 q 761 -251 757 -251 q 763 -252 763 -251 q 765 -253 764 -253 q 757 -276 764 -264 l 739 -276 l 739 -301 l 714 -301 q 713 -283 711 -292 q 714 -262 714 -274 q 711 -250 714 -256 q 708 -242 708 -244 q 713 -233 713 -239 q 717 -221 713 -226 l 725 -222 q 743 -220 735 -222 q 761 -218 751 -218 l 768 -219 m 993 -219 q 989 -237 990 -226 q 975 -247 988 -249 l 975 -301 l 949 -301 l 949 -250 q 944 -247 949 -246 q 938 -247 940 -247 l 936 -247 q 938 -234 936 -240 q 940 -221 940 -228 l 949 -222 q 967 -220 958 -222 q 986 -218 976 -218 l 993 -219 m 1024 -304 l 1015 -304 l 1015 -301 q 1003 -300 1010 -301 q 996 -292 996 -299 q 997 -276 1000 -285 q 1003 -274 1003 -274 q 1013 -276 1008 -274 q 1024 -279 1018 -279 l 1026 -278 q 1021 -272 1026 -274 q 1009 -267 1015 -269 q 998 -260 1003 -264 q 993 -244 993 -256 q 1006 -225 993 -231 q 1029 -219 1018 -219 q 1050 -224 1039 -219 l 1050 -228 q 1048 -235 1050 -233 q 1047 -244 1046 -237 q 1043 -247 1044 -247 q 1035 -246 1039 -247 q 1028 -244 1032 -244 q 1021 -247 1022 -244 q 1043 -256 1032 -250 q 1054 -276 1054 -262 q 1044 -295 1054 -286 q 1024 -304 1033 -304 m 1129 -304 l 1122 -304 l 1122 -301 q 1094 -288 1104 -300 q 1085 -260 1085 -276 q 1098 -231 1085 -242 q 1128 -221 1111 -221 q 1153 -229 1142 -221 q 1147 -241 1150 -236 q 1143 -253 1144 -246 q 1126 -247 1138 -247 q 1118 -249 1122 -247 q 1111 -256 1114 -250 l 1111 -268 q 1116 -274 1111 -272 q 1124 -275 1121 -275 q 1133 -274 1129 -275 q 1143 -272 1138 -272 q 1144 -274 1144 -272 q 1148 -283 1146 -279 q 1153 -292 1150 -286 q 1142 -299 1150 -299 q 1129 -304 1135 -300 m 111 -221 l 138 -221 q 140 -235 139 -228 q 142 -250 142 -243 q 147 -236 144 -243 q 150 -221 150 -229 l 171 -221 q 174 -235 174 -228 q 178 -250 175 -243 q 183 -236 183 -244 q 186 -221 182 -228 l 238 -221 l 238 -225 q 240 -236 238 -232 q 240 -247 242 -240 q 248 -236 247 -244 q 251 -221 249 -228 l 271 -221 q 274 -236 271 -229 q 276 -250 278 -243 q 282 -236 282 -244 q 285 -221 282 -228 l 336 -221 q 339 -235 339 -228 q 342 -250 339 -243 q 347 -236 344 -243 q 349 -221 349 -229 l 369 -221 q 374 -235 372 -228 q 378 -250 375 -243 q 382 -236 382 -244 q 385 -221 382 -228 l 408 -221 q 401 -262 407 -242 q 393 -301 396 -282 l 367 -301 l 367 -299 q 365 -286 368 -292 q 363 -274 361 -281 q 356 -287 357 -279 q 354 -301 354 -294 l 328 -301 q 320 -266 324 -283 q 310 -232 317 -249 q 294 -301 299 -268 l 269 -301 q 265 -288 267 -294 q 261 -276 264 -282 q 256 -288 256 -281 q 253 -301 257 -296 l 228 -301 q 220 -265 225 -282 q 213 -229 215 -249 q 202 -265 204 -246 q 194 -301 200 -283 l 168 -301 l 168 -299 q 165 -286 169 -292 q 163 -274 161 -281 q 157 -287 158 -279 q 156 -301 156 -294 l 129 -301 q 120 -262 126 -282 q 111 -221 114 -242 m 468 -221 l 468 -247 l 481 -247 q 483 -237 485 -244 q 483 -225 482 -229 l 483 -221 q 491 -222 488 -222 q 499 -221 494 -221 q 504 -221 501 -221 q 510 -224 507 -221 l 510 -301 l 483 -301 l 483 -274 l 471 -274 q 467 -285 467 -276 q 468 -297 468 -293 l 468 -301 l 442 -301 l 442 -256 q 443 -251 443 -254 q 440 -248 443 -249 q 438 -244 438 -247 q 440 -233 438 -237 q 442 -221 442 -228 l 468 -221 m 513 -221 l 538 -221 l 546 -237 q 549 -230 549 -235 q 553 -221 550 -225 l 579 -221 q 572 -242 576 -233 q 564 -258 568 -250 q 558 -276 560 -267 q 558 -301 556 -286 l 532 -301 q 531 -267 532 -276 q 526 -252 529 -257 q 520 -242 524 -247 q 513 -221 517 -237 m 610 -286 l 610 -301 l 585 -301 l 585 -250 q 581 -247 585 -247 q 576 -247 578 -247 q 581 -234 579 -240 q 585 -221 582 -228 l 597 -221 q 628 -227 613 -221 q 643 -253 643 -233 q 628 -283 643 -268 l 626 -283 q 619 -285 621 -283 q 610 -286 617 -287 m 610 -260 l 613 -261 q 618 -254 618 -261 q 613 -247 618 -247 l 610 -247 l 610 -260 m 811 -304 l 811 -301 q 782 -289 792 -301 q 772 -257 772 -276 q 785 -232 772 -242 q 814 -222 799 -222 q 844 -233 832 -222 q 856 -262 856 -244 q 841 -292 856 -278 q 811 -304 826 -307 m 822 -247 q 819 -247 819 -247 q 815 -246 818 -246 q 799 -262 799 -246 q 804 -276 799 -268 q 808 -277 807 -276 q 813 -278 810 -278 q 829 -260 826 -278 q 826 -253 828 -257 q 822 -247 824 -250 m 889 -221 q 895 -235 890 -229 q 903 -247 900 -240 q 905 -237 906 -244 q 904 -225 904 -229 l 904 -221 l 931 -221 l 931 -301 l 907 -301 q 899 -285 903 -293 q 886 -271 894 -276 l 886 -301 l 864 -301 l 864 -250 q 861 -247 864 -247 q 856 -247 858 -247 q 860 -234 858 -240 q 864 -221 861 -228 l 889 -221 m 1194 -304 l 1194 -301 q 1168 -290 1179 -301 q 1157 -262 1157 -278 q 1167 -233 1157 -244 q 1197 -222 1178 -222 q 1226 -233 1213 -222 q 1239 -260 1239 -243 q 1226 -292 1239 -278 q 1194 -304 1213 -306 m 1194 -278 q 1213 -268 1207 -278 l 1213 -264 q 1208 -250 1214 -254 q 1194 -247 1203 -246 l 1189 -247 q 1183 -261 1183 -253 q 1194 -278 1183 -274 m 1246 -221 l 1272 -221 q 1277 -230 1275 -225 q 1285 -237 1279 -235 q 1292 -230 1289 -235 q 1297 -221 1294 -225 l 1324 -221 l 1324 -301 l 1297 -301 l 1297 -265 q 1296 -264 1297 -264 q 1291 -269 1293 -264 q 1288 -276 1289 -274 l 1286 -276 q 1278 -270 1279 -276 q 1272 -262 1278 -264 l 1272 -301 l 1246 -301 l 1246 -251 q 1243 -248 1246 -249 q 1240 -244 1240 -247 q 1243 -233 1240 -239 q 1246 -221 1246 -228 m 421 -304 q 410 -289 410 -299 q 424 -276 410 -276 q 436 -289 436 -276 q 421 -304 436 -304 m 1071 -304 l 1068 -304 q 1060 -298 1063 -304 q 1057 -289 1057 -292 q 1071 -275 1057 -275 q 1078 -279 1076 -275 q 1083 -286 1081 -283 l 1083 -290 q 1078 -299 1083 -297 q 1071 -304 1074 -301 z "},"3":{"ha":1415,"x_min":-4,"x_max":1372,"o":"m 1372 604 q 1372 589 1372 600 q 1369 566 1371 578 q 1367 543 1368 554 q 1365 526 1365 532 q 1358 493 1363 510 q 1350 460 1354 476 q 1256 252 1319 346 q 1104 91 1192 158 q 910 -14 1017 24 q 685 -51 803 -51 q 410 5 538 -51 q 191 158 283 61 q 47 383 99 254 q 0 658 -4 513 q 3 664 3 660 q 29 831 6 751 q 99 985 53 910 q 138 1043 114 1011 q 190 1106 161 1075 q 248 1162 218 1136 q 306 1201 278 1188 l 307 1207 l 313 1207 l 315 1211 q 324 1215 319 1214 q 333 1219 329 1217 q 349 1230 342 1225 q 364 1240 357 1235 q 405 1260 383 1251 q 447 1276 426 1268 q 563 1309 504 1299 q 683 1319 622 1319 q 942 1270 817 1319 q 1164 1126 1068 1221 q 1225 1059 1196 1094 q 1278 983 1254 1024 q 1290 957 1285 971 q 1303 931 1296 943 q 1312 915 1307 922 q 1319 900 1317 908 q 1337 855 1331 878 q 1350 808 1343 832 q 1368 708 1364 754 q 1372 604 1372 661 m 1047 940 q 949 937 999 936 q 851 938 900 938 l 814 938 q 784 837 797 888 q 754 736 771 786 q 771 735 763 735 q 788 736 779 736 q 807 733 800 736 l 807 283 l 1008 283 l 1008 504 l 1161 504 q 1187 595 1172 550 q 1213 688 1201 640 l 1008 688 q 1009 702 1010 694 q 1008 717 1008 710 q 1008 726 1008 721 q 1011 733 1008 731 l 1182 733 q 1212 843 1194 789 q 1243 953 1229 897 l 1051 953 q 1047 940 1044 950 m 186 931 q 158 833 174 882 q 132 736 143 785 q 149 735 140 735 q 165 736 157 736 q 174 736 169 736 q 183 733 179 736 l 183 283 l 385 283 l 385 457 q 385 487 385 472 q 388 517 385 501 q 426 516 407 515 q 465 517 446 517 q 488 517 476 517 q 513 514 500 517 l 513 286 q 551 283 532 283 q 590 283 571 283 q 651 284 621 283 q 714 283 682 285 l 714 938 q 651 938 682 936 q 590 939 621 939 q 513 935 550 939 l 513 724 l 385 724 q 385 789 385 756 q 386 854 386 822 q 382 938 386 896 l 192 938 q 188 935 189 938 q 186 931 188 932 m 781 -87 q 777 -99 778 -93 q 772 -110 776 -104 q 764 -108 768 -110 q 754 -107 760 -107 q 750 -108 751 -107 q 763 -117 754 -115 q 778 -124 771 -118 q 782 -139 782 -131 q 778 -157 782 -149 q 749 -167 767 -167 q 724 -162 736 -167 l 724 -160 q 726 -148 724 -153 q 729 -136 728 -143 q 740 -140 735 -137 q 750 -142 744 -142 l 754 -142 q 747 -133 754 -135 q 735 -131 740 -132 q 726 -120 731 -124 q 721 -108 721 -117 q 735 -89 721 -94 q 760 -83 749 -83 q 781 -87 769 -83 m 256 -85 l 307 -85 l 307 -86 q 305 -98 308 -93 q 303 -110 301 -103 q 294 -110 299 -111 q 286 -110 290 -110 q 279 -112 281 -110 q 290 -116 282 -117 q 301 -115 297 -115 l 306 -115 q 301 -126 304 -122 q 300 -139 299 -131 l 279 -139 l 279 -167 l 265 -167 q 253 -164 256 -167 l 254 -114 q 249 -110 254 -112 q 252 -97 251 -103 q 256 -85 253 -92 m 342 -85 q 341 -101 342 -93 q 340 -118 340 -110 q 346 -142 340 -132 l 350 -142 q 357 -133 357 -142 q 357 -119 357 -125 l 357 -85 l 371 -85 q 382 -87 379 -85 l 383 -112 q 378 -149 383 -131 q 350 -167 374 -167 q 321 -154 335 -167 q 318 -134 318 -143 q 318 -114 318 -125 q 315 -110 318 -111 q 310 -110 313 -110 q 314 -97 313 -103 q 318 -85 315 -92 l 342 -85 m 418 -87 q 417 -113 418 -100 q 418 -139 417 -126 q 424 -142 419 -142 q 432 -142 429 -142 l 435 -142 q 431 -154 432 -149 q 426 -167 429 -160 l 393 -167 l 393 -114 q 390 -111 393 -111 q 385 -110 388 -111 q 389 -98 388 -104 q 393 -85 390 -92 l 407 -85 q 418 -87 415 -85 m 465 -85 q 465 -112 465 -99 q 465 -139 464 -125 q 470 -142 465 -142 q 478 -142 475 -142 l 481 -142 l 481 -144 q 478 -156 482 -151 q 475 -167 475 -160 q 465 -167 469 -167 q 454 -168 460 -168 q 439 -164 444 -168 l 440 -115 q 435 -110 440 -110 q 438 -97 438 -103 q 442 -85 439 -92 l 465 -85 m 510 -85 l 535 -85 q 541 -101 538 -93 q 546 -118 544 -108 q 554 -102 553 -112 q 558 -85 556 -92 l 585 -85 q 573 -126 581 -106 q 558 -167 565 -147 l 538 -167 q 523 -126 531 -147 q 510 -85 515 -106 m 589 -85 l 643 -85 q 638 -97 640 -92 q 636 -110 636 -103 q 629 -110 633 -111 q 622 -110 625 -110 q 615 -112 617 -110 q 626 -116 618 -117 q 638 -115 633 -115 l 642 -115 q 639 -126 640 -121 q 636 -136 638 -131 l 615 -136 q 626 -139 618 -140 q 638 -139 633 -137 l 642 -139 l 642 -140 q 639 -153 642 -147 q 633 -167 636 -160 l 589 -167 l 589 -112 q 586 -110 589 -110 q 582 -110 583 -111 q 586 -98 585 -104 q 589 -85 588 -92 m 714 -117 q 712 -131 714 -124 q 703 -142 710 -137 q 708 -153 703 -149 q 714 -165 714 -157 l 714 -167 q 703 -168 710 -168 q 687 -165 694 -168 q 679 -151 679 -162 q 676 -156 676 -153 q 676 -161 676 -158 q 675 -167 676 -167 l 651 -167 l 651 -114 q 649 -111 651 -111 q 646 -108 646 -111 q 649 -97 646 -101 q 654 -85 651 -92 l 665 -85 q 699 -88 685 -83 q 714 -117 714 -93 m 678 -124 l 681 -124 q 688 -115 689 -124 l 688 -112 q 683 -111 685 -112 q 679 -110 682 -110 l 678 -110 l 678 -124 m 814 -85 l 814 -167 l 790 -167 l 792 -114 q 789 -110 792 -111 q 783 -110 786 -110 q 788 -97 786 -103 q 790 -85 789 -92 l 814 -85 m 853 -87 q 864 -85 856 -85 q 878 -88 871 -85 q 892 -94 885 -92 q 904 -124 899 -106 q 892 -153 901 -139 q 865 -167 883 -167 q 834 -153 846 -167 q 822 -121 822 -140 q 832 -99 822 -108 q 853 -87 842 -89 m 874 -112 q 863 -110 868 -110 q 852 -113 857 -110 q 847 -124 847 -117 q 867 -142 847 -142 l 868 -142 q 878 -125 878 -135 q 874 -112 878 -119 m 936 -85 q 944 -97 940 -92 q 951 -110 949 -103 q 954 -102 954 -108 q 954 -92 954 -96 q 957 -85 954 -86 l 979 -85 l 979 -167 l 958 -167 q 948 -151 953 -160 q 939 -133 943 -142 q 935 -147 935 -137 q 936 -162 936 -156 l 936 -167 l 913 -167 l 913 -114 q 910 -111 913 -111 q 904 -110 907 -111 q 908 -97 907 -103 q 913 -85 910 -92 l 936 -85 m 1044 -87 q 1056 -83 1049 -83 q 1069 -87 1063 -83 q 1083 -94 1076 -92 q 1092 -110 1088 -101 q 1096 -126 1096 -118 q 1084 -155 1096 -144 q 1056 -165 1072 -165 q 1025 -154 1036 -165 q 1014 -124 1014 -143 q 1024 -100 1014 -111 q 1044 -87 1033 -89 m 1056 -142 q 1071 -125 1071 -142 q 1065 -114 1071 -118 q 1054 -110 1060 -110 q 1050 -112 1049 -110 q 1039 -126 1039 -114 q 1056 -142 1039 -142 m 1126 -85 q 1136 -97 1132 -92 q 1143 -110 1140 -103 q 1145 -102 1146 -108 q 1144 -92 1144 -96 q 1147 -85 1144 -87 l 1171 -85 l 1171 -167 l 1150 -167 q 1141 -151 1147 -158 q 1132 -136 1135 -144 q 1129 -147 1128 -139 q 1131 -160 1131 -156 l 1129 -164 q 1118 -167 1126 -167 l 1104 -167 l 1104 -114 q 1101 -111 1104 -111 q 1099 -107 1099 -111 q 1101 -96 1099 -100 q 1104 -85 1104 -92 l 1126 -85 m 706 -219 q 703 -233 704 -226 q 699 -247 701 -240 l 678 -247 q 688 -250 681 -251 q 699 -250 696 -249 l 703 -250 q 703 -252 703 -251 q 704 -254 704 -253 q 702 -262 704 -258 q 700 -271 700 -267 q 693 -272 697 -272 q 685 -271 689 -271 q 678 -274 679 -271 q 689 -276 681 -276 q 701 -275 697 -275 l 706 -276 q 702 -289 703 -283 q 699 -301 701 -294 l 651 -301 l 651 -251 q 649 -248 651 -249 q 646 -244 646 -247 q 649 -233 646 -242 q 654 -221 653 -224 l 663 -222 q 681 -220 672 -222 q 700 -218 690 -218 l 706 -219 m 768 -219 q 760 -247 765 -235 l 739 -247 q 748 -253 739 -254 q 761 -251 757 -251 q 763 -252 763 -251 q 765 -253 764 -253 q 757 -276 764 -264 l 739 -276 l 739 -301 l 714 -301 q 713 -283 711 -292 q 714 -262 714 -274 q 711 -250 714 -256 q 708 -242 708 -244 q 713 -233 713 -239 q 717 -221 713 -226 l 725 -222 q 743 -220 735 -222 q 761 -218 751 -218 l 768 -219 m 993 -219 q 989 -237 990 -226 q 975 -247 988 -249 l 975 -301 l 949 -301 l 949 -250 q 944 -247 949 -246 q 938 -247 940 -247 l 936 -247 q 938 -234 936 -240 q 940 -221 940 -228 l 949 -222 q 967 -220 958 -222 q 986 -218 976 -218 l 993 -219 m 1024 -304 l 1015 -304 l 1015 -301 q 1003 -300 1010 -301 q 996 -292 996 -299 q 997 -276 1000 -285 q 1003 -274 1003 -274 q 1013 -276 1008 -274 q 1024 -279 1018 -279 l 1026 -278 q 1021 -272 1026 -274 q 1009 -267 1015 -269 q 998 -260 1003 -264 q 993 -244 993 -256 q 1006 -225 993 -231 q 1029 -219 1018 -219 q 1050 -224 1039 -219 l 1050 -228 q 1048 -235 1050 -233 q 1047 -244 1046 -237 q 1043 -247 1044 -247 q 1035 -246 1039 -247 q 1028 -244 1032 -244 q 1021 -247 1022 -244 q 1043 -256 1032 -250 q 1054 -276 1054 -262 q 1044 -295 1054 -286 q 1024 -304 1033 -304 m 1129 -304 l 1122 -304 l 1122 -301 q 1094 -288 1104 -300 q 1085 -260 1085 -276 q 1098 -231 1085 -242 q 1128 -221 1111 -221 q 1153 -229 1142 -221 q 1147 -241 1150 -236 q 1143 -253 1144 -246 q 1126 -247 1138 -247 q 1118 -249 1122 -247 q 1111 -256 1114 -250 l 1111 -268 q 1116 -274 1111 -272 q 1124 -275 1121 -275 q 1133 -274 1129 -275 q 1143 -272 1138 -272 q 1144 -274 1144 -272 q 1148 -283 1146 -279 q 1153 -292 1150 -286 q 1142 -299 1150 -299 q 1129 -304 1135 -300 m 111 -221 l 138 -221 q 140 -235 139 -228 q 142 -250 142 -243 q 147 -236 144 -243 q 150 -221 150 -229 l 171 -221 q 174 -235 174 -228 q 178 -250 175 -243 q 183 -236 183 -244 q 186 -221 182 -228 l 238 -221 l 238 -225 q 240 -236 238 -232 q 240 -247 242 -240 q 248 -236 247 -244 q 251 -221 249 -228 l 271 -221 q 274 -236 271 -229 q 276 -250 278 -243 q 282 -236 282 -244 q 285 -221 282 -228 l 336 -221 q 339 -235 339 -228 q 342 -250 339 -243 q 347 -236 344 -243 q 349 -221 349 -229 l 369 -221 q 374 -235 372 -228 q 378 -250 375 -243 q 382 -236 382 -244 q 385 -221 382 -228 l 408 -221 q 401 -262 407 -242 q 393 -301 396 -282 l 367 -301 l 367 -299 q 365 -286 368 -292 q 363 -274 361 -281 q 356 -287 357 -279 q 354 -301 354 -294 l 328 -301 q 320 -266 324 -283 q 310 -232 317 -249 q 294 -301 299 -268 l 269 -301 q 265 -288 267 -294 q 261 -276 264 -282 q 256 -288 256 -281 q 253 -301 257 -296 l 228 -301 q 220 -265 225 -282 q 213 -229 215 -249 q 202 -265 204 -246 q 194 -301 200 -283 l 168 -301 l 168 -299 q 165 -286 169 -292 q 163 -274 161 -281 q 157 -287 158 -279 q 156 -301 156 -294 l 129 -301 q 120 -262 126 -282 q 111 -221 114 -242 m 468 -221 l 468 -247 l 481 -247 q 483 -237 485 -244 q 483 -225 482 -229 l 483 -221 q 491 -222 488 -222 q 499 -221 494 -221 q 504 -221 501 -221 q 510 -224 507 -221 l 510 -301 l 483 -301 l 483 -274 l 471 -274 q 467 -285 467 -276 q 468 -297 468 -293 l 468 -301 l 442 -301 l 442 -256 q 443 -251 443 -254 q 440 -248 443 -249 q 438 -244 438 -247 q 440 -233 438 -237 q 442 -221 442 -228 l 468 -221 m 513 -221 l 538 -221 l 546 -237 q 549 -230 549 -235 q 553 -221 550 -225 l 579 -221 q 572 -242 576 -233 q 564 -258 568 -250 q 558 -276 560 -267 q 558 -301 556 -286 l 532 -301 q 531 -267 532 -276 q 526 -252 529 -257 q 520 -242 524 -247 q 513 -221 517 -237 m 610 -286 l 610 -301 l 585 -301 l 585 -250 q 581 -247 585 -247 q 576 -247 578 -247 q 581 -234 579 -240 q 585 -221 582 -228 l 597 -221 q 628 -227 613 -221 q 643 -253 643 -233 q 628 -283 643 -268 l 626 -283 q 619 -285 621 -283 q 610 -286 617 -287 m 610 -260 l 613 -261 q 618 -254 618 -261 q 613 -247 618 -247 l 610 -247 l 610 -260 m 811 -304 l 811 -301 q 782 -289 792 -301 q 772 -257 772 -276 q 785 -232 772 -242 q 814 -222 799 -222 q 844 -233 832 -222 q 856 -262 856 -244 q 841 -292 856 -278 q 811 -304 826 -307 m 822 -247 q 819 -247 819 -247 q 815 -246 818 -246 q 799 -262 799 -246 q 804 -276 799 -268 q 808 -277 807 -276 q 813 -278 810 -278 q 829 -260 826 -278 q 826 -253 828 -257 q 822 -247 824 -250 m 889 -221 q 895 -235 890 -229 q 903 -247 900 -240 q 905 -237 906 -244 q 904 -225 904 -229 l 904 -221 l 931 -221 l 931 -301 l 907 -301 q 899 -285 903 -293 q 886 -271 894 -276 l 886 -301 l 864 -301 l 864 -250 q 861 -247 864 -247 q 856 -247 858 -247 q 860 -234 858 -240 q 864 -221 861 -228 l 889 -221 m 1194 -304 l 1194 -301 q 1168 -290 1179 -301 q 1157 -262 1157 -278 q 1167 -233 1157 -244 q 1197 -222 1178 -222 q 1226 -233 1213 -222 q 1239 -260 1239 -243 q 1226 -292 1239 -278 q 1194 -304 1213 -306 m 1194 -278 q 1213 -268 1207 -278 l 1213 -264 q 1208 -250 1214 -254 q 1194 -247 1203 -246 l 1189 -247 q 1183 -261 1183 -253 q 1194 -278 1183 -274 m 1246 -221 l 1272 -221 q 1277 -230 1275 -225 q 1285 -237 1279 -235 q 1292 -230 1289 -235 q 1297 -221 1294 -225 l 1324 -221 l 1324 -301 l 1297 -301 l 1297 -265 q 1296 -264 1297 -264 q 1291 -269 1293 -264 q 1288 -276 1289 -274 l 1286 -276 q 1278 -270 1279 -276 q 1272 -262 1278 -264 l 1272 -301 l 1246 -301 l 1246 -251 q 1243 -248 1246 -249 q 1240 -244 1240 -247 q 1243 -233 1240 -239 q 1246 -221 1246 -228 m 421 -304 q 410 -289 410 -299 q 424 -276 410 -276 q 436 -289 436 -276 q 421 -304 436 -304 m 1071 -304 l 1068 -304 q 1060 -298 1063 -304 q 1057 -289 1057 -292 q 1071 -275 1057 -275 q 1078 -279 1076 -275 q 1083 -286 1081 -283 l 1083 -290 q 1078 -299 1083 -297 q 1071 -304 1074 -301 z "},"4":{"ha":1415,"x_min":-4,"x_max":1372,"o":"m 1372 604 q 1372 589 1372 600 q 1369 566 1371 578 q 1367 543 1368 554 q 1365 526 1365 532 q 1358 493 1363 510 q 1350 460 1354 476 q 1256 252 1319 346 q 1104 91 1192 158 q 910 -14 1017 24 q 685 -51 803 -51 q 410 5 538 -51 q 191 158 283 61 q 47 383 99 254 q 0 658 -4 513 q 3 664 3 660 q 29 831 6 751 q 99 985 53 910 q 138 1043 114 1011 q 190 1106 161 1075 q 248 1162 218 1136 q 306 1201 278 1188 l 307 1207 l 313 1207 l 315 1211 q 324 1215 319 1214 q 333 1219 329 1217 q 349 1230 342 1225 q 364 1240 357 1235 q 405 1260 383 1251 q 447 1276 426 1268 q 563 1309 504 1299 q 683 1319 622 1319 q 942 1270 817 1319 q 1164 1126 1068 1221 q 1225 1059 1196 1094 q 1278 983 1254 1024 q 1290 957 1285 971 q 1303 931 1296 943 q 1312 915 1307 922 q 1319 900 1317 908 q 1337 855 1331 878 q 1350 808 1343 832 q 1368 708 1364 754 q 1372 604 1372 661 m 1047 940 q 949 937 999 936 q 851 938 900 938 l 814 938 q 784 837 797 888 q 754 736 771 786 q 771 735 763 735 q 788 736 779 736 q 807 733 800 736 l 807 283 l 1008 283 l 1008 504 l 1161 504 q 1187 595 1172 550 q 1213 688 1201 640 l 1008 688 q 1009 702 1010 694 q 1008 717 1008 710 q 1008 726 1008 721 q 1011 733 1008 731 l 1182 733 q 1212 843 1194 789 q 1243 953 1229 897 l 1051 953 q 1047 940 1044 950 m 186 931 q 158 833 174 882 q 132 736 143 785 q 149 735 140 735 q 165 736 157 736 q 174 736 169 736 q 183 733 179 736 l 183 283 l 385 283 l 385 457 q 385 487 385 472 q 388 517 385 501 q 426 516 407 515 q 465 517 446 517 q 488 517 476 517 q 513 514 500 517 l 513 286 q 551 283 532 283 q 590 283 571 283 q 651 284 621 283 q 714 283 682 285 l 714 938 q 651 938 682 936 q 590 939 621 939 q 513 935 550 939 l 513 724 l 385 724 q 385 789 385 756 q 386 854 386 822 q 382 938 386 896 l 192 938 q 188 935 189 938 q 186 931 188 932 m 781 -87 q 777 -99 778 -93 q 772 -110 776 -104 q 764 -108 768 -110 q 754 -107 760 -107 q 750 -108 751 -107 q 763 -117 754 -115 q 778 -124 771 -118 q 782 -139 782 -131 q 778 -157 782 -149 q 749 -167 767 -167 q 724 -162 736 -167 l 724 -160 q 726 -148 724 -153 q 729 -136 728 -143 q 740 -140 735 -137 q 750 -142 744 -142 l 754 -142 q 747 -133 754 -135 q 735 -131 740 -132 q 726 -120 731 -124 q 721 -108 721 -117 q 735 -89 721 -94 q 760 -83 749 -83 q 781 -87 769 -83 m 256 -85 l 307 -85 l 307 -86 q 305 -98 308 -93 q 303 -110 301 -103 q 294 -110 299 -111 q 286 -110 290 -110 q 279 -112 281 -110 q 290 -116 282 -117 q 301 -115 297 -115 l 306 -115 q 301 -126 304 -122 q 300 -139 299 -131 l 279 -139 l 279 -167 l 265 -167 q 253 -164 256 -167 l 254 -114 q 249 -110 254 -112 q 252 -97 251 -103 q 256 -85 253 -92 m 342 -85 q 341 -101 342 -93 q 340 -118 340 -110 q 346 -142 340 -132 l 350 -142 q 357 -133 357 -142 q 357 -119 357 -125 l 357 -85 l 371 -85 q 382 -87 379 -85 l 383 -112 q 378 -149 383 -131 q 350 -167 374 -167 q 321 -154 335 -167 q 318 -134 318 -143 q 318 -114 318 -125 q 315 -110 318 -111 q 310 -110 313 -110 q 314 -97 313 -103 q 318 -85 315 -92 l 342 -85 m 418 -87 q 417 -113 418 -100 q 418 -139 417 -126 q 424 -142 419 -142 q 432 -142 429 -142 l 435 -142 q 431 -154 432 -149 q 426 -167 429 -160 l 393 -167 l 393 -114 q 390 -111 393 -111 q 385 -110 388 -111 q 389 -98 388 -104 q 393 -85 390 -92 l 407 -85 q 418 -87 415 -85 m 465 -85 q 465 -112 465 -99 q 465 -139 464 -125 q 470 -142 465 -142 q 478 -142 475 -142 l 481 -142 l 481 -144 q 478 -156 482 -151 q 475 -167 475 -160 q 465 -167 469 -167 q 454 -168 460 -168 q 439 -164 444 -168 l 440 -115 q 435 -110 440 -110 q 438 -97 438 -103 q 442 -85 439 -92 l 465 -85 m 510 -85 l 535 -85 q 541 -101 538 -93 q 546 -118 544 -108 q 554 -102 553 -112 q 558 -85 556 -92 l 585 -85 q 573 -126 581 -106 q 558 -167 565 -147 l 538 -167 q 523 -126 531 -147 q 510 -85 515 -106 m 589 -85 l 643 -85 q 638 -97 640 -92 q 636 -110 636 -103 q 629 -110 633 -111 q 622 -110 625 -110 q 615 -112 617 -110 q 626 -116 618 -117 q 638 -115 633 -115 l 642 -115 q 639 -126 640 -121 q 636 -136 638 -131 l 615 -136 q 626 -139 618 -140 q 638 -139 633 -137 l 642 -139 l 642 -140 q 639 -153 642 -147 q 633 -167 636 -160 l 589 -167 l 589 -112 q 586 -110 589 -110 q 582 -110 583 -111 q 586 -98 585 -104 q 589 -85 588 -92 m 714 -117 q 712 -131 714 -124 q 703 -142 710 -137 q 708 -153 703 -149 q 714 -165 714 -157 l 714 -167 q 703 -168 710 -168 q 687 -165 694 -168 q 679 -151 679 -162 q 676 -156 676 -153 q 676 -161 676 -158 q 675 -167 676 -167 l 651 -167 l 651 -114 q 649 -111 651 -111 q 646 -108 646 -111 q 649 -97 646 -101 q 654 -85 651 -92 l 665 -85 q 699 -88 685 -83 q 714 -117 714 -93 m 678 -124 l 681 -124 q 688 -115 689 -124 l 688 -112 q 683 -111 685 -112 q 679 -110 682 -110 l 678 -110 l 678 -124 m 814 -85 l 814 -167 l 790 -167 l 792 -114 q 789 -110 792 -111 q 783 -110 786 -110 q 788 -97 786 -103 q 790 -85 789 -92 l 814 -85 m 853 -87 q 864 -85 856 -85 q 878 -88 871 -85 q 892 -94 885 -92 q 904 -124 899 -106 q 892 -153 901 -139 q 865 -167 883 -167 q 834 -153 846 -167 q 822 -121 822 -140 q 832 -99 822 -108 q 853 -87 842 -89 m 874 -112 q 863 -110 868 -110 q 852 -113 857 -110 q 847 -124 847 -117 q 867 -142 847 -142 l 868 -142 q 878 -125 878 -135 q 874 -112 878 -119 m 936 -85 q 944 -97 940 -92 q 951 -110 949 -103 q 954 -102 954 -108 q 954 -92 954 -96 q 957 -85 954 -86 l 979 -85 l 979 -167 l 958 -167 q 948 -151 953 -160 q 939 -133 943 -142 q 935 -147 935 -137 q 936 -162 936 -156 l 936 -167 l 913 -167 l 913 -114 q 910 -111 913 -111 q 904 -110 907 -111 q 908 -97 907 -103 q 913 -85 910 -92 l 936 -85 m 1044 -87 q 1056 -83 1049 -83 q 1069 -87 1063 -83 q 1083 -94 1076 -92 q 1092 -110 1088 -101 q 1096 -126 1096 -118 q 1084 -155 1096 -144 q 1056 -165 1072 -165 q 1025 -154 1036 -165 q 1014 -124 1014 -143 q 1024 -100 1014 -111 q 1044 -87 1033 -89 m 1056 -142 q 1071 -125 1071 -142 q 1065 -114 1071 -118 q 1054 -110 1060 -110 q 1050 -112 1049 -110 q 1039 -126 1039 -114 q 1056 -142 1039 -142 m 1126 -85 q 1136 -97 1132 -92 q 1143 -110 1140 -103 q 1145 -102 1146 -108 q 1144 -92 1144 -96 q 1147 -85 1144 -87 l 1171 -85 l 1171 -167 l 1150 -167 q 1141 -151 1147 -158 q 1132 -136 1135 -144 q 1129 -147 1128 -139 q 1131 -160 1131 -156 l 1129 -164 q 1118 -167 1126 -167 l 1104 -167 l 1104 -114 q 1101 -111 1104 -111 q 1099 -107 1099 -111 q 1101 -96 1099 -100 q 1104 -85 1104 -92 l 1126 -85 m 706 -219 q 703 -233 704 -226 q 699 -247 701 -240 l 678 -247 q 688 -250 681 -251 q 699 -250 696 -249 l 703 -250 q 703 -252 703 -251 q 704 -254 704 -253 q 702 -262 704 -258 q 700 -271 700 -267 q 693 -272 697 -272 q 685 -271 689 -271 q 678 -274 679 -271 q 689 -276 681 -276 q 701 -275 697 -275 l 706 -276 q 702 -289 703 -283 q 699 -301 701 -294 l 651 -301 l 651 -251 q 649 -248 651 -249 q 646 -244 646 -247 q 649 -233 646 -242 q 654 -221 653 -224 l 663 -222 q 681 -220 672 -222 q 700 -218 690 -218 l 706 -219 m 768 -219 q 760 -247 765 -235 l 739 -247 q 748 -253 739 -254 q 761 -251 757 -251 q 763 -252 763 -251 q 765 -253 764 -253 q 757 -276 764 -264 l 739 -276 l 739 -301 l 714 -301 q 713 -283 711 -292 q 714 -262 714 -274 q 711 -250 714 -256 q 708 -242 708 -244 q 713 -233 713 -239 q 717 -221 713 -226 l 725 -222 q 743 -220 735 -222 q 761 -218 751 -218 l 768 -219 m 993 -219 q 989 -237 990 -226 q 975 -247 988 -249 l 975 -301 l 949 -301 l 949 -250 q 944 -247 949 -246 q 938 -247 940 -247 l 936 -247 q 938 -234 936 -240 q 940 -221 940 -228 l 949 -222 q 967 -220 958 -222 q 986 -218 976 -218 l 993 -219 m 1024 -304 l 1015 -304 l 1015 -301 q 1003 -300 1010 -301 q 996 -292 996 -299 q 997 -276 1000 -285 q 1003 -274 1003 -274 q 1013 -276 1008 -274 q 1024 -279 1018 -279 l 1026 -278 q 1021 -272 1026 -274 q 1009 -267 1015 -269 q 998 -260 1003 -264 q 993 -244 993 -256 q 1006 -225 993 -231 q 1029 -219 1018 -219 q 1050 -224 1039 -219 l 1050 -228 q 1048 -235 1050 -233 q 1047 -244 1046 -237 q 1043 -247 1044 -247 q 1035 -246 1039 -247 q 1028 -244 1032 -244 q 1021 -247 1022 -244 q 1043 -256 1032 -250 q 1054 -276 1054 -262 q 1044 -295 1054 -286 q 1024 -304 1033 -304 m 1129 -304 l 1122 -304 l 1122 -301 q 1094 -288 1104 -300 q 1085 -260 1085 -276 q 1098 -231 1085 -242 q 1128 -221 1111 -221 q 1153 -229 1142 -221 q 1147 -241 1150 -236 q 1143 -253 1144 -246 q 1126 -247 1138 -247 q 1118 -249 1122 -247 q 1111 -256 1114 -250 l 1111 -268 q 1116 -274 1111 -272 q 1124 -275 1121 -275 q 1133 -274 1129 -275 q 1143 -272 1138 -272 q 1144 -274 1144 -272 q 1148 -283 1146 -279 q 1153 -292 1150 -286 q 1142 -299 1150 -299 q 1129 -304 1135 -300 m 111 -221 l 138 -221 q 140 -235 139 -228 q 142 -250 142 -243 q 147 -236 144 -243 q 150 -221 150 -229 l 171 -221 q 174 -235 174 -228 q 178 -250 175 -243 q 183 -236 183 -244 q 186 -221 182 -228 l 238 -221 l 238 -225 q 240 -236 238 -232 q 240 -247 242 -240 q 248 -236 247 -244 q 251 -221 249 -228 l 271 -221 q 274 -236 271 -229 q 276 -250 278 -243 q 282 -236 282 -244 q 285 -221 282 -228 l 336 -221 q 339 -235 339 -228 q 342 -250 339 -243 q 347 -236 344 -243 q 349 -221 349 -229 l 369 -221 q 374 -235 372 -228 q 378 -250 375 -243 q 382 -236 382 -244 q 385 -221 382 -228 l 408 -221 q 401 -262 407 -242 q 393 -301 396 -282 l 367 -301 l 367 -299 q 365 -286 368 -292 q 363 -274 361 -281 q 356 -287 357 -279 q 354 -301 354 -294 l 328 -301 q 320 -266 324 -283 q 310 -232 317 -249 q 294 -301 299 -268 l 269 -301 q 265 -288 267 -294 q 261 -276 264 -282 q 256 -288 256 -281 q 253 -301 257 -296 l 228 -301 q 220 -265 225 -282 q 213 -229 215 -249 q 202 -265 204 -246 q 194 -301 200 -283 l 168 -301 l 168 -299 q 165 -286 169 -292 q 163 -274 161 -281 q 157 -287 158 -279 q 156 -301 156 -294 l 129 -301 q 120 -262 126 -282 q 111 -221 114 -242 m 468 -221 l 468 -247 l 481 -247 q 483 -237 485 -244 q 483 -225 482 -229 l 483 -221 q 491 -222 488 -222 q 499 -221 494 -221 q 504 -221 501 -221 q 510 -224 507 -221 l 510 -301 l 483 -301 l 483 -274 l 471 -274 q 467 -285 467 -276 q 468 -297 468 -293 l 468 -301 l 442 -301 l 442 -256 q 443 -251 443 -254 q 440 -248 443 -249 q 438 -244 438 -247 q 440 -233 438 -237 q 442 -221 442 -228 l 468 -221 m 513 -221 l 538 -221 l 546 -237 q 549 -230 549 -235 q 553 -221 550 -225 l 579 -221 q 572 -242 576 -233 q 564 -258 568 -250 q 558 -276 560 -267 q 558 -301 556 -286 l 532 -301 q 531 -267 532 -276 q 526 -252 529 -257 q 520 -242 524 -247 q 513 -221 517 -237 m 610 -286 l 610 -301 l 585 -301 l 585 -250 q 581 -247 585 -247 q 576 -247 578 -247 q 581 -234 579 -240 q 585 -221 582 -228 l 597 -221 q 628 -227 613 -221 q 643 -253 643 -233 q 628 -283 643 -268 l 626 -283 q 619 -285 621 -283 q 610 -286 617 -287 m 610 -260 l 613 -261 q 618 -254 618 -261 q 613 -247 618 -247 l 610 -247 l 610 -260 m 811 -304 l 811 -301 q 782 -289 792 -301 q 772 -257 772 -276 q 785 -232 772 -242 q 814 -222 799 -222 q 844 -233 832 -222 q 856 -262 856 -244 q 841 -292 856 -278 q 811 -304 826 -307 m 822 -247 q 819 -247 819 -247 q 815 -246 818 -246 q 799 -262 799 -246 q 804 -276 799 -268 q 808 -277 807 -276 q 813 -278 810 -278 q 829 -260 826 -278 q 826 -253 828 -257 q 822 -247 824 -250 m 889 -221 q 895 -235 890 -229 q 903 -247 900 -240 q 905 -237 906 -244 q 904 -225 904 -229 l 904 -221 l 931 -221 l 931 -301 l 907 -301 q 899 -285 903 -293 q 886 -271 894 -276 l 886 -301 l 864 -301 l 864 -250 q 861 -247 864 -247 q 856 -247 858 -247 q 860 -234 858 -240 q 864 -221 861 -228 l 889 -221 m 1194 -304 l 1194 -301 q 1168 -290 1179 -301 q 1157 -262 1157 -278 q 1167 -233 1157 -244 q 1197 -222 1178 -222 q 1226 -233 1213 -222 q 1239 -260 1239 -243 q 1226 -292 1239 -278 q 1194 -304 1213 -306 m 1194 -278 q 1213 -268 1207 -278 l 1213 -264 q 1208 -250 1214 -254 q 1194 -247 1203 -246 l 1189 -247 q 1183 -261 1183 -253 q 1194 -278 1183 -274 m 1246 -221 l 1272 -221 q 1277 -230 1275 -225 q 1285 -237 1279 -235 q 1292 -230 1289 -235 q 1297 -221 1294 -225 l 1324 -221 l 1324 -301 l 1297 -301 l 1297 -265 q 1296 -264 1297 -264 q 1291 -269 1293 -264 q 1288 -276 1289 -274 l 1286 -276 q 1278 -270 1279 -276 q 1272 -262 1278 -264 l 1272 -301 l 1246 -301 l 1246 -251 q 1243 -248 1246 -249 q 1240 -244 1240 -247 q 1243 -233 1240 -239 q 1246 -221 1246 -228 m 421 -304 q 410 -289 410 -299 q 424 -276 410 -276 q 436 -289 436 -276 q 421 -304 436 -304 m 1071 -304 l 1068 -304 q 1060 -298 1063 -304 q 1057 -289 1057 -292 q 1071 -275 1057 -275 q 1078 -279 1076 -275 q 1083 -286 1081 -283 l 1083 -290 q 1078 -299 1083 -297 q 1071 -304 1074 -301 z "},"5":{"ha":1415,"x_min":-4,"x_max":1372,"o":"m 1372 604 q 1372 589 1372 600 q 1369 566 1371 578 q 1367 543 1368 554 q 1365 526 1365 532 q 1358 493 1363 510 q 1350 460 1354 476 q 1256 252 1319 346 q 1104 91 1192 158 q 910 -14 1017 24 q 685 -51 803 -51 q 410 5 538 -51 q 191 158 283 61 q 47 383 99 254 q 0 658 -4 513 q 3 664 3 660 q 29 831 6 751 q 99 985 53 910 q 138 1043 114 1011 q 190 1106 161 1075 q 248 1162 218 1136 q 306 1201 278 1188 l 307 1207 l 313 1207 l 315 1211 q 324 1215 319 1214 q 333 1219 329 1217 q 349 1230 342 1225 q 364 1240 357 1235 q 405 1260 383 1251 q 447 1276 426 1268 q 563 1309 504 1299 q 683 1319 622 1319 q 942 1270 817 1319 q 1164 1126 1068 1221 q 1225 1059 1196 1094 q 1278 983 1254 1024 q 1290 957 1285 971 q 1303 931 1296 943 q 1312 915 1307 922 q 1319 900 1317 908 q 1337 855 1331 878 q 1350 808 1343 832 q 1368 708 1364 754 q 1372 604 1372 661 m 1047 940 q 949 937 999 936 q 851 938 900 938 l 814 938 q 784 837 797 888 q 754 736 771 786 q 771 735 763 735 q 788 736 779 736 q 807 733 800 736 l 807 283 l 1008 283 l 1008 504 l 1161 504 q 1187 595 1172 550 q 1213 688 1201 640 l 1008 688 q 1009 702 1010 694 q 1008 717 1008 710 q 1008 726 1008 721 q 1011 733 1008 731 l 1182 733 q 1212 843 1194 789 q 1243 953 1229 897 l 1051 953 q 1047 940 1044 950 m 186 931 q 158 833 174 882 q 132 736 143 785 q 149 735 140 735 q 165 736 157 736 q 174 736 169 736 q 183 733 179 736 l 183 283 l 385 283 l 385 457 q 385 487 385 472 q 388 517 385 501 q 426 516 407 515 q 465 517 446 517 q 488 517 476 517 q 513 514 500 517 l 513 286 q 551 283 532 283 q 590 283 571 283 q 651 284 621 283 q 714 283 682 285 l 714 938 q 651 938 682 936 q 590 939 621 939 q 513 935 550 939 l 513 724 l 385 724 q 385 789 385 756 q 386 854 386 822 q 382 938 386 896 l 192 938 q 188 935 189 938 q 186 931 188 932 m 781 -87 q 777 -99 778 -93 q 772 -110 776 -104 q 764 -108 768 -110 q 754 -107 760 -107 q 750 -108 751 -107 q 763 -117 754 -115 q 778 -124 771 -118 q 782 -139 782 -131 q 778 -157 782 -149 q 749 -167 767 -167 q 724 -162 736 -167 l 724 -160 q 726 -148 724 -153 q 729 -136 728 -143 q 740 -140 735 -137 q 750 -142 744 -142 l 754 -142 q 747 -133 754 -135 q 735 -131 740 -132 q 726 -120 731 -124 q 721 -108 721 -117 q 735 -89 721 -94 q 760 -83 749 -83 q 781 -87 769 -83 m 256 -85 l 307 -85 l 307 -86 q 305 -98 308 -93 q 303 -110 301 -103 q 294 -110 299 -111 q 286 -110 290 -110 q 279 -112 281 -110 q 290 -116 282 -117 q 301 -115 297 -115 l 306 -115 q 301 -126 304 -122 q 300 -139 299 -131 l 279 -139 l 279 -167 l 265 -167 q 253 -164 256 -167 l 254 -114 q 249 -110 254 -112 q 252 -97 251 -103 q 256 -85 253 -92 m 342 -85 q 341 -101 342 -93 q 340 -118 340 -110 q 346 -142 340 -132 l 350 -142 q 357 -133 357 -142 q 357 -119 357 -125 l 357 -85 l 371 -85 q 382 -87 379 -85 l 383 -112 q 378 -149 383 -131 q 350 -167 374 -167 q 321 -154 335 -167 q 318 -134 318 -143 q 318 -114 318 -125 q 315 -110 318 -111 q 310 -110 313 -110 q 314 -97 313 -103 q 318 -85 315 -92 l 342 -85 m 418 -87 q 417 -113 418 -100 q 418 -139 417 -126 q 424 -142 419 -142 q 432 -142 429 -142 l 435 -142 q 431 -154 432 -149 q 426 -167 429 -160 l 393 -167 l 393 -114 q 390 -111 393 -111 q 385 -110 388 -111 q 389 -98 388 -104 q 393 -85 390 -92 l 407 -85 q 418 -87 415 -85 m 465 -85 q 465 -112 465 -99 q 465 -139 464 -125 q 470 -142 465 -142 q 478 -142 475 -142 l 481 -142 l 481 -144 q 478 -156 482 -151 q 475 -167 475 -160 q 465 -167 469 -167 q 454 -168 460 -168 q 439 -164 444 -168 l 440 -115 q 435 -110 440 -110 q 438 -97 438 -103 q 442 -85 439 -92 l 465 -85 m 510 -85 l 535 -85 q 541 -101 538 -93 q 546 -118 544 -108 q 554 -102 553 -112 q 558 -85 556 -92 l 585 -85 q 573 -126 581 -106 q 558 -167 565 -147 l 538 -167 q 523 -126 531 -147 q 510 -85 515 -106 m 589 -85 l 643 -85 q 638 -97 640 -92 q 636 -110 636 -103 q 629 -110 633 -111 q 622 -110 625 -110 q 615 -112 617 -110 q 626 -116 618 -117 q 638 -115 633 -115 l 642 -115 q 639 -126 640 -121 q 636 -136 638 -131 l 615 -136 q 626 -139 618 -140 q 638 -139 633 -137 l 642 -139 l 642 -140 q 639 -153 642 -147 q 633 -167 636 -160 l 589 -167 l 589 -112 q 586 -110 589 -110 q 582 -110 583 -111 q 586 -98 585 -104 q 589 -85 588 -92 m 714 -117 q 712 -131 714 -124 q 703 -142 710 -137 q 708 -153 703 -149 q 714 -165 714 -157 l 714 -167 q 703 -168 710 -168 q 687 -165 694 -168 q 679 -151 679 -162 q 676 -156 676 -153 q 676 -161 676 -158 q 675 -167 676 -167 l 651 -167 l 651 -114 q 649 -111 651 -111 q 646 -108 646 -111 q 649 -97 646 -101 q 654 -85 651 -92 l 665 -85 q 699 -88 685 -83 q 714 -117 714 -93 m 678 -124 l 681 -124 q 688 -115 689 -124 l 688 -112 q 683 -111 685 -112 q 679 -110 682 -110 l 678 -110 l 678 -124 m 814 -85 l 814 -167 l 790 -167 l 792 -114 q 789 -110 792 -111 q 783 -110 786 -110 q 788 -97 786 -103 q 790 -85 789 -92 l 814 -85 m 853 -87 q 864 -85 856 -85 q 878 -88 871 -85 q 892 -94 885 -92 q 904 -124 899 -106 q 892 -153 901 -139 q 865 -167 883 -167 q 834 -153 846 -167 q 822 -121 822 -140 q 832 -99 822 -108 q 853 -87 842 -89 m 874 -112 q 863 -110 868 -110 q 852 -113 857 -110 q 847 -124 847 -117 q 867 -142 847 -142 l 868 -142 q 878 -125 878 -135 q 874 -112 878 -119 m 936 -85 q 944 -97 940 -92 q 951 -110 949 -103 q 954 -102 954 -108 q 954 -92 954 -96 q 957 -85 954 -86 l 979 -85 l 979 -167 l 958 -167 q 948 -151 953 -160 q 939 -133 943 -142 q 935 -147 935 -137 q 936 -162 936 -156 l 936 -167 l 913 -167 l 913 -114 q 910 -111 913 -111 q 904 -110 907 -111 q 908 -97 907 -103 q 913 -85 910 -92 l 936 -85 m 1044 -87 q 1056 -83 1049 -83 q 1069 -87 1063 -83 q 1083 -94 1076 -92 q 1092 -110 1088 -101 q 1096 -126 1096 -118 q 1084 -155 1096 -144 q 1056 -165 1072 -165 q 1025 -154 1036 -165 q 1014 -124 1014 -143 q 1024 -100 1014 -111 q 1044 -87 1033 -89 m 1056 -142 q 1071 -125 1071 -142 q 1065 -114 1071 -118 q 1054 -110 1060 -110 q 1050 -112 1049 -110 q 1039 -126 1039 -114 q 1056 -142 1039 -142 m 1126 -85 q 1136 -97 1132 -92 q 1143 -110 1140 -103 q 1145 -102 1146 -108 q 1144 -92 1144 -96 q 1147 -85 1144 -87 l 1171 -85 l 1171 -167 l 1150 -167 q 1141 -151 1147 -158 q 1132 -136 1135 -144 q 1129 -147 1128 -139 q 1131 -160 1131 -156 l 1129 -164 q 1118 -167 1126 -167 l 1104 -167 l 1104 -114 q 1101 -111 1104 -111 q 1099 -107 1099 -111 q 1101 -96 1099 -100 q 1104 -85 1104 -92 l 1126 -85 m 706 -219 q 703 -233 704 -226 q 699 -247 701 -240 l 678 -247 q 688 -250 681 -251 q 699 -250 696 -249 l 703 -250 q 703 -252 703 -251 q 704 -254 704 -253 q 702 -262 704 -258 q 700 -271 700 -267 q 693 -272 697 -272 q 685 -271 689 -271 q 678 -274 679 -271 q 689 -276 681 -276 q 701 -275 697 -275 l 706 -276 q 702 -289 703 -283 q 699 -301 701 -294 l 651 -301 l 651 -251 q 649 -248 651 -249 q 646 -244 646 -247 q 649 -233 646 -242 q 654 -221 653 -224 l 663 -222 q 681 -220 672 -222 q 700 -218 690 -218 l 706 -219 m 768 -219 q 760 -247 765 -235 l 739 -247 q 748 -253 739 -254 q 761 -251 757 -251 q 763 -252 763 -251 q 765 -253 764 -253 q 757 -276 764 -264 l 739 -276 l 739 -301 l 714 -301 q 713 -283 711 -292 q 714 -262 714 -274 q 711 -250 714 -256 q 708 -242 708 -244 q 713 -233 713 -239 q 717 -221 713 -226 l 725 -222 q 743 -220 735 -222 q 761 -218 751 -218 l 768 -219 m 993 -219 q 989 -237 990 -226 q 975 -247 988 -249 l 975 -301 l 949 -301 l 949 -250 q 944 -247 949 -246 q 938 -247 940 -247 l 936 -247 q 938 -234 936 -240 q 940 -221 940 -228 l 949 -222 q 967 -220 958 -222 q 986 -218 976 -218 l 993 -219 m 1024 -304 l 1015 -304 l 1015 -301 q 1003 -300 1010 -301 q 996 -292 996 -299 q 997 -276 1000 -285 q 1003 -274 1003 -274 q 1013 -276 1008 -274 q 1024 -279 1018 -279 l 1026 -278 q 1021 -272 1026 -274 q 1009 -267 1015 -269 q 998 -260 1003 -264 q 993 -244 993 -256 q 1006 -225 993 -231 q 1029 -219 1018 -219 q 1050 -224 1039 -219 l 1050 -228 q 1048 -235 1050 -233 q 1047 -244 1046 -237 q 1043 -247 1044 -247 q 1035 -246 1039 -247 q 1028 -244 1032 -244 q 1021 -247 1022 -244 q 1043 -256 1032 -250 q 1054 -276 1054 -262 q 1044 -295 1054 -286 q 1024 -304 1033 -304 m 1129 -304 l 1122 -304 l 1122 -301 q 1094 -288 1104 -300 q 1085 -260 1085 -276 q 1098 -231 1085 -242 q 1128 -221 1111 -221 q 1153 -229 1142 -221 q 1147 -241 1150 -236 q 1143 -253 1144 -246 q 1126 -247 1138 -247 q 1118 -249 1122 -247 q 1111 -256 1114 -250 l 1111 -268 q 1116 -274 1111 -272 q 1124 -275 1121 -275 q 1133 -274 1129 -275 q 1143 -272 1138 -272 q 1144 -274 1144 -272 q 1148 -283 1146 -279 q 1153 -292 1150 -286 q 1142 -299 1150 -299 q 1129 -304 1135 -300 m 111 -221 l 138 -221 q 140 -235 139 -228 q 142 -250 142 -243 q 147 -236 144 -243 q 150 -221 150 -229 l 171 -221 q 174 -235 174 -228 q 178 -250 175 -243 q 183 -236 183 -244 q 186 -221 182 -228 l 238 -221 l 238 -225 q 240 -236 238 -232 q 240 -247 242 -240 q 248 -236 247 -244 q 251 -221 249 -228 l 271 -221 q 274 -236 271 -229 q 276 -250 278 -243 q 282 -236 282 -244 q 285 -221 282 -228 l 336 -221 q 339 -235 339 -228 q 342 -250 339 -243 q 347 -236 344 -243 q 349 -221 349 -229 l 369 -221 q 374 -235 372 -228 q 378 -250 375 -243 q 382 -236 382 -244 q 385 -221 382 -228 l 408 -221 q 401 -262 407 -242 q 393 -301 396 -282 l 367 -301 l 367 -299 q 365 -286 368 -292 q 363 -274 361 -281 q 356 -287 357 -279 q 354 -301 354 -294 l 328 -301 q 320 -266 324 -283 q 310 -232 317 -249 q 294 -301 299 -268 l 269 -301 q 265 -288 267 -294 q 261 -276 264 -282 q 256 -288 256 -281 q 253 -301 257 -296 l 228 -301 q 220 -265 225 -282 q 213 -229 215 -249 q 202 -265 204 -246 q 194 -301 200 -283 l 168 -301 l 168 -299 q 165 -286 169 -292 q 163 -274 161 -281 q 157 -287 158 -279 q 156 -301 156 -294 l 129 -301 q 120 -262 126 -282 q 111 -221 114 -242 m 468 -221 l 468 -247 l 481 -247 q 483 -237 485 -244 q 483 -225 482 -229 l 483 -221 q 491 -222 488 -222 q 499 -221 494 -221 q 504 -221 501 -221 q 510 -224 507 -221 l 510 -301 l 483 -301 l 483 -274 l 471 -274 q 467 -285 467 -276 q 468 -297 468 -293 l 468 -301 l 442 -301 l 442 -256 q 443 -251 443 -254 q 440 -248 443 -249 q 438 -244 438 -247 q 440 -233 438 -237 q 442 -221 442 -228 l 468 -221 m 513 -221 l 538 -221 l 546 -237 q 549 -230 549 -235 q 553 -221 550 -225 l 579 -221 q 572 -242 576 -233 q 564 -258 568 -250 q 558 -276 560 -267 q 558 -301 556 -286 l 532 -301 q 531 -267 532 -276 q 526 -252 529 -257 q 520 -242 524 -247 q 513 -221 517 -237 m 610 -286 l 610 -301 l 585 -301 l 585 -250 q 581 -247 585 -247 q 576 -247 578 -247 q 581 -234 579 -240 q 585 -221 582 -228 l 597 -221 q 628 -227 613 -221 q 643 -253 643 -233 q 628 -283 643 -268 l 626 -283 q 619 -285 621 -283 q 610 -286 617 -287 m 610 -260 l 613 -261 q 618 -254 618 -261 q 613 -247 618 -247 l 610 -247 l 610 -260 m 811 -304 l 811 -301 q 782 -289 792 -301 q 772 -257 772 -276 q 785 -232 772 -242 q 814 -222 799 -222 q 844 -233 832 -222 q 856 -262 856 -244 q 841 -292 856 -278 q 811 -304 826 -307 m 822 -247 q 819 -247 819 -247 q 815 -246 818 -246 q 799 -262 799 -246 q 804 -276 799 -268 q 808 -277 807 -276 q 813 -278 810 -278 q 829 -260 826 -278 q 826 -253 828 -257 q 822 -247 824 -250 m 889 -221 q 895 -235 890 -229 q 903 -247 900 -240 q 905 -237 906 -244 q 904 -225 904 -229 l 904 -221 l 931 -221 l 931 -301 l 907 -301 q 899 -285 903 -293 q 886 -271 894 -276 l 886 -301 l 864 -301 l 864 -250 q 861 -247 864 -247 q 856 -247 858 -247 q 860 -234 858 -240 q 864 -221 861 -228 l 889 -221 m 1194 -304 l 1194 -301 q 1168 -290 1179 -301 q 1157 -262 1157 -278 q 1167 -233 1157 -244 q 1197 -222 1178 -222 q 1226 -233 1213 -222 q 1239 -260 1239 -243 q 1226 -292 1239 -278 q 1194 -304 1213 -306 m 1194 -278 q 1213 -268 1207 -278 l 1213 -264 q 1208 -250 1214 -254 q 1194 -247 1203 -246 l 1189 -247 q 1183 -261 1183 -253 q 1194 -278 1183 -274 m 1246 -221 l 1272 -221 q 1277 -230 1275 -225 q 1285 -237 1279 -235 q 1292 -230 1289 -235 q 1297 -221 1294 -225 l 1324 -221 l 1324 -301 l 1297 -301 l 1297 -265 q 1296 -264 1297 -264 q 1291 -269 1293 -264 q 1288 -276 1289 -274 l 1286 -276 q 1278 -270 1279 -276 q 1272 -262 1278 -264 l 1272 -301 l 1246 -301 l 1246 -251 q 1243 -248 1246 -249 q 1240 -244 1240 -247 q 1243 -233 1240 -239 q 1246 -221 1246 -228 m 421 -304 q 410 -289 410 -299 q 424 -276 410 -276 q 436 -289 436 -276 q 421 -304 436 -304 m 1071 -304 l 1068 -304 q 1060 -298 1063 -304 q 1057 -289 1057 -292 q 1071 -275 1057 -275 q 1078 -279 1076 -275 q 1083 -286 1081 -283 l 1083 -290 q 1078 -299 1083 -297 q 1071 -304 1074 -301 z "},"6":{"ha":1415,"x_min":-4,"x_max":1372,"o":"m 1372 604 q 1372 589 1372 600 q 1369 566 1371 578 q 1367 543 1368 554 q 1365 526 1365 532 q 1358 493 1363 510 q 1350 460 1354 476 q 1256 252 1319 346 q 1104 91 1192 158 q 910 -14 1017 24 q 685 -51 803 -51 q 410 5 538 -51 q 191 158 283 61 q 47 383 99 254 q 0 658 -4 513 q 3 664 3 660 q 29 831 6 751 q 99 985 53 910 q 138 1043 114 1011 q 190 1106 161 1075 q 248 1162 218 1136 q 306 1201 278 1188 l 307 1207 l 313 1207 l 315 1211 q 324 1215 319 1214 q 333 1219 329 1217 q 349 1230 342 1225 q 364 1240 357 1235 q 405 1260 383 1251 q 447 1276 426 1268 q 563 1309 504 1299 q 683 1319 622 1319 q 942 1270 817 1319 q 1164 1126 1068 1221 q 1225 1059 1196 1094 q 1278 983 1254 1024 q 1290 957 1285 971 q 1303 931 1296 943 q 1312 915 1307 922 q 1319 900 1317 908 q 1337 855 1331 878 q 1350 808 1343 832 q 1368 708 1364 754 q 1372 604 1372 661 m 1047 940 q 949 937 999 936 q 851 938 900 938 l 814 938 q 784 837 797 888 q 754 736 771 786 q 771 735 763 735 q 788 736 779 736 q 807 733 800 736 l 807 283 l 1008 283 l 1008 504 l 1161 504 q 1187 595 1172 550 q 1213 688 1201 640 l 1008 688 q 1009 702 1010 694 q 1008 717 1008 710 q 1008 726 1008 721 q 1011 733 1008 731 l 1182 733 q 1212 843 1194 789 q 1243 953 1229 897 l 1051 953 q 1047 940 1044 950 m 186 931 q 158 833 174 882 q 132 736 143 785 q 149 735 140 735 q 165 736 157 736 q 174 736 169 736 q 183 733 179 736 l 183 283 l 385 283 l 385 457 q 385 487 385 472 q 388 517 385 501 q 426 516 407 515 q 465 517 446 517 q 488 517 476 517 q 513 514 500 517 l 513 286 q 551 283 532 283 q 590 283 571 283 q 651 284 621 283 q 714 283 682 285 l 714 938 q 651 938 682 936 q 590 939 621 939 q 513 935 550 939 l 513 724 l 385 724 q 385 789 385 756 q 386 854 386 822 q 382 938 386 896 l 192 938 q 188 935 189 938 q 186 931 188 932 m 781 -87 q 777 -99 778 -93 q 772 -110 776 -104 q 764 -108 768 -110 q 754 -107 760 -107 q 750 -108 751 -107 q 763 -117 754 -115 q 778 -124 771 -118 q 782 -139 782 -131 q 778 -157 782 -149 q 749 -167 767 -167 q 724 -162 736 -167 l 724 -160 q 726 -148 724 -153 q 729 -136 728 -143 q 740 -140 735 -137 q 750 -142 744 -142 l 754 -142 q 747 -133 754 -135 q 735 -131 740 -132 q 726 -120 731 -124 q 721 -108 721 -117 q 735 -89 721 -94 q 760 -83 749 -83 q 781 -87 769 -83 m 256 -85 l 307 -85 l 307 -86 q 305 -98 308 -93 q 303 -110 301 -103 q 294 -110 299 -111 q 286 -110 290 -110 q 279 -112 281 -110 q 290 -116 282 -117 q 301 -115 297 -115 l 306 -115 q 301 -126 304 -122 q 300 -139 299 -131 l 279 -139 l 279 -167 l 265 -167 q 253 -164 256 -167 l 254 -114 q 249 -110 254 -112 q 252 -97 251 -103 q 256 -85 253 -92 m 342 -85 q 341 -101 342 -93 q 340 -118 340 -110 q 346 -142 340 -132 l 350 -142 q 357 -133 357 -142 q 357 -119 357 -125 l 357 -85 l 371 -85 q 382 -87 379 -85 l 383 -112 q 378 -149 383 -131 q 350 -167 374 -167 q 321 -154 335 -167 q 318 -134 318 -143 q 318 -114 318 -125 q 315 -110 318 -111 q 310 -110 313 -110 q 314 -97 313 -103 q 318 -85 315 -92 l 342 -85 m 418 -87 q 417 -113 418 -100 q 418 -139 417 -126 q 424 -142 419 -142 q 432 -142 429 -142 l 435 -142 q 431 -154 432 -149 q 426 -167 429 -160 l 393 -167 l 393 -114 q 390 -111 393 -111 q 385 -110 388 -111 q 389 -98 388 -104 q 393 -85 390 -92 l 407 -85 q 418 -87 415 -85 m 465 -85 q 465 -112 465 -99 q 465 -139 464 -125 q 470 -142 465 -142 q 478 -142 475 -142 l 481 -142 l 481 -144 q 478 -156 482 -151 q 475 -167 475 -160 q 465 -167 469 -167 q 454 -168 460 -168 q 439 -164 444 -168 l 440 -115 q 435 -110 440 -110 q 438 -97 438 -103 q 442 -85 439 -92 l 465 -85 m 510 -85 l 535 -85 q 541 -101 538 -93 q 546 -118 544 -108 q 554 -102 553 -112 q 558 -85 556 -92 l 585 -85 q 573 -126 581 -106 q 558 -167 565 -147 l 538 -167 q 523 -126 531 -147 q 510 -85 515 -106 m 589 -85 l 643 -85 q 638 -97 640 -92 q 636 -110 636 -103 q 629 -110 633 -111 q 622 -110 625 -110 q 615 -112 617 -110 q 626 -116 618 -117 q 638 -115 633 -115 l 642 -115 q 639 -126 640 -121 q 636 -136 638 -131 l 615 -136 q 626 -139 618 -140 q 638 -139 633 -137 l 642 -139 l 642 -140 q 639 -153 642 -147 q 633 -167 636 -160 l 589 -167 l 589 -112 q 586 -110 589 -110 q 582 -110 583 -111 q 586 -98 585 -104 q 589 -85 588 -92 m 714 -117 q 712 -131 714 -124 q 703 -142 710 -137 q 708 -153 703 -149 q 714 -165 714 -157 l 714 -167 q 703 -168 710 -168 q 687 -165 694 -168 q 679 -151 679 -162 q 676 -156 676 -153 q 676 -161 676 -158 q 675 -167 676 -167 l 651 -167 l 651 -114 q 649 -111 651 -111 q 646 -108 646 -111 q 649 -97 646 -101 q 654 -85 651 -92 l 665 -85 q 699 -88 685 -83 q 714 -117 714 -93 m 678 -124 l 681 -124 q 688 -115 689 -124 l 688 -112 q 683 -111 685 -112 q 679 -110 682 -110 l 678 -110 l 678 -124 m 814 -85 l 814 -167 l 790 -167 l 792 -114 q 789 -110 792 -111 q 783 -110 786 -110 q 788 -97 786 -103 q 790 -85 789 -92 l 814 -85 m 853 -87 q 864 -85 856 -85 q 878 -88 871 -85 q 892 -94 885 -92 q 904 -124 899 -106 q 892 -153 901 -139 q 865 -167 883 -167 q 834 -153 846 -167 q 822 -121 822 -140 q 832 -99 822 -108 q 853 -87 842 -89 m 874 -112 q 863 -110 868 -110 q 852 -113 857 -110 q 847 -124 847 -117 q 867 -142 847 -142 l 868 -142 q 878 -125 878 -135 q 874 -112 878 -119 m 936 -85 q 944 -97 940 -92 q 951 -110 949 -103 q 954 -102 954 -108 q 954 -92 954 -96 q 957 -85 954 -86 l 979 -85 l 979 -167 l 958 -167 q 948 -151 953 -160 q 939 -133 943 -142 q 935 -147 935 -137 q 936 -162 936 -156 l 936 -167 l 913 -167 l 913 -114 q 910 -111 913 -111 q 904 -110 907 -111 q 908 -97 907 -103 q 913 -85 910 -92 l 936 -85 m 1044 -87 q 1056 -83 1049 -83 q 1069 -87 1063 -83 q 1083 -94 1076 -92 q 1092 -110 1088 -101 q 1096 -126 1096 -118 q 1084 -155 1096 -144 q 1056 -165 1072 -165 q 1025 -154 1036 -165 q 1014 -124 1014 -143 q 1024 -100 1014 -111 q 1044 -87 1033 -89 m 1056 -142 q 1071 -125 1071 -142 q 1065 -114 1071 -118 q 1054 -110 1060 -110 q 1050 -112 1049 -110 q 1039 -126 1039 -114 q 1056 -142 1039 -142 m 1126 -85 q 1136 -97 1132 -92 q 1143 -110 1140 -103 q 1145 -102 1146 -108 q 1144 -92 1144 -96 q 1147 -85 1144 -87 l 1171 -85 l 1171 -167 l 1150 -167 q 1141 -151 1147 -158 q 1132 -136 1135 -144 q 1129 -147 1128 -139 q 1131 -160 1131 -156 l 1129 -164 q 1118 -167 1126 -167 l 1104 -167 l 1104 -114 q 1101 -111 1104 -111 q 1099 -107 1099 -111 q 1101 -96 1099 -100 q 1104 -85 1104 -92 l 1126 -85 m 706 -219 q 703 -233 704 -226 q 699 -247 701 -240 l 678 -247 q 688 -250 681 -251 q 699 -250 696 -249 l 703 -250 q 703 -252 703 -251 q 704 -254 704 -253 q 702 -262 704 -258 q 700 -271 700 -267 q 693 -272 697 -272 q 685 -271 689 -271 q 678 -274 679 -271 q 689 -276 681 -276 q 701 -275 697 -275 l 706 -276 q 702 -289 703 -283 q 699 -301 701 -294 l 651 -301 l 651 -251 q 649 -248 651 -249 q 646 -244 646 -247 q 649 -233 646 -242 q 654 -221 653 -224 l 663 -222 q 681 -220 672 -222 q 700 -218 690 -218 l 706 -219 m 768 -219 q 760 -247 765 -235 l 739 -247 q 748 -253 739 -254 q 761 -251 757 -251 q 763 -252 763 -251 q 765 -253 764 -253 q 757 -276 764 -264 l 739 -276 l 739 -301 l 714 -301 q 713 -283 711 -292 q 714 -262 714 -274 q 711 -250 714 -256 q 708 -242 708 -244 q 713 -233 713 -239 q 717 -221 713 -226 l 725 -222 q 743 -220 735 -222 q 761 -218 751 -218 l 768 -219 m 993 -219 q 989 -237 990 -226 q 975 -247 988 -249 l 975 -301 l 949 -301 l 949 -250 q 944 -247 949 -246 q 938 -247 940 -247 l 936 -247 q 938 -234 936 -240 q 940 -221 940 -228 l 949 -222 q 967 -220 958 -222 q 986 -218 976 -218 l 993 -219 m 1024 -304 l 1015 -304 l 1015 -301 q 1003 -300 1010 -301 q 996 -292 996 -299 q 997 -276 1000 -285 q 1003 -274 1003 -274 q 1013 -276 1008 -274 q 1024 -279 1018 -279 l 1026 -278 q 1021 -272 1026 -274 q 1009 -267 1015 -269 q 998 -260 1003 -264 q 993 -244 993 -256 q 1006 -225 993 -231 q 1029 -219 1018 -219 q 1050 -224 1039 -219 l 1050 -228 q 1048 -235 1050 -233 q 1047 -244 1046 -237 q 1043 -247 1044 -247 q 1035 -246 1039 -247 q 1028 -244 1032 -244 q 1021 -247 1022 -244 q 1043 -256 1032 -250 q 1054 -276 1054 -262 q 1044 -295 1054 -286 q 1024 -304 1033 -304 m 1129 -304 l 1122 -304 l 1122 -301 q 1094 -288 1104 -300 q 1085 -260 1085 -276 q 1098 -231 1085 -242 q 1128 -221 1111 -221 q 1153 -229 1142 -221 q 1147 -241 1150 -236 q 1143 -253 1144 -246 q 1126 -247 1138 -247 q 1118 -249 1122 -247 q 1111 -256 1114 -250 l 1111 -268 q 1116 -274 1111 -272 q 1124 -275 1121 -275 q 1133 -274 1129 -275 q 1143 -272 1138 -272 q 1144 -274 1144 -272 q 1148 -283 1146 -279 q 1153 -292 1150 -286 q 1142 -299 1150 -299 q 1129 -304 1135 -300 m 111 -221 l 138 -221 q 140 -235 139 -228 q 142 -250 142 -243 q 147 -236 144 -243 q 150 -221 150 -229 l 171 -221 q 174 -235 174 -228 q 178 -250 175 -243 q 183 -236 183 -244 q 186 -221 182 -228 l 238 -221 l 238 -225 q 240 -236 238 -232 q 240 -247 242 -240 q 248 -236 247 -244 q 251 -221 249 -228 l 271 -221 q 274 -236 271 -229 q 276 -250 278 -243 q 282 -236 282 -244 q 285 -221 282 -228 l 336 -221 q 339 -235 339 -228 q 342 -250 339 -243 q 347 -236 344 -243 q 349 -221 349 -229 l 369 -221 q 374 -235 372 -228 q 378 -250 375 -243 q 382 -236 382 -244 q 385 -221 382 -228 l 408 -221 q 401 -262 407 -242 q 393 -301 396 -282 l 367 -301 l 367 -299 q 365 -286 368 -292 q 363 -274 361 -281 q 356 -287 357 -279 q 354 -301 354 -294 l 328 -301 q 320 -266 324 -283 q 310 -232 317 -249 q 294 -301 299 -268 l 269 -301 q 265 -288 267 -294 q 261 -276 264 -282 q 256 -288 256 -281 q 253 -301 257 -296 l 228 -301 q 220 -265 225 -282 q 213 -229 215 -249 q 202 -265 204 -246 q 194 -301 200 -283 l 168 -301 l 168 -299 q 165 -286 169 -292 q 163 -274 161 -281 q 157 -287 158 -279 q 156 -301 156 -294 l 129 -301 q 120 -262 126 -282 q 111 -221 114 -242 m 468 -221 l 468 -247 l 481 -247 q 483 -237 485 -244 q 483 -225 482 -229 l 483 -221 q 491 -222 488 -222 q 499 -221 494 -221 q 504 -221 501 -221 q 510 -224 507 -221 l 510 -301 l 483 -301 l 483 -274 l 471 -274 q 467 -285 467 -276 q 468 -297 468 -293 l 468 -301 l 442 -301 l 442 -256 q 443 -251 443 -254 q 440 -248 443 -249 q 438 -244 438 -247 q 440 -233 438 -237 q 442 -221 442 -228 l 468 -221 m 513 -221 l 538 -221 l 546 -237 q 549 -230 549 -235 q 553 -221 550 -225 l 579 -221 q 572 -242 576 -233 q 564 -258 568 -250 q 558 -276 560 -267 q 558 -301 556 -286 l 532 -301 q 531 -267 532 -276 q 526 -252 529 -257 q 520 -242 524 -247 q 513 -221 517 -237 m 610 -286 l 610 -301 l 585 -301 l 585 -250 q 581 -247 585 -247 q 576 -247 578 -247 q 581 -234 579 -240 q 585 -221 582 -228 l 597 -221 q 628 -227 613 -221 q 643 -253 643 -233 q 628 -283 643 -268 l 626 -283 q 619 -285 621 -283 q 610 -286 617 -287 m 610 -260 l 613 -261 q 618 -254 618 -261 q 613 -247 618 -247 l 610 -247 l 610 -260 m 811 -304 l 811 -301 q 782 -289 792 -301 q 772 -257 772 -276 q 785 -232 772 -242 q 814 -222 799 -222 q 844 -233 832 -222 q 856 -262 856 -244 q 841 -292 856 -278 q 811 -304 826 -307 m 822 -247 q 819 -247 819 -247 q 815 -246 818 -246 q 799 -262 799 -246 q 804 -276 799 -268 q 808 -277 807 -276 q 813 -278 810 -278 q 829 -260 826 -278 q 826 -253 828 -257 q 822 -247 824 -250 m 889 -221 q 895 -235 890 -229 q 903 -247 900 -240 q 905 -237 906 -244 q 904 -225 904 -229 l 904 -221 l 931 -221 l 931 -301 l 907 -301 q 899 -285 903 -293 q 886 -271 894 -276 l 886 -301 l 864 -301 l 864 -250 q 861 -247 864 -247 q 856 -247 858 -247 q 860 -234 858 -240 q 864 -221 861 -228 l 889 -221 m 1194 -304 l 1194 -301 q 1168 -290 1179 -301 q 1157 -262 1157 -278 q 1167 -233 1157 -244 q 1197 -222 1178 -222 q 1226 -233 1213 -222 q 1239 -260 1239 -243 q 1226 -292 1239 -278 q 1194 -304 1213 -306 m 1194 -278 q 1213 -268 1207 -278 l 1213 -264 q 1208 -250 1214 -254 q 1194 -247 1203 -246 l 1189 -247 q 1183 -261 1183 -253 q 1194 -278 1183 -274 m 1246 -221 l 1272 -221 q 1277 -230 1275 -225 q 1285 -237 1279 -235 q 1292 -230 1289 -235 q 1297 -221 1294 -225 l 1324 -221 l 1324 -301 l 1297 -301 l 1297 -265 q 1296 -264 1297 -264 q 1291 -269 1293 -264 q 1288 -276 1289 -274 l 1286 -276 q 1278 -270 1279 -276 q 1272 -262 1278 -264 l 1272 -301 l 1246 -301 l 1246 -251 q 1243 -248 1246 -249 q 1240 -244 1240 -247 q 1243 -233 1240 -239 q 1246 -221 1246 -228 m 421 -304 q 410 -289 410 -299 q 424 -276 410 -276 q 436 -289 436 -276 q 421 -304 436 -304 m 1071 -304 l 1068 -304 q 1060 -298 1063 -304 q 1057 -289 1057 -292 q 1071 -275 1057 -275 q 1078 -279 1076 -275 q 1083 -286 1081 -283 l 1083 -290 q 1078 -299 1083 -297 q 1071 -304 1074 -301 z "},"7":{"ha":1415,"x_min":-4,"x_max":1372,"o":"m 1372 604 q 1372 589 1372 600 q 1369 566 1371 578 q 1367 543 1368 554 q 1365 526 1365 532 q 1358 493 1363 510 q 1350 460 1354 476 q 1256 252 1319 346 q 1104 91 1192 158 q 910 -14 1017 24 q 685 -51 803 -51 q 410 5 538 -51 q 191 158 283 61 q 47 383 99 254 q 0 658 -4 513 q 3 664 3 660 q 29 831 6 751 q 99 985 53 910 q 138 1043 114 1011 q 190 1106 161 1075 q 248 1162 218 1136 q 306 1201 278 1188 l 307 1207 l 313 1207 l 315 1211 q 324 1215 319 1214 q 333 1219 329 1217 q 349 1230 342 1225 q 364 1240 357 1235 q 405 1260 383 1251 q 447 1276 426 1268 q 563 1309 504 1299 q 683 1319 622 1319 q 942 1270 817 1319 q 1164 1126 1068 1221 q 1225 1059 1196 1094 q 1278 983 1254 1024 q 1290 957 1285 971 q 1303 931 1296 943 q 1312 915 1307 922 q 1319 900 1317 908 q 1337 855 1331 878 q 1350 808 1343 832 q 1368 708 1364 754 q 1372 604 1372 661 m 1047 940 q 949 937 999 936 q 851 938 900 938 l 814 938 q 784 837 797 888 q 754 736 771 786 q 771 735 763 735 q 788 736 779 736 q 807 733 800 736 l 807 283 l 1008 283 l 1008 504 l 1161 504 q 1187 595 1172 550 q 1213 688 1201 640 l 1008 688 q 1009 702 1010 694 q 1008 717 1008 710 q 1008 726 1008 721 q 1011 733 1008 731 l 1182 733 q 1212 843 1194 789 q 1243 953 1229 897 l 1051 953 q 1047 940 1044 950 m 186 931 q 158 833 174 882 q 132 736 143 785 q 149 735 140 735 q 165 736 157 736 q 174 736 169 736 q 183 733 179 736 l 183 283 l 385 283 l 385 457 q 385 487 385 472 q 388 517 385 501 q 426 516 407 515 q 465 517 446 517 q 488 517 476 517 q 513 514 500 517 l 513 286 q 551 283 532 283 q 590 283 571 283 q 651 284 621 283 q 714 283 682 285 l 714 938 q 651 938 682 936 q 590 939 621 939 q 513 935 550 939 l 513 724 l 385 724 q 385 789 385 756 q 386 854 386 822 q 382 938 386 896 l 192 938 q 188 935 189 938 q 186 931 188 932 m 781 -87 q 777 -99 778 -93 q 772 -110 776 -104 q 764 -108 768 -110 q 754 -107 760 -107 q 750 -108 751 -107 q 763 -117 754 -115 q 778 -124 771 -118 q 782 -139 782 -131 q 778 -157 782 -149 q 749 -167 767 -167 q 724 -162 736 -167 l 724 -160 q 726 -148 724 -153 q 729 -136 728 -143 q 740 -140 735 -137 q 750 -142 744 -142 l 754 -142 q 747 -133 754 -135 q 735 -131 740 -132 q 726 -120 731 -124 q 721 -108 721 -117 q 735 -89 721 -94 q 760 -83 749 -83 q 781 -87 769 -83 m 256 -85 l 307 -85 l 307 -86 q 305 -98 308 -93 q 303 -110 301 -103 q 294 -110 299 -111 q 286 -110 290 -110 q 279 -112 281 -110 q 290 -116 282 -117 q 301 -115 297 -115 l 306 -115 q 301 -126 304 -122 q 300 -139 299 -131 l 279 -139 l 279 -167 l 265 -167 q 253 -164 256 -167 l 254 -114 q 249 -110 254 -112 q 252 -97 251 -103 q 256 -85 253 -92 m 342 -85 q 341 -101 342 -93 q 340 -118 340 -110 q 346 -142 340 -132 l 350 -142 q 357 -133 357 -142 q 357 -119 357 -125 l 357 -85 l 371 -85 q 382 -87 379 -85 l 383 -112 q 378 -149 383 -131 q 350 -167 374 -167 q 321 -154 335 -167 q 318 -134 318 -143 q 318 -114 318 -125 q 315 -110 318 -111 q 310 -110 313 -110 q 314 -97 313 -103 q 318 -85 315 -92 l 342 -85 m 418 -87 q 417 -113 418 -100 q 418 -139 417 -126 q 424 -142 419 -142 q 432 -142 429 -142 l 435 -142 q 431 -154 432 -149 q 426 -167 429 -160 l 393 -167 l 393 -114 q 390 -111 393 -111 q 385 -110 388 -111 q 389 -98 388 -104 q 393 -85 390 -92 l 407 -85 q 418 -87 415 -85 m 465 -85 q 465 -112 465 -99 q 465 -139 464 -125 q 470 -142 465 -142 q 478 -142 475 -142 l 481 -142 l 481 -144 q 478 -156 482 -151 q 475 -167 475 -160 q 465 -167 469 -167 q 454 -168 460 -168 q 439 -164 444 -168 l 440 -115 q 435 -110 440 -110 q 438 -97 438 -103 q 442 -85 439 -92 l 465 -85 m 510 -85 l 535 -85 q 541 -101 538 -93 q 546 -118 544 -108 q 554 -102 553 -112 q 558 -85 556 -92 l 585 -85 q 573 -126 581 -106 q 558 -167 565 -147 l 538 -167 q 523 -126 531 -147 q 510 -85 515 -106 m 589 -85 l 643 -85 q 638 -97 640 -92 q 636 -110 636 -103 q 629 -110 633 -111 q 622 -110 625 -110 q 615 -112 617 -110 q 626 -116 618 -117 q 638 -115 633 -115 l 642 -115 q 639 -126 640 -121 q 636 -136 638 -131 l 615 -136 q 626 -139 618 -140 q 638 -139 633 -137 l 642 -139 l 642 -140 q 639 -153 642 -147 q 633 -167 636 -160 l 589 -167 l 589 -112 q 586 -110 589 -110 q 582 -110 583 -111 q 586 -98 585 -104 q 589 -85 588 -92 m 714 -117 q 712 -131 714 -124 q 703 -142 710 -137 q 708 -153 703 -149 q 714 -165 714 -157 l 714 -167 q 703 -168 710 -168 q 687 -165 694 -168 q 679 -151 679 -162 q 676 -156 676 -153 q 676 -161 676 -158 q 675 -167 676 -167 l 651 -167 l 651 -114 q 649 -111 651 -111 q 646 -108 646 -111 q 649 -97 646 -101 q 654 -85 651 -92 l 665 -85 q 699 -88 685 -83 q 714 -117 714 -93 m 678 -124 l 681 -124 q 688 -115 689 -124 l 688 -112 q 683 -111 685 -112 q 679 -110 682 -110 l 678 -110 l 678 -124 m 814 -85 l 814 -167 l 790 -167 l 792 -114 q 789 -110 792 -111 q 783 -110 786 -110 q 788 -97 786 -103 q 790 -85 789 -92 l 814 -85 m 853 -87 q 864 -85 856 -85 q 878 -88 871 -85 q 892 -94 885 -92 q 904 -124 899 -106 q 892 -153 901 -139 q 865 -167 883 -167 q 834 -153 846 -167 q 822 -121 822 -140 q 832 -99 822 -108 q 853 -87 842 -89 m 874 -112 q 863 -110 868 -110 q 852 -113 857 -110 q 847 -124 847 -117 q 867 -142 847 -142 l 868 -142 q 878 -125 878 -135 q 874 -112 878 -119 m 936 -85 q 944 -97 940 -92 q 951 -110 949 -103 q 954 -102 954 -108 q 954 -92 954 -96 q 957 -85 954 -86 l 979 -85 l 979 -167 l 958 -167 q 948 -151 953 -160 q 939 -133 943 -142 q 935 -147 935 -137 q 936 -162 936 -156 l 936 -167 l 913 -167 l 913 -114 q 910 -111 913 -111 q 904 -110 907 -111 q 908 -97 907 -103 q 913 -85 910 -92 l 936 -85 m 1044 -87 q 1056 -83 1049 -83 q 1069 -87 1063 -83 q 1083 -94 1076 -92 q 1092 -110 1088 -101 q 1096 -126 1096 -118 q 1084 -155 1096 -144 q 1056 -165 1072 -165 q 1025 -154 1036 -165 q 1014 -124 1014 -143 q 1024 -100 1014 -111 q 1044 -87 1033 -89 m 1056 -142 q 1071 -125 1071 -142 q 1065 -114 1071 -118 q 1054 -110 1060 -110 q 1050 -112 1049 -110 q 1039 -126 1039 -114 q 1056 -142 1039 -142 m 1126 -85 q 1136 -97 1132 -92 q 1143 -110 1140 -103 q 1145 -102 1146 -108 q 1144 -92 1144 -96 q 1147 -85 1144 -87 l 1171 -85 l 1171 -167 l 1150 -167 q 1141 -151 1147 -158 q 1132 -136 1135 -144 q 1129 -147 1128 -139 q 1131 -160 1131 -156 l 1129 -164 q 1118 -167 1126 -167 l 1104 -167 l 1104 -114 q 1101 -111 1104 -111 q 1099 -107 1099 -111 q 1101 -96 1099 -100 q 1104 -85 1104 -92 l 1126 -85 m 706 -219 q 703 -233 704 -226 q 699 -247 701 -240 l 678 -247 q 688 -250 681 -251 q 699 -250 696 -249 l 703 -250 q 703 -252 703 -251 q 704 -254 704 -253 q 702 -262 704 -258 q 700 -271 700 -267 q 693 -272 697 -272 q 685 -271 689 -271 q 678 -274 679 -271 q 689 -276 681 -276 q 701 -275 697 -275 l 706 -276 q 702 -289 703 -283 q 699 -301 701 -294 l 651 -301 l 651 -251 q 649 -248 651 -249 q 646 -244 646 -247 q 649 -233 646 -242 q 654 -221 653 -224 l 663 -222 q 681 -220 672 -222 q 700 -218 690 -218 l 706 -219 m 768 -219 q 760 -247 765 -235 l 739 -247 q 748 -253 739 -254 q 761 -251 757 -251 q 763 -252 763 -251 q 765 -253 764 -253 q 757 -276 764 -264 l 739 -276 l 739 -301 l 714 -301 q 713 -283 711 -292 q 714 -262 714 -274 q 711 -250 714 -256 q 708 -242 708 -244 q 713 -233 713 -239 q 717 -221 713 -226 l 725 -222 q 743 -220 735 -222 q 761 -218 751 -218 l 768 -219 m 993 -219 q 989 -237 990 -226 q 975 -247 988 -249 l 975 -301 l 949 -301 l 949 -250 q 944 -247 949 -246 q 938 -247 940 -247 l 936 -247 q 938 -234 936 -240 q 940 -221 940 -228 l 949 -222 q 967 -220 958 -222 q 986 -218 976 -218 l 993 -219 m 1024 -304 l 1015 -304 l 1015 -301 q 1003 -300 1010 -301 q 996 -292 996 -299 q 997 -276 1000 -285 q 1003 -274 1003 -274 q 1013 -276 1008 -274 q 1024 -279 1018 -279 l 1026 -278 q 1021 -272 1026 -274 q 1009 -267 1015 -269 q 998 -260 1003 -264 q 993 -244 993 -256 q 1006 -225 993 -231 q 1029 -219 1018 -219 q 1050 -224 1039 -219 l 1050 -228 q 1048 -235 1050 -233 q 1047 -244 1046 -237 q 1043 -247 1044 -247 q 1035 -246 1039 -247 q 1028 -244 1032 -244 q 1021 -247 1022 -244 q 1043 -256 1032 -250 q 1054 -276 1054 -262 q 1044 -295 1054 -286 q 1024 -304 1033 -304 m 1129 -304 l 1122 -304 l 1122 -301 q 1094 -288 1104 -300 q 1085 -260 1085 -276 q 1098 -231 1085 -242 q 1128 -221 1111 -221 q 1153 -229 1142 -221 q 1147 -241 1150 -236 q 1143 -253 1144 -246 q 1126 -247 1138 -247 q 1118 -249 1122 -247 q 1111 -256 1114 -250 l 1111 -268 q 1116 -274 1111 -272 q 1124 -275 1121 -275 q 1133 -274 1129 -275 q 1143 -272 1138 -272 q 1144 -274 1144 -272 q 1148 -283 1146 -279 q 1153 -292 1150 -286 q 1142 -299 1150 -299 q 1129 -304 1135 -300 m 111 -221 l 138 -221 q 140 -235 139 -228 q 142 -250 142 -243 q 147 -236 144 -243 q 150 -221 150 -229 l 171 -221 q 174 -235 174 -228 q 178 -250 175 -243 q 183 -236 183 -244 q 186 -221 182 -228 l 238 -221 l 238 -225 q 240 -236 238 -232 q 240 -247 242 -240 q 248 -236 247 -244 q 251 -221 249 -228 l 271 -221 q 274 -236 271 -229 q 276 -250 278 -243 q 282 -236 282 -244 q 285 -221 282 -228 l 336 -221 q 339 -235 339 -228 q 342 -250 339 -243 q 347 -236 344 -243 q 349 -221 349 -229 l 369 -221 q 374 -235 372 -228 q 378 -250 375 -243 q 382 -236 382 -244 q 385 -221 382 -228 l 408 -221 q 401 -262 407 -242 q 393 -301 396 -282 l 367 -301 l 367 -299 q 365 -286 368 -292 q 363 -274 361 -281 q 356 -287 357 -279 q 354 -301 354 -294 l 328 -301 q 320 -266 324 -283 q 310 -232 317 -249 q 294 -301 299 -268 l 269 -301 q 265 -288 267 -294 q 261 -276 264 -282 q 256 -288 256 -281 q 253 -301 257 -296 l 228 -301 q 220 -265 225 -282 q 213 -229 215 -249 q 202 -265 204 -246 q 194 -301 200 -283 l 168 -301 l 168 -299 q 165 -286 169 -292 q 163 -274 161 -281 q 157 -287 158 -279 q 156 -301 156 -294 l 129 -301 q 120 -262 126 -282 q 111 -221 114 -242 m 468 -221 l 468 -247 l 481 -247 q 483 -237 485 -244 q 483 -225 482 -229 l 483 -221 q 491 -222 488 -222 q 499 -221 494 -221 q 504 -221 501 -221 q 510 -224 507 -221 l 510 -301 l 483 -301 l 483 -274 l 471 -274 q 467 -285 467 -276 q 468 -297 468 -293 l 468 -301 l 442 -301 l 442 -256 q 443 -251 443 -254 q 440 -248 443 -249 q 438 -244 438 -247 q 440 -233 438 -237 q 442 -221 442 -228 l 468 -221 m 513 -221 l 538 -221 l 546 -237 q 549 -230 549 -235 q 553 -221 550 -225 l 579 -221 q 572 -242 576 -233 q 564 -258 568 -250 q 558 -276 560 -267 q 558 -301 556 -286 l 532 -301 q 531 -267 532 -276 q 526 -252 529 -257 q 520 -242 524 -247 q 513 -221 517 -237 m 610 -286 l 610 -301 l 585 -301 l 585 -250 q 581 -247 585 -247 q 576 -247 578 -247 q 581 -234 579 -240 q 585 -221 582 -228 l 597 -221 q 628 -227 613 -221 q 643 -253 643 -233 q 628 -283 643 -268 l 626 -283 q 619 -285 621 -283 q 610 -286 617 -287 m 610 -260 l 613 -261 q 618 -254 618 -261 q 613 -247 618 -247 l 610 -247 l 610 -260 m 811 -304 l 811 -301 q 782 -289 792 -301 q 772 -257 772 -276 q 785 -232 772 -242 q 814 -222 799 -222 q 844 -233 832 -222 q 856 -262 856 -244 q 841 -292 856 -278 q 811 -304 826 -307 m 822 -247 q 819 -247 819 -247 q 815 -246 818 -246 q 799 -262 799 -246 q 804 -276 799 -268 q 808 -277 807 -276 q 813 -278 810 -278 q 829 -260 826 -278 q 826 -253 828 -257 q 822 -247 824 -250 m 889 -221 q 895 -235 890 -229 q 903 -247 900 -240 q 905 -237 906 -244 q 904 -225 904 -229 l 904 -221 l 931 -221 l 931 -301 l 907 -301 q 899 -285 903 -293 q 886 -271 894 -276 l 886 -301 l 864 -301 l 864 -250 q 861 -247 864 -247 q 856 -247 858 -247 q 860 -234 858 -240 q 864 -221 861 -228 l 889 -221 m 1194 -304 l 1194 -301 q 1168 -290 1179 -301 q 1157 -262 1157 -278 q 1167 -233 1157 -244 q 1197 -222 1178 -222 q 1226 -233 1213 -222 q 1239 -260 1239 -243 q 1226 -292 1239 -278 q 1194 -304 1213 -306 m 1194 -278 q 1213 -268 1207 -278 l 1213 -264 q 1208 -250 1214 -254 q 1194 -247 1203 -246 l 1189 -247 q 1183 -261 1183 -253 q 1194 -278 1183 -274 m 1246 -221 l 1272 -221 q 1277 -230 1275 -225 q 1285 -237 1279 -235 q 1292 -230 1289 -235 q 1297 -221 1294 -225 l 1324 -221 l 1324 -301 l 1297 -301 l 1297 -265 q 1296 -264 1297 -264 q 1291 -269 1293 -264 q 1288 -276 1289 -274 l 1286 -276 q 1278 -270 1279 -276 q 1272 -262 1278 -264 l 1272 -301 l 1246 -301 l 1246 -251 q 1243 -248 1246 -249 q 1240 -244 1240 -247 q 1243 -233 1240 -239 q 1246 -221 1246 -228 m 421 -304 q 410 -289 410 -299 q 424 -276 410 -276 q 436 -289 436 -276 q 421 -304 436 -304 m 1071 -304 l 1068 -304 q 1060 -298 1063 -304 q 1057 -289 1057 -292 q 1071 -275 1057 -275 q 1078 -279 1076 -275 q 1083 -286 1081 -283 l 1083 -290 q 1078 -299 1083 -297 q 1071 -304 1074 -301 z "},"8":{"ha":1415,"x_min":-4,"x_max":1372,"o":"m 1372 604 q 1372 589 1372 600 q 1369 566 1371 578 q 1367 543 1368 554 q 1365 526 1365 532 q 1358 493 1363 510 q 1350 460 1354 476 q 1256 252 1319 346 q 1104 91 1192 158 q 910 -14 1017 24 q 685 -51 803 -51 q 410 5 538 -51 q 191 158 283 61 q 47 383 99 254 q 0 658 -4 513 q 3 664 3 660 q 29 831 6 751 q 99 985 53 910 q 138 1043 114 1011 q 190 1106 161 1075 q 248 1162 218 1136 q 306 1201 278 1188 l 307 1207 l 313 1207 l 315 1211 q 324 1215 319 1214 q 333 1219 329 1217 q 349 1230 342 1225 q 364 1240 357 1235 q 405 1260 383 1251 q 447 1276 426 1268 q 563 1309 504 1299 q 683 1319 622 1319 q 942 1270 817 1319 q 1164 1126 1068 1221 q 1225 1059 1196 1094 q 1278 983 1254 1024 q 1290 957 1285 971 q 1303 931 1296 943 q 1312 915 1307 922 q 1319 900 1317 908 q 1337 855 1331 878 q 1350 808 1343 832 q 1368 708 1364 754 q 1372 604 1372 661 m 1047 940 q 949 937 999 936 q 851 938 900 938 l 814 938 q 784 837 797 888 q 754 736 771 786 q 771 735 763 735 q 788 736 779 736 q 807 733 800 736 l 807 283 l 1008 283 l 1008 504 l 1161 504 q 1187 595 1172 550 q 1213 688 1201 640 l 1008 688 q 1009 702 1010 694 q 1008 717 1008 710 q 1008 726 1008 721 q 1011 733 1008 731 l 1182 733 q 1212 843 1194 789 q 1243 953 1229 897 l 1051 953 q 1047 940 1044 950 m 186 931 q 158 833 174 882 q 132 736 143 785 q 149 735 140 735 q 165 736 157 736 q 174 736 169 736 q 183 733 179 736 l 183 283 l 385 283 l 385 457 q 385 487 385 472 q 388 517 385 501 q 426 516 407 515 q 465 517 446 517 q 488 517 476 517 q 513 514 500 517 l 513 286 q 551 283 532 283 q 590 283 571 283 q 651 284 621 283 q 714 283 682 285 l 714 938 q 651 938 682 936 q 590 939 621 939 q 513 935 550 939 l 513 724 l 385 724 q 385 789 385 756 q 386 854 386 822 q 382 938 386 896 l 192 938 q 188 935 189 938 q 186 931 188 932 m 781 -87 q 777 -99 778 -93 q 772 -110 776 -104 q 764 -108 768 -110 q 754 -107 760 -107 q 750 -108 751 -107 q 763 -117 754 -115 q 778 -124 771 -118 q 782 -139 782 -131 q 778 -157 782 -149 q 749 -167 767 -167 q 724 -162 736 -167 l 724 -160 q 726 -148 724 -153 q 729 -136 728 -143 q 740 -140 735 -137 q 750 -142 744 -142 l 754 -142 q 747 -133 754 -135 q 735 -131 740 -132 q 726 -120 731 -124 q 721 -108 721 -117 q 735 -89 721 -94 q 760 -83 749 -83 q 781 -87 769 -83 m 256 -85 l 307 -85 l 307 -86 q 305 -98 308 -93 q 303 -110 301 -103 q 294 -110 299 -111 q 286 -110 290 -110 q 279 -112 281 -110 q 290 -116 282 -117 q 301 -115 297 -115 l 306 -115 q 301 -126 304 -122 q 300 -139 299 -131 l 279 -139 l 279 -167 l 265 -167 q 253 -164 256 -167 l 254 -114 q 249 -110 254 -112 q 252 -97 251 -103 q 256 -85 253 -92 m 342 -85 q 341 -101 342 -93 q 340 -118 340 -110 q 346 -142 340 -132 l 350 -142 q 357 -133 357 -142 q 357 -119 357 -125 l 357 -85 l 371 -85 q 382 -87 379 -85 l 383 -112 q 378 -149 383 -131 q 350 -167 374 -167 q 321 -154 335 -167 q 318 -134 318 -143 q 318 -114 318 -125 q 315 -110 318 -111 q 310 -110 313 -110 q 314 -97 313 -103 q 318 -85 315 -92 l 342 -85 m 418 -87 q 417 -113 418 -100 q 418 -139 417 -126 q 424 -142 419 -142 q 432 -142 429 -142 l 435 -142 q 431 -154 432 -149 q 426 -167 429 -160 l 393 -167 l 393 -114 q 390 -111 393 -111 q 385 -110 388 -111 q 389 -98 388 -104 q 393 -85 390 -92 l 407 -85 q 418 -87 415 -85 m 465 -85 q 465 -112 465 -99 q 465 -139 464 -125 q 470 -142 465 -142 q 478 -142 475 -142 l 481 -142 l 481 -144 q 478 -156 482 -151 q 475 -167 475 -160 q 465 -167 469 -167 q 454 -168 460 -168 q 439 -164 444 -168 l 440 -115 q 435 -110 440 -110 q 438 -97 438 -103 q 442 -85 439 -92 l 465 -85 m 510 -85 l 535 -85 q 541 -101 538 -93 q 546 -118 544 -108 q 554 -102 553 -112 q 558 -85 556 -92 l 585 -85 q 573 -126 581 -106 q 558 -167 565 -147 l 538 -167 q 523 -126 531 -147 q 510 -85 515 -106 m 589 -85 l 643 -85 q 638 -97 640 -92 q 636 -110 636 -103 q 629 -110 633 -111 q 622 -110 625 -110 q 615 -112 617 -110 q 626 -116 618 -117 q 638 -115 633 -115 l 642 -115 q 639 -126 640 -121 q 636 -136 638 -131 l 615 -136 q 626 -139 618 -140 q 638 -139 633 -137 l 642 -139 l 642 -140 q 639 -153 642 -147 q 633 -167 636 -160 l 589 -167 l 589 -112 q 586 -110 589 -110 q 582 -110 583 -111 q 586 -98 585 -104 q 589 -85 588 -92 m 714 -117 q 712 -131 714 -124 q 703 -142 710 -137 q 708 -153 703 -149 q 714 -165 714 -157 l 714 -167 q 703 -168 710 -168 q 687 -165 694 -168 q 679 -151 679 -162 q 676 -156 676 -153 q 676 -161 676 -158 q 675 -167 676 -167 l 651 -167 l 651 -114 q 649 -111 651 -111 q 646 -108 646 -111 q 649 -97 646 -101 q 654 -85 651 -92 l 665 -85 q 699 -88 685 -83 q 714 -117 714 -93 m 678 -124 l 681 -124 q 688 -115 689 -124 l 688 -112 q 683 -111 685 -112 q 679 -110 682 -110 l 678 -110 l 678 -124 m 814 -85 l 814 -167 l 790 -167 l 792 -114 q 789 -110 792 -111 q 783 -110 786 -110 q 788 -97 786 -103 q 790 -85 789 -92 l 814 -85 m 853 -87 q 864 -85 856 -85 q 878 -88 871 -85 q 892 -94 885 -92 q 904 -124 899 -106 q 892 -153 901 -139 q 865 -167 883 -167 q 834 -153 846 -167 q 822 -121 822 -140 q 832 -99 822 -108 q 853 -87 842 -89 m 874 -112 q 863 -110 868 -110 q 852 -113 857 -110 q 847 -124 847 -117 q 867 -142 847 -142 l 868 -142 q 878 -125 878 -135 q 874 -112 878 -119 m 936 -85 q 944 -97 940 -92 q 951 -110 949 -103 q 954 -102 954 -108 q 954 -92 954 -96 q 957 -85 954 -86 l 979 -85 l 979 -167 l 958 -167 q 948 -151 953 -160 q 939 -133 943 -142 q 935 -147 935 -137 q 936 -162 936 -156 l 936 -167 l 913 -167 l 913 -114 q 910 -111 913 -111 q 904 -110 907 -111 q 908 -97 907 -103 q 913 -85 910 -92 l 936 -85 m 1044 -87 q 1056 -83 1049 -83 q 1069 -87 1063 -83 q 1083 -94 1076 -92 q 1092 -110 1088 -101 q 1096 -126 1096 -118 q 1084 -155 1096 -144 q 1056 -165 1072 -165 q 1025 -154 1036 -165 q 1014 -124 1014 -143 q 1024 -100 1014 -111 q 1044 -87 1033 -89 m 1056 -142 q 1071 -125 1071 -142 q 1065 -114 1071 -118 q 1054 -110 1060 -110 q 1050 -112 1049 -110 q 1039 -126 1039 -114 q 1056 -142 1039 -142 m 1126 -85 q 1136 -97 1132 -92 q 1143 -110 1140 -103 q 1145 -102 1146 -108 q 1144 -92 1144 -96 q 1147 -85 1144 -87 l 1171 -85 l 1171 -167 l 1150 -167 q 1141 -151 1147 -158 q 1132 -136 1135 -144 q 1129 -147 1128 -139 q 1131 -160 1131 -156 l 1129 -164 q 1118 -167 1126 -167 l 1104 -167 l 1104 -114 q 1101 -111 1104 -111 q 1099 -107 1099 -111 q 1101 -96 1099 -100 q 1104 -85 1104 -92 l 1126 -85 m 706 -219 q 703 -233 704 -226 q 699 -247 701 -240 l 678 -247 q 688 -250 681 -251 q 699 -250 696 -249 l 703 -250 q 703 -252 703 -251 q 704 -254 704 -253 q 702 -262 704 -258 q 700 -271 700 -267 q 693 -272 697 -272 q 685 -271 689 -271 q 678 -274 679 -271 q 689 -276 681 -276 q 701 -275 697 -275 l 706 -276 q 702 -289 703 -283 q 699 -301 701 -294 l 651 -301 l 651 -251 q 649 -248 651 -249 q 646 -244 646 -247 q 649 -233 646 -242 q 654 -221 653 -224 l 663 -222 q 681 -220 672 -222 q 700 -218 690 -218 l 706 -219 m 768 -219 q 760 -247 765 -235 l 739 -247 q 748 -253 739 -254 q 761 -251 757 -251 q 763 -252 763 -251 q 765 -253 764 -253 q 757 -276 764 -264 l 739 -276 l 739 -301 l 714 -301 q 713 -283 711 -292 q 714 -262 714 -274 q 711 -250 714 -256 q 708 -242 708 -244 q 713 -233 713 -239 q 717 -221 713 -226 l 725 -222 q 743 -220 735 -222 q 761 -218 751 -218 l 768 -219 m 993 -219 q 989 -237 990 -226 q 975 -247 988 -249 l 975 -301 l 949 -301 l 949 -250 q 944 -247 949 -246 q 938 -247 940 -247 l 936 -247 q 938 -234 936 -240 q 940 -221 940 -228 l 949 -222 q 967 -220 958 -222 q 986 -218 976 -218 l 993 -219 m 1024 -304 l 1015 -304 l 1015 -301 q 1003 -300 1010 -301 q 996 -292 996 -299 q 997 -276 1000 -285 q 1003 -274 1003 -274 q 1013 -276 1008 -274 q 1024 -279 1018 -279 l 1026 -278 q 1021 -272 1026 -274 q 1009 -267 1015 -269 q 998 -260 1003 -264 q 993 -244 993 -256 q 1006 -225 993 -231 q 1029 -219 1018 -219 q 1050 -224 1039 -219 l 1050 -228 q 1048 -235 1050 -233 q 1047 -244 1046 -237 q 1043 -247 1044 -247 q 1035 -246 1039 -247 q 1028 -244 1032 -244 q 1021 -247 1022 -244 q 1043 -256 1032 -250 q 1054 -276 1054 -262 q 1044 -295 1054 -286 q 1024 -304 1033 -304 m 1129 -304 l 1122 -304 l 1122 -301 q 1094 -288 1104 -300 q 1085 -260 1085 -276 q 1098 -231 1085 -242 q 1128 -221 1111 -221 q 1153 -229 1142 -221 q 1147 -241 1150 -236 q 1143 -253 1144 -246 q 1126 -247 1138 -247 q 1118 -249 1122 -247 q 1111 -256 1114 -250 l 1111 -268 q 1116 -274 1111 -272 q 1124 -275 1121 -275 q 1133 -274 1129 -275 q 1143 -272 1138 -272 q 1144 -274 1144 -272 q 1148 -283 1146 -279 q 1153 -292 1150 -286 q 1142 -299 1150 -299 q 1129 -304 1135 -300 m 111 -221 l 138 -221 q 140 -235 139 -228 q 142 -250 142 -243 q 147 -236 144 -243 q 150 -221 150 -229 l 171 -221 q 174 -235 174 -228 q 178 -250 175 -243 q 183 -236 183 -244 q 186 -221 182 -228 l 238 -221 l 238 -225 q 240 -236 238 -232 q 240 -247 242 -240 q 248 -236 247 -244 q 251 -221 249 -228 l 271 -221 q 274 -236 271 -229 q 276 -250 278 -243 q 282 -236 282 -244 q 285 -221 282 -228 l 336 -221 q 339 -235 339 -228 q 342 -250 339 -243 q 347 -236 344 -243 q 349 -221 349 -229 l 369 -221 q 374 -235 372 -228 q 378 -250 375 -243 q 382 -236 382 -244 q 385 -221 382 -228 l 408 -221 q 401 -262 407 -242 q 393 -301 396 -282 l 367 -301 l 367 -299 q 365 -286 368 -292 q 363 -274 361 -281 q 356 -287 357 -279 q 354 -301 354 -294 l 328 -301 q 320 -266 324 -283 q 310 -232 317 -249 q 294 -301 299 -268 l 269 -301 q 265 -288 267 -294 q 261 -276 264 -282 q 256 -288 256 -281 q 253 -301 257 -296 l 228 -301 q 220 -265 225 -282 q 213 -229 215 -249 q 202 -265 204 -246 q 194 -301 200 -283 l 168 -301 l 168 -299 q 165 -286 169 -292 q 163 -274 161 -281 q 157 -287 158 -279 q 156 -301 156 -294 l 129 -301 q 120 -262 126 -282 q 111 -221 114 -242 m 468 -221 l 468 -247 l 481 -247 q 483 -237 485 -244 q 483 -225 482 -229 l 483 -221 q 491 -222 488 -222 q 499 -221 494 -221 q 504 -221 501 -221 q 510 -224 507 -221 l 510 -301 l 483 -301 l 483 -274 l 471 -274 q 467 -285 467 -276 q 468 -297 468 -293 l 468 -301 l 442 -301 l 442 -256 q 443 -251 443 -254 q 440 -248 443 -249 q 438 -244 438 -247 q 440 -233 438 -237 q 442 -221 442 -228 l 468 -221 m 513 -221 l 538 -221 l 546 -237 q 549 -230 549 -235 q 553 -221 550 -225 l 579 -221 q 572 -242 576 -233 q 564 -258 568 -250 q 558 -276 560 -267 q 558 -301 556 -286 l 532 -301 q 531 -267 532 -276 q 526 -252 529 -257 q 520 -242 524 -247 q 513 -221 517 -237 m 610 -286 l 610 -301 l 585 -301 l 585 -250 q 581 -247 585 -247 q 576 -247 578 -247 q 581 -234 579 -240 q 585 -221 582 -228 l 597 -221 q 628 -227 613 -221 q 643 -253 643 -233 q 628 -283 643 -268 l 626 -283 q 619 -285 621 -283 q 610 -286 617 -287 m 610 -260 l 613 -261 q 618 -254 618 -261 q 613 -247 618 -247 l 610 -247 l 610 -260 m 811 -304 l 811 -301 q 782 -289 792 -301 q 772 -257 772 -276 q 785 -232 772 -242 q 814 -222 799 -222 q 844 -233 832 -222 q 856 -262 856 -244 q 841 -292 856 -278 q 811 -304 826 -307 m 822 -247 q 819 -247 819 -247 q 815 -246 818 -246 q 799 -262 799 -246 q 804 -276 799 -268 q 808 -277 807 -276 q 813 -278 810 -278 q 829 -260 826 -278 q 826 -253 828 -257 q 822 -247 824 -250 m 889 -221 q 895 -235 890 -229 q 903 -247 900 -240 q 905 -237 906 -244 q 904 -225 904 -229 l 904 -221 l 931 -221 l 931 -301 l 907 -301 q 899 -285 903 -293 q 886 -271 894 -276 l 886 -301 l 864 -301 l 864 -250 q 861 -247 864 -247 q 856 -247 858 -247 q 860 -234 858 -240 q 864 -221 861 -228 l 889 -221 m 1194 -304 l 1194 -301 q 1168 -290 1179 -301 q 1157 -262 1157 -278 q 1167 -233 1157 -244 q 1197 -222 1178 -222 q 1226 -233 1213 -222 q 1239 -260 1239 -243 q 1226 -292 1239 -278 q 1194 -304 1213 -306 m 1194 -278 q 1213 -268 1207 -278 l 1213 -264 q 1208 -250 1214 -254 q 1194 -247 1203 -246 l 1189 -247 q 1183 -261 1183 -253 q 1194 -278 1183 -274 m 1246 -221 l 1272 -221 q 1277 -230 1275 -225 q 1285 -237 1279 -235 q 1292 -230 1289 -235 q 1297 -221 1294 -225 l 1324 -221 l 1324 -301 l 1297 -301 l 1297 -265 q 1296 -264 1297 -264 q 1291 -269 1293 -264 q 1288 -276 1289 -274 l 1286 -276 q 1278 -270 1279 -276 q 1272 -262 1278 -264 l 1272 -301 l 1246 -301 l 1246 -251 q 1243 -248 1246 -249 q 1240 -244 1240 -247 q 1243 -233 1240 -239 q 1246 -221 1246 -228 m 421 -304 q 410 -289 410 -299 q 424 -276 410 -276 q 436 -289 436 -276 q 421 -304 436 -304 m 1071 -304 l 1068 -304 q 1060 -298 1063 -304 q 1057 -289 1057 -292 q 1071 -275 1057 -275 q 1078 -279 1076 -275 q 1083 -286 1081 -283 l 1083 -290 q 1078 -299 1083 -297 q 1071 -304 1074 -301 z "},"9":{"ha":1415,"x_min":-4,"x_max":1372,"o":"m 1372 604 q 1372 589 1372 600 q 1369 566 1371 578 q 1367 543 1368 554 q 1365 526 1365 532 q 1358 493 1363 510 q 1350 460 1354 476 q 1256 252 1319 346 q 1104 91 1192 158 q 910 -14 1017 24 q 685 -51 803 -51 q 410 5 538 -51 q 191 158 283 61 q 47 383 99 254 q 0 658 -4 513 q 3 664 3 660 q 29 831 6 751 q 99 985 53 910 q 138 1043 114 1011 q 190 1106 161 1075 q 248 1162 218 1136 q 306 1201 278 1188 l 307 1207 l 313 1207 l 315 1211 q 324 1215 319 1214 q 333 1219 329 1217 q 349 1230 342 1225 q 364 1240 357 1235 q 405 1260 383 1251 q 447 1276 426 1268 q 563 1309 504 1299 q 683 1319 622 1319 q 942 1270 817 1319 q 1164 1126 1068 1221 q 1225 1059 1196 1094 q 1278 983 1254 1024 q 1290 957 1285 971 q 1303 931 1296 943 q 1312 915 1307 922 q 1319 900 1317 908 q 1337 855 1331 878 q 1350 808 1343 832 q 1368 708 1364 754 q 1372 604 1372 661 m 1047 940 q 949 937 999 936 q 851 938 900 938 l 814 938 q 784 837 797 888 q 754 736 771 786 q 771 735 763 735 q 788 736 779 736 q 807 733 800 736 l 807 283 l 1008 283 l 1008 504 l 1161 504 q 1187 595 1172 550 q 1213 688 1201 640 l 1008 688 q 1009 702 1010 694 q 1008 717 1008 710 q 1008 726 1008 721 q 1011 733 1008 731 l 1182 733 q 1212 843 1194 789 q 1243 953 1229 897 l 1051 953 q 1047 940 1044 950 m 186 931 q 158 833 174 882 q 132 736 143 785 q 149 735 140 735 q 165 736 157 736 q 174 736 169 736 q 183 733 179 736 l 183 283 l 385 283 l 385 457 q 385 487 385 472 q 388 517 385 501 q 426 516 407 515 q 465 517 446 517 q 488 517 476 517 q 513 514 500 517 l 513 286 q 551 283 532 283 q 590 283 571 283 q 651 284 621 283 q 714 283 682 285 l 714 938 q 651 938 682 936 q 590 939 621 939 q 513 935 550 939 l 513 724 l 385 724 q 385 789 385 756 q 386 854 386 822 q 382 938 386 896 l 192 938 q 188 935 189 938 q 186 931 188 932 m 781 -87 q 777 -99 778 -93 q 772 -110 776 -104 q 764 -108 768 -110 q 754 -107 760 -107 q 750 -108 751 -107 q 763 -117 754 -115 q 778 -124 771 -118 q 782 -139 782 -131 q 778 -157 782 -149 q 749 -167 767 -167 q 724 -162 736 -167 l 724 -160 q 726 -148 724 -153 q 729 -136 728 -143 q 740 -140 735 -137 q 750 -142 744 -142 l 754 -142 q 747 -133 754 -135 q 735 -131 740 -132 q 726 -120 731 -124 q 721 -108 721 -117 q 735 -89 721 -94 q 760 -83 749 -83 q 781 -87 769 -83 m 256 -85 l 307 -85 l 307 -86 q 305 -98 308 -93 q 303 -110 301 -103 q 294 -110 299 -111 q 286 -110 290 -110 q 279 -112 281 -110 q 290 -116 282 -117 q 301 -115 297 -115 l 306 -115 q 301 -126 304 -122 q 300 -139 299 -131 l 279 -139 l 279 -167 l 265 -167 q 253 -164 256 -167 l 254 -114 q 249 -110 254 -112 q 252 -97 251 -103 q 256 -85 253 -92 m 342 -85 q 341 -101 342 -93 q 340 -118 340 -110 q 346 -142 340 -132 l 350 -142 q 357 -133 357 -142 q 357 -119 357 -125 l 357 -85 l 371 -85 q 382 -87 379 -85 l 383 -112 q 378 -149 383 -131 q 350 -167 374 -167 q 321 -154 335 -167 q 318 -134 318 -143 q 318 -114 318 -125 q 315 -110 318 -111 q 310 -110 313 -110 q 314 -97 313 -103 q 318 -85 315 -92 l 342 -85 m 418 -87 q 417 -113 418 -100 q 418 -139 417 -126 q 424 -142 419 -142 q 432 -142 429 -142 l 435 -142 q 431 -154 432 -149 q 426 -167 429 -160 l 393 -167 l 393 -114 q 390 -111 393 -111 q 385 -110 388 -111 q 389 -98 388 -104 q 393 -85 390 -92 l 407 -85 q 418 -87 415 -85 m 465 -85 q 465 -112 465 -99 q 465 -139 464 -125 q 470 -142 465 -142 q 478 -142 475 -142 l 481 -142 l 481 -144 q 478 -156 482 -151 q 475 -167 475 -160 q 465 -167 469 -167 q 454 -168 460 -168 q 439 -164 444 -168 l 440 -115 q 435 -110 440 -110 q 438 -97 438 -103 q 442 -85 439 -92 l 465 -85 m 510 -85 l 535 -85 q 541 -101 538 -93 q 546 -118 544 -108 q 554 -102 553 -112 q 558 -85 556 -92 l 585 -85 q 573 -126 581 -106 q 558 -167 565 -147 l 538 -167 q 523 -126 531 -147 q 510 -85 515 -106 m 589 -85 l 643 -85 q 638 -97 640 -92 q 636 -110 636 -103 q 629 -110 633 -111 q 622 -110 625 -110 q 615 -112 617 -110 q 626 -116 618 -117 q 638 -115 633 -115 l 642 -115 q 639 -126 640 -121 q 636 -136 638 -131 l 615 -136 q 626 -139 618 -140 q 638 -139 633 -137 l 642 -139 l 642 -140 q 639 -153 642 -147 q 633 -167 636 -160 l 589 -167 l 589 -112 q 586 -110 589 -110 q 582 -110 583 -111 q 586 -98 585 -104 q 589 -85 588 -92 m 714 -117 q 712 -131 714 -124 q 703 -142 710 -137 q 708 -153 703 -149 q 714 -165 714 -157 l 714 -167 q 703 -168 710 -168 q 687 -165 694 -168 q 679 -151 679 -162 q 676 -156 676 -153 q 676 -161 676 -158 q 675 -167 676 -167 l 651 -167 l 651 -114 q 649 -111 651 -111 q 646 -108 646 -111 q 649 -97 646 -101 q 654 -85 651 -92 l 665 -85 q 699 -88 685 -83 q 714 -117 714 -93 m 678 -124 l 681 -124 q 688 -115 689 -124 l 688 -112 q 683 -111 685 -112 q 679 -110 682 -110 l 678 -110 l 678 -124 m 814 -85 l 814 -167 l 790 -167 l 792 -114 q 789 -110 792 -111 q 783 -110 786 -110 q 788 -97 786 -103 q 790 -85 789 -92 l 814 -85 m 853 -87 q 864 -85 856 -85 q 878 -88 871 -85 q 892 -94 885 -92 q 904 -124 899 -106 q 892 -153 901 -139 q 865 -167 883 -167 q 834 -153 846 -167 q 822 -121 822 -140 q 832 -99 822 -108 q 853 -87 842 -89 m 874 -112 q 863 -110 868 -110 q 852 -113 857 -110 q 847 -124 847 -117 q 867 -142 847 -142 l 868 -142 q 878 -125 878 -135 q 874 -112 878 -119 m 936 -85 q 944 -97 940 -92 q 951 -110 949 -103 q 954 -102 954 -108 q 954 -92 954 -96 q 957 -85 954 -86 l 979 -85 l 979 -167 l 958 -167 q 948 -151 953 -160 q 939 -133 943 -142 q 935 -147 935 -137 q 936 -162 936 -156 l 936 -167 l 913 -167 l 913 -114 q 910 -111 913 -111 q 904 -110 907 -111 q 908 -97 907 -103 q 913 -85 910 -92 l 936 -85 m 1044 -87 q 1056 -83 1049 -83 q 1069 -87 1063 -83 q 1083 -94 1076 -92 q 1092 -110 1088 -101 q 1096 -126 1096 -118 q 1084 -155 1096 -144 q 1056 -165 1072 -165 q 1025 -154 1036 -165 q 1014 -124 1014 -143 q 1024 -100 1014 -111 q 1044 -87 1033 -89 m 1056 -142 q 1071 -125 1071 -142 q 1065 -114 1071 -118 q 1054 -110 1060 -110 q 1050 -112 1049 -110 q 1039 -126 1039 -114 q 1056 -142 1039 -142 m 1126 -85 q 1136 -97 1132 -92 q 1143 -110 1140 -103 q 1145 -102 1146 -108 q 1144 -92 1144 -96 q 1147 -85 1144 -87 l 1171 -85 l 1171 -167 l 1150 -167 q 1141 -151 1147 -158 q 1132 -136 1135 -144 q 1129 -147 1128 -139 q 1131 -160 1131 -156 l 1129 -164 q 1118 -167 1126 -167 l 1104 -167 l 1104 -114 q 1101 -111 1104 -111 q 1099 -107 1099 -111 q 1101 -96 1099 -100 q 1104 -85 1104 -92 l 1126 -85 m 706 -219 q 703 -233 704 -226 q 699 -247 701 -240 l 678 -247 q 688 -250 681 -251 q 699 -250 696 -249 l 703 -250 q 703 -252 703 -251 q 704 -254 704 -253 q 702 -262 704 -258 q 700 -271 700 -267 q 693 -272 697 -272 q 685 -271 689 -271 q 678 -274 679 -271 q 689 -276 681 -276 q 701 -275 697 -275 l 706 -276 q 702 -289 703 -283 q 699 -301 701 -294 l 651 -301 l 651 -251 q 649 -248 651 -249 q 646 -244 646 -247 q 649 -233 646 -242 q 654 -221 653 -224 l 663 -222 q 681 -220 672 -222 q 700 -218 690 -218 l 706 -219 m 768 -219 q 760 -247 765 -235 l 739 -247 q 748 -253 739 -254 q 761 -251 757 -251 q 763 -252 763 -251 q 765 -253 764 -253 q 757 -276 764 -264 l 739 -276 l 739 -301 l 714 -301 q 713 -283 711 -292 q 714 -262 714 -274 q 711 -250 714 -256 q 708 -242 708 -244 q 713 -233 713 -239 q 717 -221 713 -226 l 725 -222 q 743 -220 735 -222 q 761 -218 751 -218 l 768 -219 m 993 -219 q 989 -237 990 -226 q 975 -247 988 -249 l 975 -301 l 949 -301 l 949 -250 q 944 -247 949 -246 q 938 -247 940 -247 l 936 -247 q 938 -234 936 -240 q 940 -221 940 -228 l 949 -222 q 967 -220 958 -222 q 986 -218 976 -218 l 993 -219 m 1024 -304 l 1015 -304 l 1015 -301 q 1003 -300 1010 -301 q 996 -292 996 -299 q 997 -276 1000 -285 q 1003 -274 1003 -274 q 1013 -276 1008 -274 q 1024 -279 1018 -279 l 1026 -278 q 1021 -272 1026 -274 q 1009 -267 1015 -269 q 998 -260 1003 -264 q 993 -244 993 -256 q 1006 -225 993 -231 q 1029 -219 1018 -219 q 1050 -224 1039 -219 l 1050 -228 q 1048 -235 1050 -233 q 1047 -244 1046 -237 q 1043 -247 1044 -247 q 1035 -246 1039 -247 q 1028 -244 1032 -244 q 1021 -247 1022 -244 q 1043 -256 1032 -250 q 1054 -276 1054 -262 q 1044 -295 1054 -286 q 1024 -304 1033 -304 m 1129 -304 l 1122 -304 l 1122 -301 q 1094 -288 1104 -300 q 1085 -260 1085 -276 q 1098 -231 1085 -242 q 1128 -221 1111 -221 q 1153 -229 1142 -221 q 1147 -241 1150 -236 q 1143 -253 1144 -246 q 1126 -247 1138 -247 q 1118 -249 1122 -247 q 1111 -256 1114 -250 l 1111 -268 q 1116 -274 1111 -272 q 1124 -275 1121 -275 q 1133 -274 1129 -275 q 1143 -272 1138 -272 q 1144 -274 1144 -272 q 1148 -283 1146 -279 q 1153 -292 1150 -286 q 1142 -299 1150 -299 q 1129 -304 1135 -300 m 111 -221 l 138 -221 q 140 -235 139 -228 q 142 -250 142 -243 q 147 -236 144 -243 q 150 -221 150 -229 l 171 -221 q 174 -235 174 -228 q 178 -250 175 -243 q 183 -236 183 -244 q 186 -221 182 -228 l 238 -221 l 238 -225 q 240 -236 238 -232 q 240 -247 242 -240 q 248 -236 247 -244 q 251 -221 249 -228 l 271 -221 q 274 -236 271 -229 q 276 -250 278 -243 q 282 -236 282 -244 q 285 -221 282 -228 l 336 -221 q 339 -235 339 -228 q 342 -250 339 -243 q 347 -236 344 -243 q 349 -221 349 -229 l 369 -221 q 374 -235 372 -228 q 378 -250 375 -243 q 382 -236 382 -244 q 385 -221 382 -228 l 408 -221 q 401 -262 407 -242 q 393 -301 396 -282 l 367 -301 l 367 -299 q 365 -286 368 -292 q 363 -274 361 -281 q 356 -287 357 -279 q 354 -301 354 -294 l 328 -301 q 320 -266 324 -283 q 310 -232 317 -249 q 294 -301 299 -268 l 269 -301 q 265 -288 267 -294 q 261 -276 264 -282 q 256 -288 256 -281 q 253 -301 257 -296 l 228 -301 q 220 -265 225 -282 q 213 -229 215 -249 q 202 -265 204 -246 q 194 -301 200 -283 l 168 -301 l 168 -299 q 165 -286 169 -292 q 163 -274 161 -281 q 157 -287 158 -279 q 156 -301 156 -294 l 129 -301 q 120 -262 126 -282 q 111 -221 114 -242 m 468 -221 l 468 -247 l 481 -247 q 483 -237 485 -244 q 483 -225 482 -229 l 483 -221 q 491 -222 488 -222 q 499 -221 494 -221 q 504 -221 501 -221 q 510 -224 507 -221 l 510 -301 l 483 -301 l 483 -274 l 471 -274 q 467 -285 467 -276 q 468 -297 468 -293 l 468 -301 l 442 -301 l 442 -256 q 443 -251 443 -254 q 440 -248 443 -249 q 438 -244 438 -247 q 440 -233 438 -237 q 442 -221 442 -228 l 468 -221 m 513 -221 l 538 -221 l 546 -237 q 549 -230 549 -235 q 553 -221 550 -225 l 579 -221 q 572 -242 576 -233 q 564 -258 568 -250 q 558 -276 560 -267 q 558 -301 556 -286 l 532 -301 q 531 -267 532 -276 q 526 -252 529 -257 q 520 -242 524 -247 q 513 -221 517 -237 m 610 -286 l 610 -301 l 585 -301 l 585 -250 q 581 -247 585 -247 q 576 -247 578 -247 q 581 -234 579 -240 q 585 -221 582 -228 l 597 -221 q 628 -227 613 -221 q 643 -253 643 -233 q 628 -283 643 -268 l 626 -283 q 619 -285 621 -283 q 610 -286 617 -287 m 610 -260 l 613 -261 q 618 -254 618 -261 q 613 -247 618 -247 l 610 -247 l 610 -260 m 811 -304 l 811 -301 q 782 -289 792 -301 q 772 -257 772 -276 q 785 -232 772 -242 q 814 -222 799 -222 q 844 -233 832 -222 q 856 -262 856 -244 q 841 -292 856 -278 q 811 -304 826 -307 m 822 -247 q 819 -247 819 -247 q 815 -246 818 -246 q 799 -262 799 -246 q 804 -276 799 -268 q 808 -277 807 -276 q 813 -278 810 -278 q 829 -260 826 -278 q 826 -253 828 -257 q 822 -247 824 -250 m 889 -221 q 895 -235 890 -229 q 903 -247 900 -240 q 905 -237 906 -244 q 904 -225 904 -229 l 904 -221 l 931 -221 l 931 -301 l 907 -301 q 899 -285 903 -293 q 886 -271 894 -276 l 886 -301 l 864 -301 l 864 -250 q 861 -247 864 -247 q 856 -247 858 -247 q 860 -234 858 -240 q 864 -221 861 -228 l 889 -221 m 1194 -304 l 1194 -301 q 1168 -290 1179 -301 q 1157 -262 1157 -278 q 1167 -233 1157 -244 q 1197 -222 1178 -222 q 1226 -233 1213 -222 q 1239 -260 1239 -243 q 1226 -292 1239 -278 q 1194 -304 1213 -306 m 1194 -278 q 1213 -268 1207 -278 l 1213 -264 q 1208 -250 1214 -254 q 1194 -247 1203 -246 l 1189 -247 q 1183 -261 1183 -253 q 1194 -278 1183 -274 m 1246 -221 l 1272 -221 q 1277 -230 1275 -225 q 1285 -237 1279 -235 q 1292 -230 1289 -235 q 1297 -221 1294 -225 l 1324 -221 l 1324 -301 l 1297 -301 l 1297 -265 q 1296 -264 1297 -264 q 1291 -269 1293 -264 q 1288 -276 1289 -274 l 1286 -276 q 1278 -270 1279 -276 q 1272 -262 1278 -264 l 1272 -301 l 1246 -301 l 1246 -251 q 1243 -248 1246 -249 q 1240 -244 1240 -247 q 1243 -233 1240 -239 q 1246 -221 1246 -228 m 421 -304 q 410 -289 410 -299 q 424 -276 410 -276 q 436 -289 436 -276 q 421 -304 436 -304 m 1071 -304 l 1068 -304 q 1060 -298 1063 -304 q 1057 -289 1057 -292 q 1071 -275 1057 -275 q 1078 -279 1076 -275 q 1083 -286 1081 -283 l 1083 -290 q 1078 -299 1083 -297 q 1071 -304 1074 -301 z "},"\u0000":{"ha":0,"x_min":0,"x_max":0,"o":""},"\r":{"ha":417,"x_min":0,"x_max":0,"o":""}," ":{"ha":444,"x_min":0,"x_max":0,"o":""},"":{"ha":893,"x_min":28,"x_max":867,"o":"m 867 72 q 733 12 804 32 q 603 -8 663 -8 q 456 15 526 -8 q 325 83 385 39 q 222 189 265 126 q 156 329 178 251 l 28 329 l 28 390 l 143 390 q 140 426 140 407 q 139 461 139 444 q 139 490 139 475 q 142 517 139 504 l 28 517 l 28 579 l 156 579 q 219 725 175 661 q 325 833 264 789 q 458 901 386 878 q 606 925 531 925 q 818 874 699 925 q 799 841 804 853 q 790 818 794 829 q 604 863 686 863 q 492 847 547 863 q 389 800 438 831 q 301 726 340 769 q 236 626 263 682 l 236 628 q 231 613 233 618 q 227 603 229 608 q 223 594 225 599 q 218 579 221 589 l 657 579 l 657 517 l 204 517 q 200 458 200 488 q 201 424 200 442 q 206 390 203 407 l 657 390 l 657 329 l 221 329 q 279 213 242 264 q 367 126 317 161 q 479 72 418 90 q 606 53 540 53 q 719 70 660 53 q 832 124 778 88 l 867 72 z "},"F":{"ha":606,"x_min":93,"x_max":600,"o":"m 600 915 l 600 854 l 154 854 l 154 565 l 504 565 l 504 504 l 154 504 l 154 0 l 93 0 l 93 915 l 600 915 z "},"G":{"ha":1038,"x_min":65,"x_max":988,"o":"m 985 561 q 985 544 985 557 q 986 529 986 532 q 988 506 988 518 q 988 482 988 493 q 978 372 988 429 q 951 272 969 315 q 876 156 922 207 q 774 67 831 104 q 655 11 718 31 q 526 -8 592 -8 q 348 29 432 -8 q 201 131 264 67 q 102 281 139 196 q 65 460 65 365 q 103 641 65 556 q 203 790 140 726 q 351 890 267 853 q 526 926 435 926 q 624 915 575 926 q 729 881 674 904 l 704 821 q 611 855 656 844 q 528 865 567 865 q 370 831 443 865 q 243 741 297 797 q 158 612 189 685 q 128 460 128 539 q 160 299 128 374 q 249 170 193 225 q 376 84 304 115 q 526 53 447 53 q 637 70 582 53 q 740 119 692 88 q 828 197 789 151 q 893 299 868 242 q 918 388 908 339 q 928 482 928 438 q 927 490 928 486 q 926 499 926 494 l 589 499 l 589 561 l 985 561 z "},"H":{"ha":917,"x_min":94,"x_max":800,"o":"m 739 496 l 156 496 l 156 0 l 94 0 l 94 915 l 156 915 l 156 557 l 739 557 l 739 915 l 800 915 l 800 0 l 739 0 l 739 496 z "},"I":{"ha":294,"x_min":88,"x_max":151,"o":"m 151 915 l 151 0 l 88 0 l 88 915 l 151 915 z "},"J":{"ha":457,"x_min":-10,"x_max":371,"o":"m 304 108 q 242 53 278 75 q 165 17 206 31 q 79 -3 124 3 q -10 -8 35 -8 l -10 53 q 138 74 64 54 q 256 146 211 94 q 299 237 289 186 q 310 339 310 288 l 310 915 l 371 915 l 371 339 q 358 217 371 278 q 303 107 344 156 l 304 108 z "},"K":{"ha":768,"x_min":94,"x_max":713,"o":"m 713 35 l 663 -4 l 176 443 l 156 422 l 156 0 l 94 0 l 94 915 l 156 915 l 156 508 l 622 924 l 664 881 l 222 486 l 713 35 z "},"L":{"ha":693,"x_min":94,"x_max":685,"o":"m 685 61 l 685 0 l 94 0 l 94 915 l 156 915 l 156 61 l 685 61 z "},"M":{"ha":1006,"x_min":96,"x_max":886,"o":"m 886 932 l 886 0 l 825 0 l 825 758 q 658 551 744 658 q 492 344 571 443 l 157 761 l 157 0 l 96 0 l 96 932 l 492 443 l 886 932 z "},"N":{"ha":899,"x_min":94,"x_max":783,"o":"m 783 915 l 783 -57 l 156 776 l 156 0 l 94 0 l 94 958 l 722 125 l 722 915 l 783 915 z "},"O":{"ha":1086,"x_min":65,"x_max":997,"o":"m 532 924 q 713 887 628 924 q 860 787 797 850 q 960 639 924 724 q 997 457 997 554 q 960 276 997 361 q 860 127 924 190 q 713 27 797 64 q 532 -10 628 -10 q 350 27 435 -10 q 202 127 265 64 q 102 276 139 190 q 65 457 65 361 q 102 639 65 554 q 202 787 139 724 q 350 887 265 850 q 532 924 435 924 m 936 457 q 904 615 936 542 q 817 744 872 689 q 689 831 763 799 q 532 863 615 863 q 374 831 447 863 q 245 744 300 799 q 158 615 190 689 q 126 457 126 542 q 158 299 126 374 q 245 170 190 225 q 374 83 300 115 q 532 51 447 51 q 689 83 615 51 q 817 170 763 115 q 904 299 872 225 q 936 457 936 374 z "},"":{"ha":1321,"x_min":76,"x_max":1278,"o":"m 1278 61 l 1278 0 l 533 0 q 354 36 438 0 q 209 134 271 72 q 112 279 147 196 q 76 458 76 363 q 113 636 76 553 q 210 781 149 719 q 356 879 272 843 q 535 915 439 915 l 1247 915 l 1247 856 l 788 856 l 788 565 l 1096 565 l 1096 506 l 788 506 l 788 61 l 1278 61 m 725 61 l 725 856 l 535 856 q 381 824 453 856 q 254 739 308 793 q 169 613 200 685 q 138 458 138 540 q 169 304 138 376 q 253 178 200 232 q 379 92 307 124 q 533 61 451 61 l 725 61 z "},"P":{"ha":625,"x_min":93,"x_max":611,"o":"m 154 854 l 154 419 l 342 419 q 422 437 385 419 q 488 483 460 454 q 533 552 517 513 q 550 636 550 592 q 533 722 550 682 q 488 790 517 761 q 422 837 460 819 q 340 854 383 854 l 154 854 m 93 0 l 93 915 l 339 915 q 444 893 394 915 q 531 833 493 871 q 590 745 568 796 q 611 636 611 694 q 590 527 611 578 q 532 439 568 476 q 447 380 496 401 q 342 358 397 358 l 154 358 l 154 0 l 93 0 z "},"Q":{"ha":1068,"x_min":47,"x_max":1010,"o":"m 981 457 q 915 220 981 328 q 732 46 850 113 q 863 -18 804 6 q 954 -42 921 -42 q 965 -39 958 -42 q 983 -31 972 -36 l 1010 -87 q 980 -97 994 -93 q 954 -101 965 -101 q 829 -70 906 -101 q 661 14 753 -39 q 588 -4 625 1 q 514 -10 551 -10 q 333 27 418 -10 q 184 127 247 64 q 84 276 121 190 q 47 457 47 361 q 84 639 47 554 q 184 787 121 724 q 333 887 247 850 q 514 924 418 924 q 696 887 611 924 q 844 787 781 850 q 944 639 907 724 q 981 457 981 554 m 681 88 q 856 242 793 146 q 919 457 919 339 q 888 615 919 542 q 801 744 856 689 q 672 831 746 799 q 514 863 599 863 q 356 831 429 863 q 227 744 282 799 q 140 615 172 689 q 108 457 108 542 q 117 374 108 413 q 142 294 125 335 q 156 296 149 296 q 178 296 164 296 q 243 290 204 296 q 329 272 282 285 q 428 234 376 258 q 533 172 481 210 q 601 125 568 147 q 668 82 633 103 l 674 85 q 681 88 678 85 m 514 51 q 551 53 533 51 q 589 58 569 56 q 542 91 567 74 q 496 125 518 108 q 401 181 447 160 q 313 215 354 203 q 236 231 271 226 q 178 235 201 235 l 174 235 q 317 101 229 151 q 514 51 406 51 z "},"R":{"ha":776,"x_min":94,"x_max":739,"o":"m 156 357 l 156 0 l 94 0 l 94 915 l 351 915 q 460 892 410 915 q 549 830 511 868 q 607 742 586 792 q 628 638 628 692 q 581 480 628 551 q 449 378 533 408 q 519 285 482 333 q 594 188 557 236 q 669 91 632 139 q 739 0 706 43 l 661 0 l 386 357 l 156 357 m 156 854 l 156 418 l 351 418 q 436 435 397 418 q 504 483 475 453 q 550 552 533 513 q 567 636 567 592 q 550 720 567 681 q 504 790 533 760 q 436 837 475 819 q 351 854 397 854 l 156 854 z "},"S":{"ha":839,"x_min":133,"x_max":753,"o":"m 753 250 q 726 139 753 188 q 653 57 699 90 q 545 7 607 24 q 414 -10 483 -10 q 349 -6 385 -10 q 277 6 314 -1 q 203 23 240 13 q 133 44 167 33 l 158 96 l 196 88 q 236 78 213 83 q 286 67 260 72 q 338 58 313 61 q 385 54 364 54 l 443 54 q 536 68 492 54 q 615 108 581 82 q 669 172 649 133 q 689 260 689 210 q 678 308 689 282 q 656 350 668 333 q 609 394 635 378 q 556 420 583 411 q 499 433 528 429 q 439 439 469 436 q 342 448 390 442 q 249 482 294 454 l 250 482 q 169 561 201 510 q 138 676 138 613 q 204 831 138 767 q 383 918 271 896 q 431 924 399 921 q 506 926 463 926 q 556 922 528 926 q 615 911 585 918 q 673 896 644 904 q 725 878 701 888 l 701 821 q 639 841 668 833 q 583 854 610 849 q 529 862 556 860 q 472 864 503 864 q 378 853 426 864 q 291 819 331 842 q 226 760 251 796 q 200 675 200 725 q 222 601 200 642 q 275 540 243 561 q 356 509 315 515 q 440 500 397 503 q 542 487 489 497 q 643 446 596 476 q 723 360 693 414 q 753 250 753 306 z "},"T":{"ha":803,"x_min":0,"x_max":786,"o":"m 786 915 l 786 854 l 425 854 l 425 0 l 364 0 l 364 854 l 0 854 l 0 915 l 786 915 z "},"U":{"ha":921,"x_min":83,"x_max":817,"o":"m 451 -10 q 308 18 375 -10 q 192 94 242 46 q 113 206 142 142 q 83 343 83 271 l 83 915 l 144 915 l 144 343 q 168 229 144 282 q 233 137 192 176 q 331 74 275 97 q 451 51 388 51 q 569 74 514 51 q 667 137 625 97 q 732 229 708 176 q 756 343 756 282 l 756 915 l 817 915 l 817 343 q 788 206 817 271 q 709 94 758 142 q 593 18 660 46 q 451 -10 526 -10 z "},"V":{"ha":865,"x_min":21,"x_max":824,"o":"m 78 921 l 424 115 q 463 207 440 153 q 514 325 486 261 q 571 458 542 389 q 629 593 600 526 q 769 921 696 749 l 824 896 l 424 -39 l 21 897 l 78 921 z "},"W":{"ha":1429,"x_min":53,"x_max":1343,"o":"m 604 903 l 697 683 q 733 766 717 728 q 763 835 750 804 q 790 900 778 869 l 844 875 l 731 607 q 784 481 758 542 q 835 362 810 421 q 888 243 861 303 q 943 117 914 183 q 982 208 958 154 q 1033 326 1006 263 q 1089 458 1060 389 q 1147 593 1118 526 q 1289 921 1214 749 l 1343 896 l 943 -39 l 697 531 l 454 -39 l 53 896 l 107 921 l 454 115 q 495 214 471 157 q 548 336 519 271 q 606 471 576 401 q 664 607 636 540 l 549 879 l 604 903 z "},"X":{"ha":953,"x_min":68,"x_max":867,"o":"m 867 886 l 504 460 q 686 244 593 356 q 867 29 779 133 l 818 -7 l 467 413 l 111 -11 l 68 32 l 429 460 q 249 672 342 563 q 68 883 156 781 l 110 925 l 467 506 l 819 924 l 867 886 z "},"Y":{"ha":753,"x_min":0,"x_max":732,"o":"m 335 368 l 0 906 l 56 932 l 367 435 l 678 932 l 732 906 l 399 368 q 398 184 399 281 q 397 0 397 88 l 336 0 l 335 368 z "},"Z":{"ha":817,"x_min":-11,"x_max":740,"o":"m 740 61 l 740 0 l -11 0 l 596 854 l 22 854 l 22 915 l 715 915 l 107 61 l 740 61 z "},"&":{"ha":868,"x_min":75,"x_max":853,"o":"m 435 271 q 492 331 464 315 q 550 347 521 347 q 600 340 575 347 q 651 322 625 333 q 697 307 675 314 q 743 300 719 300 q 778 308 760 300 q 821 336 797 317 l 853 288 q 733 242 788 242 q 675 251 703 242 q 623 153 650 193 q 564 82 596 113 q 466 23 519 47 q 353 -1 413 -1 l 335 -1 q 240 17 286 -1 q 158 69 194 36 q 100 145 122 101 q 78 239 78 189 q 118 363 78 307 q 217 449 158 418 q 162 480 188 461 q 117 523 136 499 q 86 576 97 547 q 75 638 75 606 q 96 740 75 690 q 152 830 117 790 q 236 894 188 869 q 340 918 285 918 q 477 876 415 918 q 579 768 539 835 l 531 736 q 449 827 499 793 q 344 861 399 861 q 262 842 300 861 q 196 794 224 824 q 151 725 168 764 q 135 646 135 686 q 155 570 135 601 q 208 519 175 539 q 283 492 242 500 q 365 483 324 483 q 384 484 374 483 q 422 488 394 485 l 422 422 q 391 427 399 426 q 379 428 383 428 q 296 414 339 428 q 217 375 253 400 q 160 315 182 350 q 138 235 138 279 q 155 162 138 194 q 201 106 172 129 q 265 69 229 82 q 338 56 300 56 l 349 56 q 438 75 394 57 q 518 123 482 93 q 581 192 554 153 q 622 274 608 231 q 592 287 607 283 q 560 290 578 290 q 520 278 540 290 q 483 236 500 265 l 435 271 z "},"*":{"ha":374,"x_min":15,"x_max":356,"o":"m 353 756 l 356 704 l 233 685 q 276 632 253 661 q 315 583 299 603 l 269 558 l 193 651 l 147 533 l 101 556 l 144 669 l 18 649 l 15 703 l 136 721 l 57 817 l 94 856 l 176 756 l 222 874 l 267 851 l 225 736 l 353 756 z "},"{":{"ha":276,"x_min":1,"x_max":269,"o":"m 257 999 q 190 936 214 972 q 152 858 165 900 q 134 768 139 815 q 126 674 129 721 q 113 540 121 608 q 76 415 104 472 q 113 290 104 358 q 128 157 122 222 q 135 61 131 108 q 155 -29 140 14 q 196 -110 169 -72 q 269 -178 222 -149 l 233 -233 q 150 -154 181 -199 q 103 -61 119 -110 q 80 38 86 -12 q 69 138 74 89 q 69 147 69 142 q 68 156 68 151 q 62 219 65 186 q 51 286 58 253 q 33 352 44 319 q 1 415 21 385 q 33 482 21 447 q 52 553 44 517 q 63 624 60 589 q 69 693 67 660 q 81 794 74 743 q 104 894 88 844 q 151 987 121 943 q 233 1065 182 1031 l 260 1018 l 257 999 z "},"}":{"ha":278,"x_min":4,"x_max":272,"o":"m 40 1067 q 122 986 92 1031 q 169 893 153 942 q 193 794 186 844 q 204 693 200 743 q 205 684 204 688 q 206 675 206 681 q 222 544 211 613 q 272 415 233 476 q 220 278 231 350 q 204 138 210 206 q 193 38 200 89 q 169 -63 186 -14 q 122 -156 153 -112 q 40 -233 92 -200 l 4 -178 q 78 -109 51 -147 q 118 -28 104 -71 q 137 62 132 15 q 146 157 142 108 q 159 290 150 222 q 196 415 168 358 q 160 541 168 472 q 147 674 151 610 q 138 767 143 721 q 119 857 133 814 q 79 938 106 900 q 7 1004 53 975 l 40 1067 z "},"[":{"ha":360,"x_min":90,"x_max":363,"o":"m 90 1038 l 363 1038 l 363 976 l 151 976 l 151 -75 l 363 -75 l 363 -136 l 90 -136 l 90 1038 z "},"]":{"ha":364,"x_min":-10,"x_max":263,"o":"m 263 -136 l -10 -136 l -10 -75 l 201 -75 l 201 976 l -10 976 l -10 1038 l 263 1038 l 263 -136 z "},"":{"ha":706,"x_min":50,"x_max":678,"o":"m 678 188 q 554 115 619 139 q 422 90 489 90 q 318 106 371 90 q 303 51 311 81 q 289 0 296 22 l 225 0 l 263 126 q 173 185 213 149 q 106 265 133 221 q 65 360 79 308 q 50 465 50 411 q 51 487 50 476 q 51 508 51 497 q 94 639 61 579 q 176 742 126 699 q 288 811 225 786 q 419 836 350 836 l 451 836 l 475 915 l 540 915 l 513 825 q 592 795 554 815 q 671 743 631 775 l 632 692 q 564 737 599 719 q 496 764 529 754 q 416 465 456 611 q 335 165 376 319 q 421 153 378 153 q 533 176 476 153 q 640 242 589 199 l 678 188 m 435 772 q 321 753 375 774 q 224 696 267 733 q 151 608 181 658 q 114 499 122 557 q 119 406 110 451 q 150 320 129 361 q 203 246 171 279 q 276 190 235 213 l 435 772 z "},"":{"ha":639,"x_min":86,"x_max":581,"o":"m 299 1 l 299 89 l 229 89 l 229 1 l 168 1 l 168 89 l 86 89 l 86 829 l 168 829 l 168 915 l 229 915 l 229 829 l 299 829 l 299 915 l 360 915 l 360 829 l 369 829 q 443 813 408 829 q 503 770 478 797 q 544 708 529 743 q 558 636 558 674 q 538 544 558 588 q 478 474 517 501 q 553 400 525 447 q 581 294 581 353 q 565 215 581 253 q 521 149 549 178 q 456 105 493 121 q 376 89 419 89 l 360 89 l 360 1 l 299 1 m 376 150 q 433 161 407 150 q 479 192 460 172 q 510 239 499 213 q 521 294 521 265 q 480 400 521 357 q 376 443 439 443 l 146 443 l 146 150 l 376 150 m 497 636 q 488 688 497 664 q 460 731 478 713 q 419 759 443 749 q 369 769 396 769 l 146 769 l 146 503 l 369 503 q 419 513 396 503 q 460 542 443 524 q 488 585 478 561 q 497 636 497 608 z "},"":{"ha":267,"x_min":60,"x_max":200,"o":"m 60 944 q 81 994 60 974 q 131 1015 101 1015 q 181 994 161 1015 q 200 944 200 974 q 181 894 200 914 q 131 875 161 875 q 81 894 101 875 q 60 944 60 914 m 115 944 q 131 931 115 931 q 146 944 146 931 q 131 960 146 960 q 115 944 115 960 z "},"$":{"ha":518,"x_min":25,"x_max":488,"o":"m 211 78 q 117 93 169 81 q 25 121 65 106 l 42 171 l 81 161 q 142 145 104 154 q 211 136 179 136 l 211 440 q 143 458 176 446 q 84 494 110 471 q 42 550 58 517 q 26 631 26 583 q 74 758 26 706 q 204 828 121 811 q 206 829 207 829 q 211 829 206 829 l 211 914 l 271 914 l 271 836 l 301 836 q 340 833 318 836 q 384 824 361 829 q 428 811 407 818 q 467 797 450 804 l 451 742 q 360 770 399 763 q 276 778 321 778 l 271 778 l 271 493 q 338 482 306 490 q 406 450 371 474 q 466 379 444 422 q 488 290 488 336 q 471 206 488 243 q 425 142 454 169 q 356 99 396 115 q 271 79 317 83 l 271 -24 l 211 -24 l 211 78 m 407 369 q 344 422 379 410 q 271 436 310 433 l 271 136 q 332 149 303 138 q 383 182 361 161 q 417 231 404 203 q 431 297 431 260 q 423 335 431 315 q 407 369 415 356 m 136 526 q 173 507 154 513 q 211 499 192 501 l 211 771 q 121 722 158 758 q 83 618 83 686 q 98 567 83 593 q 136 526 113 542 z "},"=":{"ha":468,"x_min":22,"x_max":435,"o":"m 435 557 l 435 496 l 22 496 l 22 557 l 435 557 m 435 361 l 435 300 l 22 300 l 22 361 l 435 361 z "},"<":{"ha":768,"x_min":-32,"x_max":694,"o":"m 669 743 l 694 689 l 111 418 q 403 282 256 351 q 694 147 551 213 l 669 93 l -32 418 l 669 743 z "},"(":{"ha":332,"x_min":18,"x_max":268,"o":"m 238 1006 q 119 728 158 871 q 81 443 81 586 q 126 136 81 289 q 268 -156 172 -17 l 219 -192 q 69 122 119 -42 q 18 449 18 285 q 59 749 18 600 q 183 1036 100 897 l 238 1006 z "},")":{"ha":332,"x_min":18,"x_max":268,"o":"m 103 1036 q 227 749 186 897 q 268 449 268 600 q 217 122 268 285 q 67 -192 167 -42 l 18 -156 q 160 136 114 -17 q 206 443 206 289 q 167 728 206 586 q 49 1006 128 871 l 103 1036 z "},"+":{"ha":596,"x_min":-4,"x_max":588,"o":"m 325 704 l 325 446 l 588 446 l 588 385 l 325 385 l 325 113 l 264 113 l 264 385 l -4 385 l -4 446 l 264 446 l 264 704 l 325 704 z "},"?":{"ha":922,"x_min":128,"x_max":806,"o":"m 432 28 q 444 57 432 47 q 470 67 456 67 q 497 57 485 67 q 508 28 508 47 q 497 -1 508 8 q 470 -11 485 -11 q 444 -1 456 -11 q 432 28 432 8 m 731 821 q 788 726 769 776 q 806 624 806 675 q 784 508 806 565 q 722 406 763 451 q 626 328 682 360 q 501 288 569 296 l 501 107 l 439 107 l 439 346 l 468 346 q 577 376 526 350 q 665 440 628 401 q 722 526 701 478 q 743 624 743 574 q 727 709 743 667 q 678 788 711 751 q 589 851 638 832 q 489 869 540 869 q 385 849 436 869 q 292 792 333 829 q 224 706 251 756 q 193 599 197 657 l 128 601 q 168 733 135 672 q 251 837 201 793 q 363 906 301 881 q 490 931 425 931 q 618 905 556 931 q 731 821 681 879 z "},"\"":{"ha":325,"x_min":89,"x_max":264,"o":"m 153 1017 l 153 875 l 89 875 l 89 1017 l 153 1017 m 264 1017 l 264 875 l 200 875 l 200 1017 l 264 1017 z "},"/":{"ha":735,"x_min":-19,"x_max":739,"o":"m 739 1015 l 49 0 l -19 0 l 671 1015 l 739 1015 z "},"":{"ha":869,"x_min":21,"x_max":829,"o":"m 829 96 q 708 19 765 44 q 594 -6 651 -6 q 503 8 550 -6 q 406 46 457 21 q 324 81 365 65 q 239 96 282 96 q 148 76 186 96 q 61 17 110 56 l 21 58 q 107 124 60 101 q 199 154 154 146 q 223 242 214 199 q 232 335 232 285 q 228 396 232 364 l 228 397 l 225 421 l 108 421 l 108 482 l 214 482 q 201 565 207 522 q 194 653 194 608 q 217 760 194 711 q 277 844 239 810 q 366 899 315 879 q 474 918 417 918 q 620 872 557 918 q 732 756 683 825 l 679 718 q 584 821 643 785 q 463 857 525 857 q 376 839 414 857 q 311 790 338 821 q 271 719 285 760 q 257 632 257 678 q 262 572 257 606 q 276 482 267 539 l 571 482 l 571 421 l 289 421 q 294 374 293 399 q 296 326 296 350 q 288 238 296 282 q 265 154 281 194 q 352 130 310 146 q 431 99 394 114 q 518 67 479 79 q 590 56 557 56 q 681 77 635 56 q 789 143 726 99 l 829 96 z "},"":{"ha":768,"x_min":14,"x_max":738,"o":"m 738 886 l 444 515 l 638 515 l 638 454 l 407 454 l 407 363 l 638 363 l 638 301 l 407 301 l 407 1 l 344 1 l 344 301 l 113 301 l 113 363 l 344 363 l 344 454 l 113 454 l 113 515 l 307 515 q 160 702 236 607 q 14 886 85 797 l 61 925 l 374 528 l 689 925 l 738 886 z "},"D":{"ha":906,"x_min":96,"x_max":831,"o":"m 374 915 q 551 879 468 915 q 697 781 635 843 q 794 635 758 718 q 831 457 831 551 q 794 279 831 363 q 697 134 758 196 q 551 36 635 72 q 374 0 468 0 l 96 0 l 96 915 l 374 915 m 771 457 q 740 611 771 539 q 654 738 708 683 q 528 823 600 792 q 374 854 456 854 l 157 854 l 157 61 l 374 61 q 528 92 456 61 q 654 177 600 124 q 740 303 708 231 q 771 457 771 375 z "},"":{"ha":0,"x_min":0,"x_max":0,"o":""},"":{"ha":339,"x_min":-17,"x_max":347,"o":"m 347 1063 q 299 990 324 1010 q 249 969 275 969 q 202 981 226 969 q 156 1004 178 993 q 119 1022 139 1014 q 86 1031 100 1031 q 65 1019 75 1031 q 40 974 54 1007 l -17 1000 q 32 1073 7 1053 q 83 1093 57 1093 q 130 1082 106 1093 q 176 1058 154 1071 q 212 1041 193 1050 q 246 1032 231 1032 q 268 1045 257 1032 q 293 1090 279 1058 l 347 1063 z "},"":{"ha":806,"x_min":21,"x_max":772,"o":"m 535 413 q 524 442 529 425 q 513 474 518 458 q 483 549 497 513 q 456 624 469 586 l 396 788 l 253 413 l 535 413 m 396 932 l 772 3 q 744 -5 757 0 q 715 -12 731 -10 l 558 360 l 231 360 l 154 172 q 115 77 135 125 q 78 -15 96 29 q 63 -12 71 -14 q 47 -8 56 -11 l 21 -1 l 396 932 m 581 1057 q 533 984 557 1004 q 482 964 508 964 q 435 976 460 964 q 389 999 411 988 q 353 1017 372 1008 q 319 1025 333 1025 q 298 1013 308 1025 q 274 968 288 1001 l 217 994 q 265 1067 240 1047 q 317 1088 290 1088 q 363 1076 339 1088 q 410 1053 388 1065 q 445 1035 426 1044 q 479 1026 464 1026 q 501 1040 490 1026 q 526 1085 513 1053 l 581 1057 z "},"":{"ha":1086,"x_min":65,"x_max":997,"o":"m 532 924 q 713 887 628 924 q 860 787 797 850 q 960 639 924 724 q 997 457 997 554 q 960 276 997 361 q 860 127 924 190 q 713 27 797 64 q 532 -10 628 -10 q 350 27 435 -10 q 202 127 265 64 q 102 276 139 190 q 65 457 65 361 q 102 639 65 554 q 202 787 139 724 q 350 887 265 850 q 532 924 435 924 m 936 457 q 904 615 936 542 q 817 744 872 689 q 689 831 763 799 q 532 863 615 863 q 374 831 447 863 q 245 744 300 799 q 158 615 190 689 q 126 457 126 542 q 158 299 126 374 q 245 170 190 225 q 374 83 300 115 q 532 51 447 51 q 689 83 615 51 q 817 170 763 115 q 904 299 872 225 q 936 457 936 374 m 726 1056 q 678 983 703 1003 q 628 963 654 963 q 581 974 606 963 q 535 997 557 986 q 499 1015 518 1007 q 465 1024 479 1024 q 444 1012 454 1024 q 419 967 433 1000 l 363 993 q 411 1066 386 1046 q 463 1086 436 1086 q 509 1075 485 1086 q 556 1051 533 1064 q 591 1034 572 1043 q 625 1025 610 1025 q 647 1038 636 1025 q 672 1083 658 1051 l 726 1056 z "},",":{"ha":176,"x_min":17,"x_max":122,"o":"m 122 76 l 79 -101 l 17 -89 l 44 33 l 122 76 z "},".":{"ha":221,"x_min":67,"x_max":144,"o":"m 104 74 q 134 61 124 74 q 144 33 144 49 q 134 4 144 15 q 104 -7 124 -7 q 77 4 88 -7 q 67 33 67 15 q 77 61 67 49 q 104 74 88 74 z "},":":{"ha":388,"x_min":150,"x_max":229,"o":"m 189 79 q 218 67 207 79 q 229 40 229 56 q 218 10 229 21 q 189 0 207 0 q 161 10 172 0 q 150 40 150 21 q 161 67 150 56 q 189 79 172 79 m 189 457 q 218 445 207 457 q 229 417 229 433 q 218 388 229 399 q 189 378 207 378 q 161 388 172 378 q 150 417 150 399 q 161 445 150 433 q 189 457 172 457 z "},";":{"ha":154,"x_min":14,"x_max":119,"o":"m 119 76 l 76 -101 l 14 -89 l 42 33 l 119 76 m 76 457 q 105 445 94 457 q 115 417 115 433 q 76 378 115 378 q 38 417 38 378 q 48 445 38 433 q 76 457 58 457 z "},"'":{"ha":307,"x_min":90,"x_max":256,"o":"m 256 929 l 153 706 l 90 735 l 168 897 l 256 929 z "},"`":{"ha":229,"x_min":-51,"x_max":228,"o":"m 228 915 l -51 1122 l 53 1119 l 201 1008 l 228 915 z "},"":{"ha":654,"x_min":93,"x_max":647,"o":"m 93 0 l 93 915 l 615 915 l 615 854 l 154 854 l 154 569 l 465 569 l 465 508 l 154 508 l 154 61 l 647 61 l 647 0 l 93 0 m 464 921 l 185 1128 l 289 1125 l 438 1014 l 464 921 z "},"":{"ha":229,"x_min":-8,"x_max":275,"o":"m 22 1007 l 172 1119 l 275 1122 l -8 911 l 22 1007 z "},"":{"ha":806,"x_min":21,"x_max":772,"o":"m 535 413 q 524 442 529 425 q 513 474 518 458 q 483 549 497 513 q 456 624 469 586 l 396 788 l 253 413 l 535 413 m 396 932 l 772 3 q 744 -5 757 0 q 715 -12 731 -10 l 558 360 l 231 360 l 154 172 q 115 77 135 125 q 78 -15 96 29 q 63 -12 71 -14 q 47 -8 56 -11 l 21 -1 l 396 932 m 526 915 l 247 1122 l 351 1119 l 500 1008 l 526 915 z "},"":{"ha":806,"x_min":21,"x_max":772,"o":"m 535 413 q 524 442 529 425 q 513 474 518 458 q 483 549 497 513 q 456 624 469 586 l 396 788 l 253 413 l 535 413 m 396 932 l 772 3 q 744 -5 757 0 q 715 -12 731 -10 l 558 360 l 231 360 l 154 172 q 115 77 135 125 q 78 -15 96 29 q 63 -12 71 -14 q 47 -8 56 -11 l 21 -1 l 396 932 m 301 1008 l 451 1121 l 554 1124 l 271 913 l 301 1008 z "},"":{"ha":463,"x_min":22,"x_max":428,"o":"m 53 1004 l 203 1119 l 253 1119 l 403 1007 l 428 917 l 228 1061 l 22 907 l 53 1004 z "},"":{"ha":654,"x_min":93,"x_max":647,"o":"m 93 0 l 93 915 l 615 915 l 615 854 l 154 854 l 154 569 l 465 569 l 465 508 l 154 508 l 154 61 l 647 61 l 647 0 l 93 0 m 172 1033 l 322 1149 l 372 1149 l 522 1036 l 547 946 l 347 1090 l 142 936 l 172 1033 z "},"":{"ha":465,"x_min":115,"x_max":399,"o":"m 279 915 l 279 0 l 215 0 l 215 915 l 279 915 m 146 1006 l 296 1118 l 399 1121 l 115 910 l 146 1006 z "},"":{"ha":621,"x_min":99,"x_max":504,"o":"m 339 915 l 339 0 l 275 0 l 275 915 l 339 915 m 129 1003 l 279 1118 l 329 1118 l 479 1006 l 504 915 l 304 1060 l 99 906 l 129 1003 z "},"":{"ha":465,"x_min":100,"x_max":379,"o":"m 286 915 l 286 0 l 222 0 l 222 915 l 286 915 m 379 915 l 100 1122 l 204 1119 l 353 1008 l 379 915 z "},"":{"ha":1086,"x_min":65,"x_max":997,"o":"m 532 924 q 713 887 628 924 q 860 787 797 850 q 960 639 924 724 q 997 457 997 554 q 960 276 997 361 q 860 127 924 190 q 713 27 797 64 q 532 -10 628 -10 q 350 27 435 -10 q 202 127 265 64 q 102 276 139 190 q 65 457 65 361 q 102 639 65 554 q 202 787 139 724 q 350 887 265 850 q 532 924 435 924 m 936 457 q 904 615 936 542 q 817 744 872 689 q 689 831 763 799 q 532 863 615 863 q 374 831 447 863 q 245 744 300 799 q 158 615 190 689 q 126 457 126 542 q 158 299 126 374 q 245 170 190 225 q 374 83 300 115 q 532 51 447 51 q 689 83 615 51 q 817 170 763 115 q 904 299 872 225 q 936 457 936 374 m 675 914 l 396 1121 l 500 1118 l 649 1007 l 675 914 z "},"":{"ha":921,"x_min":83,"x_max":817,"o":"m 451 -10 q 308 18 375 -10 q 192 94 242 46 q 113 206 142 142 q 83 343 83 271 l 83 915 l 144 915 l 144 343 q 168 229 144 282 q 233 137 192 176 q 331 74 275 97 q 451 51 388 51 q 569 74 514 51 q 667 137 625 97 q 732 229 708 176 q 756 343 756 282 l 756 915 l 817 915 l 817 343 q 788 206 817 271 q 709 94 758 142 q 593 18 660 46 q 451 -10 526 -10 m 361 1006 l 511 1118 l 614 1121 l 331 910 l 361 1006 z "},"":{"ha":921,"x_min":83,"x_max":817,"o":"m 451 -10 q 308 18 375 -10 q 192 94 242 46 q 113 206 142 142 q 83 343 83 271 l 83 915 l 144 915 l 144 343 q 168 229 144 282 q 233 137 192 176 q 331 74 275 97 q 451 51 388 51 q 569 74 514 51 q 667 137 625 97 q 732 229 708 176 q 756 343 756 282 l 756 915 l 817 915 l 817 343 q 788 206 817 271 q 709 94 758 142 q 593 18 660 46 q 451 -10 526 -10 m 588 914 l 308 1121 l 413 1118 l 561 1007 l 588 914 z "},"":{"ha":921,"x_min":83,"x_max":817,"o":"m 451 -10 q 308 18 375 -10 q 192 94 242 46 q 113 206 142 142 q 83 343 83 271 l 83 915 l 144 915 l 144 343 q 168 229 144 282 q 233 137 192 176 q 331 74 275 97 q 451 51 388 51 q 569 74 514 51 q 667 137 625 97 q 732 229 708 176 q 756 343 756 282 l 756 915 l 817 915 l 817 343 q 788 206 817 271 q 709 94 758 142 q 593 18 660 46 q 451 -10 526 -10 m 285 1003 l 435 1118 l 485 1118 l 635 1006 l 660 915 l 460 1060 l 254 906 l 285 1003 z "},"":{"ha":806,"x_min":21,"x_max":772,"o":"m 535 413 q 524 442 529 425 q 513 474 518 458 q 483 549 497 513 q 456 624 469 586 l 396 788 l 253 413 l 535 413 m 396 932 l 772 3 q 744 -5 757 0 q 715 -12 731 -10 l 558 360 l 231 360 l 154 172 q 115 77 135 125 q 78 -15 96 29 q 63 -12 71 -14 q 47 -8 56 -11 l 21 -1 l 396 932 m 225 1004 l 375 1119 l 425 1119 l 575 1007 l 600 917 l 400 1061 l 194 907 l 225 1004 z "},"":{"ha":1086,"x_min":65,"x_max":997,"o":"m 532 924 q 713 887 628 924 q 860 787 797 850 q 960 639 924 724 q 997 457 997 554 q 960 276 997 361 q 860 127 924 190 q 713 27 797 64 q 532 -10 628 -10 q 350 27 435 -10 q 202 127 265 64 q 102 276 139 190 q 65 457 65 361 q 102 639 65 554 q 202 787 139 724 q 350 887 265 850 q 532 924 435 924 m 936 457 q 904 615 936 542 q 817 744 872 689 q 689 831 763 799 q 532 863 615 863 q 374 831 447 863 q 245 744 300 799 q 158 615 190 689 q 126 457 126 542 q 158 299 126 374 q 245 170 190 225 q 374 83 300 115 q 532 51 447 51 q 689 83 615 51 q 817 170 763 115 q 904 299 872 225 q 936 457 936 374 m 429 1043 l 579 1156 l 682 1158 l 399 947 l 429 1043 z "},"":{"ha":1086,"x_min":65,"x_max":997,"o":"m 532 924 q 713 887 628 924 q 860 787 797 850 q 960 639 924 724 q 997 457 997 554 q 960 276 997 361 q 860 127 924 190 q 713 27 797 64 q 532 -10 628 -10 q 350 27 435 -10 q 202 127 265 64 q 102 276 139 190 q 65 457 65 361 q 102 639 65 554 q 202 787 139 724 q 350 887 265 850 q 532 924 435 924 m 936 457 q 904 615 936 542 q 817 744 872 689 q 689 831 763 799 q 532 863 615 863 q 374 831 447 863 q 245 744 300 799 q 158 615 190 689 q 126 457 126 542 q 158 299 126 374 q 245 170 190 225 q 374 83 300 115 q 532 51 447 51 q 689 83 615 51 q 817 170 763 115 q 904 299 872 225 q 936 457 936 374 m 364 1004 l 514 1119 l 564 1119 l 714 1007 l 739 917 l 539 1061 l 333 907 l 364 1004 z "},"":{"ha":403,"x_min":86,"x_max":310,"o":"m 124 1053 q 153 1041 143 1053 q 164 1014 164 1029 q 153 985 164 996 q 124 974 143 974 q 97 985 107 974 q 86 1014 86 996 q 97 1041 86 1029 q 124 1053 107 1053 m 271 1053 q 299 1041 289 1053 q 310 1014 310 1029 q 299 985 310 996 q 271 974 289 974 q 242 985 253 974 q 232 1014 232 996 q 242 1041 232 1029 q 271 1053 253 1053 z "},"":{"ha":654,"x_min":93,"x_max":647,"o":"m 93 0 l 93 915 l 615 915 l 615 854 l 154 854 l 154 569 l 465 569 l 465 508 l 154 508 l 154 61 l 647 61 l 647 0 l 93 0 m 265 1053 q 295 1041 285 1053 q 306 1014 306 1029 q 295 985 306 996 q 265 974 285 974 q 238 985 249 974 q 228 1014 228 996 q 238 1041 228 1029 q 265 1053 249 1053 m 413 1053 q 441 1041 431 1053 q 451 1014 451 1029 q 441 985 451 996 q 413 974 431 974 q 384 985 394 974 q 374 1014 374 996 q 384 1041 374 1029 q 413 1053 394 1053 z "},"":{"ha":465,"x_min":90,"x_max":314,"o":"m 238 915 l 238 0 l 174 0 l 174 915 l 238 915 m 128 1053 q 158 1041 147 1053 q 168 1014 168 1029 q 158 985 168 996 q 128 974 147 974 q 101 985 111 974 q 90 1014 90 996 q 101 1041 90 1029 q 128 1053 111 1053 m 275 1053 q 303 1041 293 1053 q 314 1014 314 1029 q 303 985 314 996 q 275 974 293 974 q 247 985 257 974 q 236 1014 236 996 q 247 1041 236 1029 q 275 1053 257 1053 z "},"":{"ha":1307,"x_min":99,"x_max":1181,"o":"m 136 79 q 166 67 156 79 q 176 40 176 56 q 136 0 176 0 q 109 10 119 0 q 99 40 99 21 q 109 67 99 56 q 136 79 119 79 m 646 79 q 674 67 664 79 q 685 40 685 56 q 646 0 685 0 q 607 40 607 0 q 617 67 607 56 q 646 79 628 79 m 1140 79 q 1170 67 1160 79 q 1181 40 1181 56 q 1140 0 1181 0 q 1113 10 1124 0 q 1103 40 1103 21 q 1113 67 1103 56 q 1140 79 1124 79 z "},"":{"ha":851,"x_min":204,"x_max":936,"o":"m 539 368 l 204 906 l 260 932 l 571 435 l 882 932 l 936 906 l 603 368 q 602 184 603 281 q 601 0 601 88 l 540 0 l 539 368 m 501 1053 q 531 1041 521 1053 q 542 1014 542 1029 q 531 985 542 996 q 501 974 521 974 q 474 985 485 974 q 464 1014 464 996 q 474 1041 464 1029 q 501 1053 485 1053 m 649 1053 q 677 1041 667 1053 q 688 1014 688 1029 q 677 985 688 996 q 649 974 667 974 q 620 985 631 974 q 610 1014 610 996 q 620 1041 610 1029 q 649 1053 631 1053 z "},"":{"ha":806,"x_min":21,"x_max":772,"o":"m 535 413 q 524 442 529 425 q 513 474 518 458 q 483 549 497 513 q 456 624 469 586 l 396 788 l 253 413 l 535 413 m 396 932 l 772 3 q 744 -5 757 0 q 715 -12 731 -10 l 558 360 l 231 360 l 154 172 q 115 77 135 125 q 78 -15 96 29 q 63 -12 71 -14 q 47 -8 56 -11 l 21 -1 l 396 932 m 322 1054 q 352 1042 342 1054 q 363 1015 363 1031 q 352 986 363 997 q 322 975 342 975 q 295 986 306 975 q 285 1015 285 997 q 295 1042 285 1031 q 322 1054 306 1054 m 469 1054 q 498 1042 488 1054 q 508 1015 508 1031 q 498 986 508 997 q 469 975 488 975 q 441 986 451 975 q 431 1015 431 997 q 441 1042 431 1031 q 469 1054 451 1054 z "},"":{"ha":654,"x_min":93,"x_max":647,"o":"m 93 0 l 93 915 l 615 915 l 615 854 l 154 854 l 154 569 l 465 569 l 465 508 l 154 508 l 154 61 l 647 61 l 647 0 l 93 0 m 235 1021 l 385 1133 l 488 1136 l 204 925 l 235 1021 z "},"":{"ha":931,"x_min":151,"x_max":840,"o":"m 840 915 l 840 -57 l 213 776 l 213 0 l 151 0 l 151 958 l 779 125 l 779 915 l 840 915 m 681 1047 q 633 974 657 994 q 582 954 608 954 q 535 966 560 954 q 489 989 511 978 q 453 1007 472 999 q 419 1015 433 1015 q 398 1003 408 1015 q 374 958 388 992 l 317 985 q 365 1058 340 1038 q 417 1078 390 1078 q 463 1067 439 1078 q 510 1043 488 1056 q 545 1026 526 1035 q 579 1017 564 1017 q 601 1030 590 1017 q 626 1075 613 1043 l 681 1047 z "},"":{"ha":1086,"x_min":65,"x_max":997,"o":"m 532 924 q 713 887 628 924 q 860 787 797 850 q 960 639 924 724 q 997 457 997 554 q 960 276 997 361 q 860 127 924 190 q 713 27 797 64 q 532 -10 628 -10 q 350 27 435 -10 q 202 127 265 64 q 102 276 139 190 q 65 457 65 361 q 102 639 65 554 q 202 787 139 724 q 350 887 265 850 q 532 924 435 924 m 936 457 q 904 615 936 542 q 817 744 872 689 q 689 831 763 799 q 532 863 615 863 q 374 831 447 863 q 245 744 300 799 q 158 615 190 689 q 126 457 126 542 q 158 299 126 374 q 245 170 190 225 q 374 83 300 115 q 532 51 447 51 q 689 83 615 51 q 817 170 763 115 q 904 299 872 225 q 936 457 936 374 m 463 1054 q 492 1042 482 1054 q 503 1015 503 1031 q 492 986 503 997 q 463 975 482 975 q 435 986 446 975 q 425 1015 425 997 q 435 1042 425 1031 q 463 1054 446 1054 m 610 1054 q 638 1042 628 1054 q 649 1015 649 1031 q 638 986 649 997 q 610 975 628 975 q 581 986 592 975 q 571 1015 571 997 q 581 1042 571 1031 q 610 1054 592 1054 z "},"":{"ha":921,"x_min":83,"x_max":817,"o":"m 451 -10 q 308 18 375 -10 q 192 94 242 46 q 113 206 142 142 q 83 343 83 271 l 83 915 l 144 915 l 144 343 q 168 229 144 282 q 233 137 192 176 q 331 74 275 97 q 451 51 388 51 q 569 74 514 51 q 667 137 625 97 q 732 229 708 176 q 756 343 756 282 l 756 915 l 817 915 l 817 343 q 788 206 817 271 q 709 94 758 142 q 593 18 660 46 q 451 -10 526 -10 m 386 1054 q 416 1042 406 1054 q 426 1015 426 1031 q 416 986 426 997 q 386 975 406 975 q 359 986 369 975 q 349 1015 349 997 q 359 1042 349 1031 q 386 1054 369 1054 m 533 1054 q 562 1042 551 1054 q 572 1015 572 1031 q 562 986 572 997 q 533 975 551 975 q 505 986 515 975 q 494 1015 494 997 q 505 1042 494 1031 q 533 1054 515 1054 z "},"":{"ha":664,"x_min":24,"x_max":626,"o":"m 431 324 l 324 599 q 303 547 314 574 q 281 487 293 519 q 254 415 269 454 q 221 324 239 375 l 431 324 m 324 738 q 475 380 400 558 q 626 13 550 201 l 574 -1 l 454 272 l 199 272 l 79 -4 l 24 10 l 324 738 m 228 849 l 378 961 l 481 964 l 197 753 l 228 849 z "},"":{"ha":664,"x_min":24,"x_max":626,"o":"m 431 324 l 324 599 q 303 547 314 574 q 281 487 293 519 q 254 415 269 454 q 221 324 239 375 l 431 324 m 324 738 q 475 380 400 558 q 626 13 550 201 l 574 -1 l 454 272 l 199 272 l 79 -4 l 24 10 l 324 738 m 453 757 l 174 964 l 278 961 l 426 850 l 453 757 z "},"":{"ha":664,"x_min":24,"x_max":626,"o":"m 431 324 l 324 599 q 303 547 314 574 q 281 487 293 519 q 254 415 269 454 q 221 324 239 375 l 431 324 m 324 738 q 475 380 400 558 q 626 13 550 201 l 574 -1 l 454 272 l 199 272 l 79 -4 l 24 10 l 324 738 m 149 836 l 299 951 l 349 951 l 499 839 l 524 749 l 324 893 l 118 739 l 149 836 z "},"":{"ha":664,"x_min":24,"x_max":626,"o":"m 431 324 l 324 599 q 303 547 314 574 q 281 487 293 519 q 254 415 269 454 q 221 324 239 375 l 431 324 m 324 738 q 475 380 400 558 q 626 13 550 201 l 574 -1 l 454 272 l 199 272 l 79 -4 l 24 10 l 324 738 m 249 949 q 278 937 268 949 q 289 910 289 925 q 278 881 289 892 q 249 869 268 869 q 222 881 232 869 q 211 910 211 892 q 222 937 211 925 q 249 949 232 949 m 396 949 q 424 937 414 949 q 435 910 435 925 q 424 881 435 892 q 396 869 414 869 q 367 881 378 869 q 357 910 357 892 q 367 937 357 925 q 396 949 378 949 z "},"":{"ha":664,"x_min":24,"x_max":626,"o":"m 431 324 l 324 599 q 303 547 314 574 q 281 487 293 519 q 254 415 269 454 q 221 324 239 375 l 431 324 m 324 738 q 475 380 400 558 q 626 13 550 201 l 574 -1 l 454 272 l 199 272 l 79 -4 l 24 10 l 324 738 m 510 929 q 462 856 486 876 q 411 836 438 836 q 365 848 389 836 q 318 871 340 860 q 282 889 301 881 q 249 897 263 897 q 227 885 238 897 q 203 840 217 874 l 146 867 q 194 940 169 919 q 246 960 219 960 q 292 949 268 960 q 339 925 317 938 q 374 908 356 917 q 408 899 393 899 q 431 912 419 899 q 456 957 442 925 l 510 929 z "},"":{"ha":547,"x_min":93,"x_max":540,"o":"m 93 0 l 93 731 l 515 731 l 515 671 l 154 671 l 154 460 l 397 460 l 397 400 l 154 400 l 154 61 l 540 61 l 540 0 l 93 0 m 196 849 l 346 961 l 449 964 l 165 753 l 196 849 z "},"":{"ha":547,"x_min":93,"x_max":540,"o":"m 93 0 l 93 731 l 515 731 l 515 671 l 154 671 l 154 460 l 397 460 l 397 400 l 154 400 l 154 61 l 540 61 l 540 0 l 93 0 m 419 757 l 140 964 l 244 961 l 393 850 l 419 757 z "},"":{"ha":547,"x_min":93,"x_max":540,"o":"m 93 0 l 93 731 l 515 731 l 515 671 l 154 671 l 154 460 l 397 460 l 397 400 l 154 400 l 154 61 l 540 61 l 540 0 l 93 0 m 132 846 l 282 961 l 332 961 l 482 849 l 507 758 l 307 903 l 101 749 l 132 846 z "},"":{"ha":547,"x_min":93,"x_max":540,"o":"m 93 0 l 93 731 l 515 731 l 515 671 l 154 671 l 154 460 l 397 460 l 397 400 l 154 400 l 154 61 l 540 61 l 540 0 l 93 0 m 224 947 q 253 935 243 947 q 264 908 264 924 q 253 879 264 890 q 224 868 243 868 q 197 879 207 868 q 186 908 186 890 q 197 935 186 924 q 224 947 207 947 m 371 947 q 399 935 389 947 q 410 908 410 924 q 399 879 410 890 q 371 868 389 868 q 342 879 353 868 q 332 908 332 890 q 342 935 332 924 q 371 947 353 947 z "},"":{"ha":236,"x_min":64,"x_max":167,"o":"m 64 942 q 78 978 64 964 q 115 993 93 993 q 152 978 138 993 q 167 942 167 964 q 152 905 167 919 q 115 890 138 890 q 78 905 93 890 q 64 942 64 919 m 97 942 q 115 924 97 924 q 133 942 133 924 q 115 960 133 960 q 97 942 97 960 z "},"":{"ha":806,"x_min":21,"x_max":772,"o":"m 535 413 q 524 442 529 425 q 513 474 518 458 q 483 549 497 513 q 456 624 469 586 l 396 788 l 253 413 l 535 413 m 396 932 l 772 3 q 744 -5 757 0 q 715 -12 731 -10 l 558 360 l 231 360 l 154 172 q 115 77 135 125 q 78 -15 96 29 q 63 -12 71 -14 q 47 -8 56 -11 l 21 -1 l 396 932 m 344 982 q 359 1019 344 1004 q 396 1033 374 1033 q 433 1019 418 1033 q 447 982 447 1004 q 433 945 447 960 q 396 931 418 931 q 359 945 374 931 q 344 982 344 960 m 378 982 q 396 964 378 964 q 414 982 414 964 q 396 1000 414 1000 q 378 982 378 1000 z "},"":{"ha":664,"x_min":24,"x_max":626,"o":"m 431 324 l 324 599 q 303 547 314 574 q 281 487 293 519 q 254 415 269 454 q 221 324 239 375 l 431 324 m 324 738 q 475 380 400 558 q 626 13 550 201 l 574 -1 l 454 272 l 199 272 l 79 -4 l 24 10 l 324 738 m 272 793 q 287 830 272 815 q 324 844 301 844 q 360 830 346 844 q 375 793 375 815 q 360 756 375 771 q 324 742 346 742 q 287 756 301 742 q 272 793 272 771 m 306 793 q 324 775 306 775 q 342 793 342 775 q 324 811 342 811 q 306 793 306 811 z "},"":{"ha":296,"x_min":11,"x_max":253,"o":"m 140 -226 q 178 -209 164 -226 q 192 -168 192 -192 q 179 -137 192 -153 q 150 -117 167 -122 q 129 -115 143 -117 q 111 -114 115 -114 l 111 36 l 171 36 l 171 -60 q 231 -101 208 -69 q 253 -171 253 -133 q 221 -253 253 -219 q 140 -286 189 -286 q 58 -253 94 -286 q 11 -167 21 -219 l 67 -153 q 96 -207 79 -187 q 140 -226 113 -226 z "},"":{"ha":658,"x_min":32,"x_max":639,"o":"m 368 -218 q 406 -201 392 -218 q 419 -161 419 -185 q 407 -131 419 -146 q 379 -110 394 -115 q 357 -109 371 -110 q 339 -108 343 -108 l 339 0 q 219 45 275 13 q 123 126 164 78 q 58 234 82 174 q 33 360 33 294 q 61 504 32 436 q 141 624 90 572 q 259 705 192 675 q 401 736 326 735 q 504 721 450 736 q 615 672 558 706 l 578 622 q 486 665 531 653 q 401 676 442 676 q 279 649 336 675 q 180 578 222 622 q 114 478 138 535 q 90 360 90 421 q 117 238 90 294 q 189 140 144 181 q 290 75 233 99 q 408 53 347 51 q 503 70 453 53 q 603 124 553 88 l 639 75 q 523 15 581 35 q 411 -7 465 -6 q 405 -6 408 -7 q 399 -6 401 -6 l 399 -54 q 458 -94 436 -62 q 481 -164 481 -126 q 449 -245 481 -212 q 368 -278 417 -278 q 286 -247 324 -278 q 240 -158 249 -217 l 303 -144 l 304 -172 l 313 -192 l 311 -190 q 335 -211 319 -204 q 368 -218 351 -218 z "},"":{"ha":844,"x_min":82,"x_max":831,"o":"m 469 -210 q 508 -193 493 -210 q 522 -153 522 -176 q 509 -122 522 -137 q 481 -101 496 -106 q 458 -100 472 -101 q 440 -99 444 -99 l 440 3 q 307 60 367 22 q 213 138 254 93 q 142 235 171 183 q 97 344 113 288 q 82 458 82 401 q 99 582 82 521 q 150 700 115 643 q 228 796 183 754 q 324 866 272 838 q 434 910 376 894 q 550 925 492 925 q 678 905 613 925 q 810 844 743 885 l 774 794 q 658 847 715 831 q 549 864 601 864 q 353 814 444 864 q 203 668 261 764 q 157 565 171 618 q 143 458 143 513 q 194 262 143 354 q 340 111 244 169 q 442 67 389 82 q 549 53 494 53 q 672 74 610 53 q 794 138 733 94 l 831 86 q 690 15 761 38 q 550 -8 618 -8 q 524 -8 536 -8 q 500 -7 513 -8 l 500 -44 q 561 -85 539 -53 q 583 -156 583 -118 q 551 -237 583 -204 q 469 -269 518 -269 q 386 -240 424 -269 q 342 -150 349 -210 l 404 -136 l 404 -164 l 414 -183 l 413 -182 q 437 -203 421 -196 q 469 -210 453 -210 z "},"":{"ha":1036,"x_min":43,"x_max":976,"o":"m 774 1063 l 700 881 q 812 810 761 853 q 899 713 863 768 q 956 593 936 658 q 976 456 976 528 q 940 274 976 360 q 840 126 903 189 q 691 26 776 63 q 510 -11 606 -11 q 357 14 428 -11 q 321 -78 339 -31 q 283 -169 303 -126 l 219 -169 l 303 38 q 198 110 246 67 q 115 207 150 153 q 62 324 81 261 q 43 456 43 388 q 80 638 43 553 q 180 785 117 722 q 328 885 243 849 q 510 922 413 922 q 578 917 544 922 q 646 901 611 913 l 710 1063 l 774 1063 m 917 456 q 899 573 917 517 q 849 677 881 629 q 773 763 817 725 q 676 824 729 800 q 527 447 600 629 q 378 71 454 265 q 442 54 410 60 q 510 49 474 49 q 668 81 594 49 q 797 168 742 113 q 885 298 853 224 q 917 456 917 372 m 510 861 q 351 829 425 861 q 223 742 278 797 q 136 614 168 688 q 104 456 104 540 q 120 343 104 397 q 165 242 136 289 q 235 157 194 194 q 324 94 275 119 l 621 844 q 510 861 567 861 z "},"":{"ha":296,"x_min":88,"x_max":149,"o":"m 149 732 l 149 0 l 88 0 l 88 732 l 149 732 z "},"":{"ha":465,"x_min":114,"x_max":397,"o":"m 272 732 l 272 0 l 211 0 l 211 732 l 272 732 m 144 821 l 294 933 l 397 936 l 114 725 l 144 821 z "},"":{"ha":465,"x_min":101,"x_max":381,"o":"m 283 732 l 283 0 l 222 0 l 222 732 l 283 732 m 381 726 l 101 933 l 206 931 l 354 819 l 381 726 z "},"":{"ha":621,"x_min":99,"x_max":504,"o":"m 336 732 l 336 0 l 275 0 l 275 732 l 336 732 m 129 790 l 279 906 l 329 906 l 479 793 l 504 703 l 304 847 l 99 693 l 129 790 z "},"":{"ha":465,"x_min":90,"x_max":314,"o":"m 233 732 l 233 0 l 172 0 l 172 732 l 233 732 m 128 921 q 158 909 147 921 q 168 882 168 897 q 158 853 168 864 q 128 842 147 842 q 101 853 111 842 q 90 882 90 864 q 101 909 90 897 q 128 921 111 921 m 275 921 q 303 909 293 921 q 314 882 314 897 q 303 853 314 864 q 275 842 293 842 q 247 853 257 842 q 236 882 236 864 q 247 909 236 897 q 275 921 257 921 z "},"":{"ha":763,"x_min":93,"x_max":646,"o":"m 646 721 l 646 -90 l 153 565 l 153 0 l 93 0 l 93 744 l 586 89 l 586 721 l 646 721 m 549 915 q 501 842 525 863 q 450 822 476 822 q 403 834 428 822 q 357 857 379 846 q 321 875 340 867 q 288 883 301 883 q 266 872 276 883 q 242 826 256 860 l 185 853 q 233 926 208 906 q 285 946 258 946 q 331 935 307 946 q 378 911 356 924 q 413 894 394 903 q 447 885 432 885 q 469 898 458 885 q 494 943 481 911 l 549 915 z "},"":{"ha":901,"x_min":67,"x_max":811,"o":"m 439 738 q 585 708 517 738 q 703 628 653 679 q 782 510 753 578 q 811 364 811 442 q 782 219 811 286 q 703 101 753 151 q 585 21 653 50 q 439 -8 517 -8 q 294 21 361 -8 q 176 101 226 50 q 96 219 125 151 q 67 364 67 286 q 96 510 67 442 q 176 628 125 578 q 294 708 226 679 q 439 738 361 738 m 751 364 q 727 486 751 429 q 660 585 703 543 q 560 652 617 628 q 439 676 503 676 q 317 652 374 676 q 217 585 260 628 q 151 486 175 543 q 126 364 126 429 q 151 242 126 299 q 217 144 175 186 q 317 77 260 101 q 439 53 374 53 q 560 77 503 53 q 660 144 617 101 q 727 242 703 186 q 751 364 751 299 m 326 849 l 476 961 l 579 964 l 296 753 l 326 849 z "},"":{"ha":901,"x_min":67,"x_max":811,"o":"m 439 738 q 585 708 517 738 q 703 628 653 679 q 782 510 753 578 q 811 364 811 442 q 782 219 811 286 q 703 101 753 151 q 585 21 653 50 q 439 -8 517 -8 q 294 21 361 -8 q 176 101 226 50 q 96 219 125 151 q 67 364 67 286 q 96 510 67 442 q 176 628 125 578 q 294 708 226 679 q 439 738 361 738 m 751 364 q 727 486 751 429 q 660 585 703 543 q 560 652 617 628 q 439 676 503 676 q 317 652 374 676 q 217 585 260 628 q 151 486 175 543 q 126 364 126 429 q 151 242 126 299 q 217 144 175 186 q 317 77 260 101 q 439 53 374 53 q 560 77 503 53 q 660 144 617 101 q 727 242 703 186 q 751 364 751 299 m 568 756 l 289 963 l 393 960 l 542 849 l 568 756 z "},"":{"ha":901,"x_min":67,"x_max":811,"o":"m 439 738 q 585 708 517 738 q 703 628 653 679 q 782 510 753 578 q 811 364 811 442 q 782 219 811 286 q 703 101 753 151 q 585 21 653 50 q 439 -8 517 -8 q 294 21 361 -8 q 176 101 226 50 q 96 219 125 151 q 67 364 67 286 q 96 510 67 442 q 176 628 125 578 q 294 708 226 679 q 439 738 361 738 m 751 364 q 727 486 751 429 q 660 585 703 543 q 560 652 617 628 q 439 676 503 676 q 317 652 374 676 q 217 585 260 628 q 151 486 175 543 q 126 364 126 429 q 151 242 126 299 q 217 144 175 186 q 317 77 260 101 q 439 53 374 53 q 560 77 503 53 q 660 144 617 101 q 727 242 703 186 q 751 364 751 299 m 264 846 l 414 961 l 464 961 l 614 849 l 639 758 l 439 903 l 233 749 l 264 846 z "},"":{"ha":901,"x_min":67,"x_max":811,"o":"m 439 738 q 585 708 517 738 q 703 628 653 679 q 782 510 753 578 q 811 364 811 442 q 782 219 811 286 q 703 101 753 151 q 585 21 653 50 q 439 -8 517 -8 q 294 21 361 -8 q 176 101 226 50 q 96 219 125 151 q 67 364 67 286 q 96 510 67 442 q 176 628 125 578 q 294 708 226 679 q 439 738 361 738 m 751 364 q 727 486 751 429 q 660 585 703 543 q 560 652 617 628 q 439 676 503 676 q 317 652 374 676 q 217 585 260 628 q 151 486 175 543 q 126 364 126 429 q 151 242 126 299 q 217 144 175 186 q 317 77 260 101 q 439 53 374 53 q 560 77 503 53 q 660 144 617 101 q 727 242 703 186 q 751 364 751 299 m 364 949 q 394 937 383 949 q 404 910 404 925 q 394 881 404 892 q 364 869 383 869 q 337 881 347 869 q 326 910 326 892 q 337 937 326 925 q 364 949 347 949 m 511 949 q 540 937 529 949 q 550 910 550 925 q 540 881 550 892 q 511 869 529 869 q 483 881 493 869 q 472 910 472 892 q 483 937 472 925 q 511 949 493 949 z "},"":{"ha":901,"x_min":67,"x_max":811,"o":"m 439 738 q 585 708 517 738 q 703 628 653 679 q 782 510 753 578 q 811 364 811 442 q 782 219 811 286 q 703 101 753 151 q 585 21 653 50 q 439 -8 517 -8 q 294 21 361 -8 q 176 101 226 50 q 96 219 125 151 q 67 364 67 286 q 96 510 67 442 q 176 628 125 578 q 294 708 226 679 q 439 738 361 738 m 751 364 q 727 486 751 429 q 660 585 703 543 q 560 652 617 628 q 439 676 503 676 q 317 652 374 676 q 217 585 260 628 q 151 486 175 543 q 126 364 126 429 q 151 242 126 299 q 217 144 175 186 q 317 77 260 101 q 439 53 374 53 q 560 77 503 53 q 660 144 617 101 q 727 242 703 186 q 751 364 751 299 m 619 942 q 572 869 596 889 q 521 849 547 849 q 474 860 499 849 q 428 883 450 872 q 392 901 411 893 q 358 910 372 910 q 337 898 347 910 q 313 853 326 886 l 256 879 q 304 952 279 932 q 356 972 329 972 q 402 961 378 972 q 449 938 426 950 q 484 920 465 929 q 518 911 503 911 q 540 924 529 911 q 565 969 551 938 l 619 942 z "},"":{"ha":776,"x_min":83,"x_max":672,"o":"m 379 -8 q 265 14 318 -8 q 171 75 211 36 q 107 165 131 114 q 83 275 83 217 l 83 731 l 142 731 l 142 275 q 160 188 142 229 q 211 117 179 147 q 287 70 243 88 q 379 53 331 53 q 469 70 426 53 q 543 117 511 88 q 593 188 575 147 q 611 275 611 229 l 611 731 l 672 731 l 672 275 q 649 165 672 217 q 585 75 625 114 q 492 14 546 36 q 379 -8 439 -8 m 268 849 l 418 961 l 521 964 l 238 753 l 268 849 z "},"":{"ha":776,"x_min":83,"x_max":672,"o":"m 379 -8 q 265 14 318 -8 q 171 75 211 36 q 107 165 131 114 q 83 275 83 217 l 83 731 l 142 731 l 142 275 q 160 188 142 229 q 211 117 179 147 q 287 70 243 88 q 379 53 331 53 q 469 70 426 53 q 543 117 511 88 q 593 188 575 147 q 611 275 611 229 l 611 731 l 672 731 l 672 275 q 649 165 672 217 q 585 75 625 114 q 492 14 546 36 q 379 -8 439 -8 m 518 756 l 239 963 l 343 960 l 492 849 l 518 756 z "},"":{"ha":776,"x_min":83,"x_max":672,"o":"m 379 -8 q 265 14 318 -8 q 171 75 211 36 q 107 165 131 114 q 83 275 83 217 l 83 731 l 142 731 l 142 275 q 160 188 142 229 q 211 117 179 147 q 287 70 243 88 q 379 53 331 53 q 469 70 426 53 q 543 117 511 88 q 593 188 575 147 q 611 275 611 229 l 611 731 l 672 731 l 672 275 q 649 165 672 217 q 585 75 625 114 q 492 14 546 36 q 379 -8 439 -8 m 206 847 l 356 963 l 406 963 l 556 850 l 581 760 l 381 904 l 175 750 l 206 847 z "},"":{"ha":776,"x_min":83,"x_max":672,"o":"m 379 -8 q 265 14 318 -8 q 171 75 211 36 q 107 165 131 114 q 83 275 83 217 l 83 731 l 142 731 l 142 275 q 160 188 142 229 q 211 117 179 147 q 287 70 243 88 q 379 53 331 53 q 469 70 426 53 q 543 117 511 88 q 593 188 575 147 q 611 275 611 229 l 611 731 l 672 731 l 672 275 q 649 165 672 217 q 585 75 625 114 q 492 14 546 36 q 379 -8 439 -8 m 304 949 q 334 937 324 949 q 344 910 344 925 q 334 881 344 892 q 304 869 324 869 q 277 881 288 869 q 267 910 267 892 q 277 937 267 925 q 304 949 288 949 m 451 949 q 480 937 469 949 q 490 910 490 925 q 480 881 490 892 q 451 869 469 869 q 423 881 433 869 q 413 910 413 892 q 423 937 413 925 q 451 949 433 949 z "},"":{"ha":1278,"x_min":28,"x_max":1235,"o":"m 683 374 l 683 856 l 650 856 q 567 733 607 792 q 489 615 528 674 q 410 497 450 557 q 328 374 371 438 l 683 374 m 1203 915 l 1203 856 l 744 856 l 744 556 l 1126 556 l 1126 494 l 744 494 l 744 60 l 1235 60 l 1235 0 l 683 0 l 683 313 l 289 313 l 78 -7 l 28 31 l 619 915 l 1203 915 z "},"":{"ha":1042,"x_min":28,"x_max":996,"o":"m 549 674 l 532 674 q 468 579 499 624 q 408 490 438 535 q 347 400 378 446 q 282 304 315 354 l 549 304 l 549 674 m 971 674 l 608 674 l 608 449 l 910 449 l 910 390 l 608 390 l 608 58 l 996 58 l 996 0 l 549 0 l 549 246 l 247 246 q 222 210 235 228 q 197 175 208 193 l 75 -7 l 28 29 l 500 732 l 971 732 l 971 674 z "},"":{"ha":1083,"x_min":76,"x_max":1036,"o":"m 1036 60 l 1036 0 l 443 0 q 300 28 367 0 q 183 107 233 57 q 105 224 133 157 q 76 367 76 290 q 105 510 76 443 q 183 626 133 576 q 300 703 233 675 q 444 732 367 732 l 1013 732 l 1013 674 l 649 674 l 649 457 l 892 457 l 892 400 l 649 400 l 649 60 l 1036 60 m 589 60 l 589 674 l 444 674 q 324 649 381 674 q 226 583 268 625 q 159 485 183 542 q 135 367 135 429 q 159 247 135 303 q 225 150 183 192 q 323 84 267 108 q 443 60 379 60 l 589 60 z "},"@":{"ha":1415,"x_min":-4,"x_max":1372,"o":"m 1372 604 q 1372 589 1372 600 q 1369 566 1371 578 q 1367 543 1368 554 q 1365 526 1365 532 q 1358 493 1363 510 q 1350 460 1354 476 q 1256 252 1319 346 q 1104 91 1192 158 q 910 -14 1017 24 q 685 -51 803 -51 q 410 5 538 -51 q 191 158 283 61 q 47 383 99 254 q 0 658 -4 513 q 3 664 3 660 q 29 831 6 751 q 99 985 53 910 q 138 1043 114 1011 q 190 1106 161 1075 q 248 1162 218 1136 q 306 1201 278 1188 l 307 1207 l 313 1207 l 315 1211 q 324 1215 319 1214 q 333 1219 329 1217 q 349 1230 342 1225 q 364 1240 357 1235 q 405 1260 383 1251 q 447 1276 426 1268 q 563 1309 504 1299 q 683 1319 622 1319 q 942 1270 817 1319 q 1164 1126 1068 1221 q 1225 1059 1196 1094 q 1278 983 1254 1024 q 1290 957 1285 971 q 1303 931 1296 943 q 1312 915 1307 922 q 1319 900 1317 908 q 1337 855 1331 878 q 1350 808 1343 832 q 1368 708 1364 754 q 1372 604 1372 661 m 1047 940 q 949 937 999 936 q 851 938 900 938 l 814 938 q 784 837 797 888 q 754 736 771 786 q 771 735 763 735 q 788 736 779 736 q 807 733 800 736 l 807 283 l 1008 283 l 1008 504 l 1161 504 q 1187 595 1172 550 q 1213 688 1201 640 l 1008 688 q 1009 702 1010 694 q 1008 717 1008 710 q 1008 726 1008 721 q 1011 733 1008 731 l 1182 733 q 1212 843 1194 789 q 1243 953 1229 897 l 1051 953 q 1047 940 1044 950 m 186 931 q 158 833 174 882 q 132 736 143 785 q 149 735 140 735 q 165 736 157 736 q 174 736 169 736 q 183 733 179 736 l 183 283 l 385 283 l 385 457 q 385 487 385 472 q 388 517 385 501 q 426 516 407 515 q 465 517 446 517 q 488 517 476 517 q 513 514 500 517 l 513 286 q 551 283 532 283 q 590 283 571 283 q 651 284 621 283 q 714 283 682 285 l 714 938 q 651 938 682 936 q 590 939 621 939 q 513 935 550 939 l 513 724 l 385 724 q 385 789 385 756 q 386 854 386 822 q 382 938 386 896 l 192 938 q 188 935 189 938 q 186 931 188 932 m 781 -87 q 777 -99 778 -93 q 772 -110 776 -104 q 764 -108 768 -110 q 754 -107 760 -107 q 750 -108 751 -107 q 763 -117 754 -115 q 778 -124 771 -118 q 782 -139 782 -131 q 778 -157 782 -149 q 749 -167 767 -167 q 724 -162 736 -167 l 724 -160 q 726 -148 724 -153 q 729 -136 728 -143 q 740 -140 735 -137 q 750 -142 744 -142 l 754 -142 q 747 -133 754 -135 q 735 -131 740 -132 q 726 -120 731 -124 q 721 -108 721 -117 q 735 -89 721 -94 q 760 -83 749 -83 q 781 -87 769 -83 m 256 -85 l 307 -85 l 307 -86 q 305 -98 308 -93 q 303 -110 301 -103 q 294 -110 299 -111 q 286 -110 290 -110 q 279 -112 281 -110 q 290 -116 282 -117 q 301 -115 297 -115 l 306 -115 q 301 -126 304 -122 q 300 -139 299 -131 l 279 -139 l 279 -167 l 265 -167 q 253 -164 256 -167 l 254 -114 q 249 -110 254 -112 q 252 -97 251 -103 q 256 -85 253 -92 m 342 -85 q 341 -101 342 -93 q 340 -118 340 -110 q 346 -142 340 -132 l 350 -142 q 357 -133 357 -142 q 357 -119 357 -125 l 357 -85 l 371 -85 q 382 -87 379 -85 l 383 -112 q 378 -149 383 -131 q 350 -167 374 -167 q 321 -154 335 -167 q 318 -134 318 -143 q 318 -114 318 -125 q 315 -110 318 -111 q 310 -110 313 -110 q 314 -97 313 -103 q 318 -85 315 -92 l 342 -85 m 418 -87 q 417 -113 418 -100 q 418 -139 417 -126 q 424 -142 419 -142 q 432 -142 429 -142 l 435 -142 q 431 -154 432 -149 q 426 -167 429 -160 l 393 -167 l 393 -114 q 390 -111 393 -111 q 385 -110 388 -111 q 389 -98 388 -104 q 393 -85 390 -92 l 407 -85 q 418 -87 415 -85 m 465 -85 q 465 -112 465 -99 q 465 -139 464 -125 q 470 -142 465 -142 q 478 -142 475 -142 l 481 -142 l 481 -144 q 478 -156 482 -151 q 475 -167 475 -160 q 465 -167 469 -167 q 454 -168 460 -168 q 439 -164 444 -168 l 440 -115 q 435 -110 440 -110 q 438 -97 438 -103 q 442 -85 439 -92 l 465 -85 m 510 -85 l 535 -85 q 541 -101 538 -93 q 546 -118 544 -108 q 554 -102 553 -112 q 558 -85 556 -92 l 585 -85 q 573 -126 581 -106 q 558 -167 565 -147 l 538 -167 q 523 -126 531 -147 q 510 -85 515 -106 m 589 -85 l 643 -85 q 638 -97 640 -92 q 636 -110 636 -103 q 629 -110 633 -111 q 622 -110 625 -110 q 615 -112 617 -110 q 626 -116 618 -117 q 638 -115 633 -115 l 642 -115 q 639 -126 640 -121 q 636 -136 638 -131 l 615 -136 q 626 -139 618 -140 q 638 -139 633 -137 l 642 -139 l 642 -140 q 639 -153 642 -147 q 633 -167 636 -160 l 589 -167 l 589 -112 q 586 -110 589 -110 q 582 -110 583 -111 q 586 -98 585 -104 q 589 -85 588 -92 m 714 -117 q 712 -131 714 -124 q 703 -142 710 -137 q 708 -153 703 -149 q 714 -165 714 -157 l 714 -167 q 703 -168 710 -168 q 687 -165 694 -168 q 679 -151 679 -162 q 676 -156 676 -153 q 676 -161 676 -158 q 675 -167 676 -167 l 651 -167 l 651 -114 q 649 -111 651 -111 q 646 -108 646 -111 q 649 -97 646 -101 q 654 -85 651 -92 l 665 -85 q 699 -88 685 -83 q 714 -117 714 -93 m 678 -124 l 681 -124 q 688 -115 689 -124 l 688 -112 q 683 -111 685 -112 q 679 -110 682 -110 l 678 -110 l 678 -124 m 814 -85 l 814 -167 l 790 -167 l 792 -114 q 789 -110 792 -111 q 783 -110 786 -110 q 788 -97 786 -103 q 790 -85 789 -92 l 814 -85 m 853 -87 q 864 -85 856 -85 q 878 -88 871 -85 q 892 -94 885 -92 q 904 -124 899 -106 q 892 -153 901 -139 q 865 -167 883 -167 q 834 -153 846 -167 q 822 -121 822 -140 q 832 -99 822 -108 q 853 -87 842 -89 m 874 -112 q 863 -110 868 -110 q 852 -113 857 -110 q 847 -124 847 -117 q 867 -142 847 -142 l 868 -142 q 878 -125 878 -135 q 874 -112 878 -119 m 936 -85 q 944 -97 940 -92 q 951 -110 949 -103 q 954 -102 954 -108 q 954 -92 954 -96 q 957 -85 954 -86 l 979 -85 l 979 -167 l 958 -167 q 948 -151 953 -160 q 939 -133 943 -142 q 935 -147 935 -137 q 936 -162 936 -156 l 936 -167 l 913 -167 l 913 -114 q 910 -111 913 -111 q 904 -110 907 -111 q 908 -97 907 -103 q 913 -85 910 -92 l 936 -85 m 1044 -87 q 1056 -83 1049 -83 q 1069 -87 1063 -83 q 1083 -94 1076 -92 q 1092 -110 1088 -101 q 1096 -126 1096 -118 q 1084 -155 1096 -144 q 1056 -165 1072 -165 q 1025 -154 1036 -165 q 1014 -124 1014 -143 q 1024 -100 1014 -111 q 1044 -87 1033 -89 m 1056 -142 q 1071 -125 1071 -142 q 1065 -114 1071 -118 q 1054 -110 1060 -110 q 1050 -112 1049 -110 q 1039 -126 1039 -114 q 1056 -142 1039 -142 m 1126 -85 q 1136 -97 1132 -92 q 1143 -110 1140 -103 q 1145 -102 1146 -108 q 1144 -92 1144 -96 q 1147 -85 1144 -87 l 1171 -85 l 1171 -167 l 1150 -167 q 1141 -151 1147 -158 q 1132 -136 1135 -144 q 1129 -147 1128 -139 q 1131 -160 1131 -156 l 1129 -164 q 1118 -167 1126 -167 l 1104 -167 l 1104 -114 q 1101 -111 1104 -111 q 1099 -107 1099 -111 q 1101 -96 1099 -100 q 1104 -85 1104 -92 l 1126 -85 m 706 -219 q 703 -233 704 -226 q 699 -247 701 -240 l 678 -247 q 688 -250 681 -251 q 699 -250 696 -249 l 703 -250 q 703 -252 703 -251 q 704 -254 704 -253 q 702 -262 704 -258 q 700 -271 700 -267 q 693 -272 697 -272 q 685 -271 689 -271 q 678 -274 679 -271 q 689 -276 681 -276 q 701 -275 697 -275 l 706 -276 q 702 -289 703 -283 q 699 -301 701 -294 l 651 -301 l 651 -251 q 649 -248 651 -249 q 646 -244 646 -247 q 649 -233 646 -242 q 654 -221 653 -224 l 663 -222 q 681 -220 672 -222 q 700 -218 690 -218 l 706 -219 m 768 -219 q 760 -247 765 -235 l 739 -247 q 748 -253 739 -254 q 761 -251 757 -251 q 763 -252 763 -251 q 765 -253 764 -253 q 757 -276 764 -264 l 739 -276 l 739 -301 l 714 -301 q 713 -283 711 -292 q 714 -262 714 -274 q 711 -250 714 -256 q 708 -242 708 -244 q 713 -233 713 -239 q 717 -221 713 -226 l 725 -222 q 743 -220 735 -222 q 761 -218 751 -218 l 768 -219 m 993 -219 q 989 -237 990 -226 q 975 -247 988 -249 l 975 -301 l 949 -301 l 949 -250 q 944 -247 949 -246 q 938 -247 940 -247 l 936 -247 q 938 -234 936 -240 q 940 -221 940 -228 l 949 -222 q 967 -220 958 -222 q 986 -218 976 -218 l 993 -219 m 1024 -304 l 1015 -304 l 1015 -301 q 1003 -300 1010 -301 q 996 -292 996 -299 q 997 -276 1000 -285 q 1003 -274 1003 -274 q 1013 -276 1008 -274 q 1024 -279 1018 -279 l 1026 -278 q 1021 -272 1026 -274 q 1009 -267 1015 -269 q 998 -260 1003 -264 q 993 -244 993 -256 q 1006 -225 993 -231 q 1029 -219 1018 -219 q 1050 -224 1039 -219 l 1050 -228 q 1048 -235 1050 -233 q 1047 -244 1046 -237 q 1043 -247 1044 -247 q 1035 -246 1039 -247 q 1028 -244 1032 -244 q 1021 -247 1022 -244 q 1043 -256 1032 -250 q 1054 -276 1054 -262 q 1044 -295 1054 -286 q 1024 -304 1033 -304 m 1129 -304 l 1122 -304 l 1122 -301 q 1094 -288 1104 -300 q 1085 -260 1085 -276 q 1098 -231 1085 -242 q 1128 -221 1111 -221 q 1153 -229 1142 -221 q 1147 -241 1150 -236 q 1143 -253 1144 -246 q 1126 -247 1138 -247 q 1118 -249 1122 -247 q 1111 -256 1114 -250 l 1111 -268 q 1116 -274 1111 -272 q 1124 -275 1121 -275 q 1133 -274 1129 -275 q 1143 -272 1138 -272 q 1144 -274 1144 -272 q 1148 -283 1146 -279 q 1153 -292 1150 -286 q 1142 -299 1150 -299 q 1129 -304 1135 -300 m 111 -221 l 138 -221 q 140 -235 139 -228 q 142 -250 142 -243 q 147 -236 144 -243 q 150 -221 150 -229 l 171 -221 q 174 -235 174 -228 q 178 -250 175 -243 q 183 -236 183 -244 q 186 -221 182 -228 l 238 -221 l 238 -225 q 240 -236 238 -232 q 240 -247 242 -240 q 248 -236 247 -244 q 251 -221 249 -228 l 271 -221 q 274 -236 271 -229 q 276 -250 278 -243 q 282 -236 282 -244 q 285 -221 282 -228 l 336 -221 q 339 -235 339 -228 q 342 -250 339 -243 q 347 -236 344 -243 q 349 -221 349 -229 l 369 -221 q 374 -235 372 -228 q 378 -250 375 -243 q 382 -236 382 -244 q 385 -221 382 -228 l 408 -221 q 401 -262 407 -242 q 393 -301 396 -282 l 367 -301 l 367 -299 q 365 -286 368 -292 q 363 -274 361 -281 q 356 -287 357 -279 q 354 -301 354 -294 l 328 -301 q 320 -266 324 -283 q 310 -232 317 -249 q 294 -301 299 -268 l 269 -301 q 265 -288 267 -294 q 261 -276 264 -282 q 256 -288 256 -281 q 253 -301 257 -296 l 228 -301 q 220 -265 225 -282 q 213 -229 215 -249 q 202 -265 204 -246 q 194 -301 200 -283 l 168 -301 l 168 -299 q 165 -286 169 -292 q 163 -274 161 -281 q 157 -287 158 -279 q 156 -301 156 -294 l 129 -301 q 120 -262 126 -282 q 111 -221 114 -242 m 468 -221 l 468 -247 l 481 -247 q 483 -237 485 -244 q 483 -225 482 -229 l 483 -221 q 491 -222 488 -222 q 499 -221 494 -221 q 504 -221 501 -221 q 510 -224 507 -221 l 510 -301 l 483 -301 l 483 -274 l 471 -274 q 467 -285 467 -276 q 468 -297 468 -293 l 468 -301 l 442 -301 l 442 -256 q 443 -251 443 -254 q 440 -248 443 -249 q 438 -244 438 -247 q 440 -233 438 -237 q 442 -221 442 -228 l 468 -221 m 513 -221 l 538 -221 l 546 -237 q 549 -230 549 -235 q 553 -221 550 -225 l 579 -221 q 572 -242 576 -233 q 564 -258 568 -250 q 558 -276 560 -267 q 558 -301 556 -286 l 532 -301 q 531 -267 532 -276 q 526 -252 529 -257 q 520 -242 524 -247 q 513 -221 517 -237 m 610 -286 l 610 -301 l 585 -301 l 585 -250 q 581 -247 585 -247 q 576 -247 578 -247 q 581 -234 579 -240 q 585 -221 582 -228 l 597 -221 q 628 -227 613 -221 q 643 -253 643 -233 q 628 -283 643 -268 l 626 -283 q 619 -285 621 -283 q 610 -286 617 -287 m 610 -260 l 613 -261 q 618 -254 618 -261 q 613 -247 618 -247 l 610 -247 l 610 -260 m 811 -304 l 811 -301 q 782 -289 792 -301 q 772 -257 772 -276 q 785 -232 772 -242 q 814 -222 799 -222 q 844 -233 832 -222 q 856 -262 856 -244 q 841 -292 856 -278 q 811 -304 826 -307 m 822 -247 q 819 -247 819 -247 q 815 -246 818 -246 q 799 -262 799 -246 q 804 -276 799 -268 q 808 -277 807 -276 q 813 -278 810 -278 q 829 -260 826 -278 q 826 -253 828 -257 q 822 -247 824 -250 m 889 -221 q 895 -235 890 -229 q 903 -247 900 -240 q 905 -237 906 -244 q 904 -225 904 -229 l 904 -221 l 931 -221 l 931 -301 l 907 -301 q 899 -285 903 -293 q 886 -271 894 -276 l 886 -301 l 864 -301 l 864 -250 q 861 -247 864 -247 q 856 -247 858 -247 q 860 -234 858 -240 q 864 -221 861 -228 l 889 -221 m 1194 -304 l 1194 -301 q 1168 -290 1179 -301 q 1157 -262 1157 -278 q 1167 -233 1157 -244 q 1197 -222 1178 -222 q 1226 -233 1213 -222 q 1239 -260 1239 -243 q 1226 -292 1239 -278 q 1194 -304 1213 -306 m 1194 -278 q 1213 -268 1207 -278 l 1213 -264 q 1208 -250 1214 -254 q 1194 -247 1203 -246 l 1189 -247 q 1183 -261 1183 -253 q 1194 -278 1183 -274 m 1246 -221 l 1272 -221 q 1277 -230 1275 -225 q 1285 -237 1279 -235 q 1292 -230 1289 -235 q 1297 -221 1294 -225 l 1324 -221 l 1324 -301 l 1297 -301 l 1297 -265 q 1296 -264 1297 -264 q 1291 -269 1293 -264 q 1288 -276 1289 -274 l 1286 -276 q 1278 -270 1279 -276 q 1272 -262 1278 -264 l 1272 -301 l 1246 -301 l 1246 -251 q 1243 -248 1246 -249 q 1240 -244 1240 -247 q 1243 -233 1240 -239 q 1246 -221 1246 -228 m 421 -304 q 410 -289 410 -299 q 424 -276 410 -276 q 436 -289 436 -276 q 421 -304 436 -304 m 1071 -304 l 1068 -304 q 1060 -298 1063 -304 q 1057 -289 1057 -292 q 1071 -275 1057 -275 q 1078 -279 1076 -275 q 1083 -286 1081 -283 l 1083 -290 q 1078 -299 1083 -297 q 1071 -304 1074 -301 z "},"!":{"ha":228,"x_min":124,"x_max":193,"o":"m 160 76 q 183 67 174 76 q 193 42 193 57 q 183 14 193 22 q 160 6 174 6 q 124 42 124 6 q 160 76 124 76 m 190 124 l 129 124 l 129 914 l 190 914 l 190 124 z "},"":{"ha":258,"x_min":60,"x_max":193,"o":"m 125 483 q 174 463 156 483 q 193 415 193 443 q 174 367 193 385 q 125 349 156 349 q 78 367 97 349 q 60 415 60 385 q 78 463 60 443 q 125 483 97 483 z "},"":{"ha":1122,"x_min":32,"x_max":1040,"o":"m 528 201 q 506 112 528 151 q 448 46 485 72 q 362 6 411 19 q 257 -8 313 -8 q 206 -5 233 -8 q 148 5 178 -1 q 88 19 118 11 q 32 36 58 28 l 47 89 q 147 66 96 76 q 235 56 199 56 l 279 56 q 351 65 317 56 q 410 94 385 75 q 451 142 436 114 q 467 208 467 171 q 459 246 467 226 q 442 278 451 265 q 408 308 428 296 q 366 328 389 321 q 319 340 343 336 q 275 344 296 343 q 198 353 236 346 q 124 379 160 360 q 58 444 83 403 q 32 538 32 486 q 85 665 32 613 q 232 733 139 717 q 270 739 244 736 q 328 742 296 742 q 368 738 344 742 q 416 728 392 735 q 464 715 440 722 q 506 700 488 707 l 489 646 q 393 672 435 664 q 301 679 351 679 q 230 671 267 679 q 163 645 193 663 q 113 601 132 628 q 93 536 93 574 q 110 482 93 513 q 150 435 126 451 q 202 414 176 418 q 256 407 228 410 q 267 406 261 407 q 278 406 272 406 q 358 394 315 403 q 440 360 400 385 q 503 290 479 333 q 528 201 528 246 m 1040 201 q 1019 112 1040 151 q 960 46 997 72 q 874 6 924 19 q 769 -8 825 -8 q 718 -5 746 -8 q 660 5 690 -1 q 601 19 631 11 q 544 36 571 28 l 560 89 q 660 66 608 76 q 747 56 711 56 l 792 56 q 863 65 829 56 q 923 94 897 75 q 964 142 949 114 q 979 208 979 171 q 972 246 979 226 q 954 278 964 265 q 921 308 940 296 q 878 328 901 321 q 832 340 856 336 q 788 344 808 343 q 710 353 749 346 q 636 379 672 360 q 570 444 596 403 q 544 538 544 486 q 598 665 544 613 q 744 733 651 717 q 783 739 757 736 q 840 742 808 742 q 881 738 857 742 q 928 728 904 735 q 976 715 953 722 q 1018 700 1000 707 l 1001 646 q 906 672 947 664 q 814 679 864 679 q 742 671 779 679 q 675 645 706 663 q 625 601 644 628 q 606 536 606 574 q 622 482 606 513 q 663 435 639 451 q 715 414 689 418 q 768 407 740 410 q 779 406 774 407 q 790 406 785 406 q 870 394 828 403 q 953 360 913 385 q 1016 290 992 333 q 1040 201 1040 246 z "},"":{"ha":619,"x_min":31,"x_max":574,"o":"m 271 296 l 31 718 l 83 743 l 301 360 l 519 743 l 574 718 l 331 296 l 331 0 l 269 0 l 271 296 m 228 949 q 258 937 247 949 q 268 910 268 925 q 258 881 268 892 q 228 869 247 869 q 201 881 211 869 q 190 910 190 892 q 201 937 190 925 q 228 949 211 949 m 375 949 q 403 937 393 949 q 414 910 414 925 q 403 881 414 892 q 375 869 393 869 q 347 881 357 869 q 336 910 336 892 q 347 937 336 925 q 375 949 357 949 z "},"":{"ha":883,"x_min":92,"x_max":769,"o":"m 465 536 q 453 507 465 517 q 427 497 442 497 q 401 507 413 497 q 389 536 389 517 q 401 565 389 556 q 427 575 413 575 q 453 565 442 575 q 465 536 465 556 m 167 -257 q 110 -162 128 -212 q 92 -60 92 -111 q 113 56 92 -1 q 175 158 135 113 q 272 236 215 204 q 396 276 328 268 l 396 457 l 458 457 l 458 218 l 429 218 q 320 188 371 214 q 233 124 269 163 q 175 38 196 86 q 154 -60 154 -10 q 170 -145 154 -103 q 219 -224 186 -187 q 308 -287 260 -268 q 408 -306 357 -306 q 513 -285 461 -306 q 605 -228 564 -265 q 673 -142 646 -192 q 704 -35 700 -93 l 769 -37 q 729 -169 763 -108 q 646 -273 696 -229 q 534 -342 596 -317 q 407 -367 472 -367 q 279 -341 342 -367 q 167 -257 217 -315 z "},"":{"ha":226,"x_min":25,"x_max":94,"o":"m 61 471 q 85 481 75 471 q 94 506 94 490 q 85 533 94 525 q 61 542 75 542 q 25 506 25 542 q 61 471 25 471 m 92 424 l 31 424 l 31 -367 l 92 -367 l 92 424 z "},"":{"ha":453,"x_min":21,"x_max":421,"o":"m 21 1150 l 222 1000 l 421 1144 l 396 1054 l 246 942 l 196 942 l 47 1056 l 21 1150 z "},"":{"ha":914,"x_min":139,"x_max":758,"o":"m 758 250 q 731 139 758 188 q 658 57 704 90 q 551 7 613 24 q 419 -10 489 -10 q 355 -6 390 -10 q 283 6 319 -1 q 209 23 246 13 q 139 44 172 33 l 164 96 l 201 88 q 242 78 218 83 q 292 67 265 72 q 344 58 318 61 q 390 54 369 54 l 449 54 q 542 68 497 54 q 620 108 586 82 q 674 172 654 133 q 694 260 694 210 q 684 308 694 282 q 661 350 674 333 q 615 394 640 378 q 561 420 589 411 q 504 433 533 429 q 444 439 475 436 q 348 448 396 442 q 254 482 300 454 l 256 482 q 175 561 207 510 q 143 676 143 613 q 210 831 143 767 q 389 918 276 896 q 436 924 404 921 q 511 926 468 926 q 562 922 533 926 q 620 911 590 918 q 678 896 650 904 q 731 878 707 888 l 707 821 q 644 841 674 833 q 588 854 615 849 q 535 862 561 860 q 478 864 508 864 q 384 853 432 864 q 297 819 336 842 q 231 760 257 796 q 206 675 206 725 q 227 601 206 642 q 281 540 249 561 q 362 509 321 515 q 446 500 403 503 q 548 487 494 497 q 649 446 601 476 q 728 360 699 414 q 758 250 758 306 m 254 1185 l 456 1035 l 654 1179 l 629 1089 l 479 976 l 429 976 l 281 1090 l 254 1185 z "},"":{"ha":582,"x_min":50,"x_max":546,"o":"m 546 201 q 524 112 546 151 q 466 46 503 72 q 380 6 429 19 q 275 -8 331 -8 q 224 -5 253 -8 q 166 5 196 -1 q 106 19 136 11 q 50 36 76 28 l 67 89 q 166 66 115 76 q 253 56 217 56 l 297 56 q 369 65 335 56 q 428 94 403 75 q 469 142 454 114 q 485 208 485 171 q 477 246 485 226 q 461 278 469 265 q 427 308 447 296 q 384 328 407 321 q 338 340 361 336 q 293 344 314 343 q 217 353 254 346 q 143 379 179 360 q 76 444 103 403 q 50 538 50 486 q 103 665 50 613 q 250 733 157 717 q 288 739 263 736 q 346 742 314 742 q 386 738 363 742 q 434 728 410 735 q 482 715 458 722 q 524 700 506 707 l 508 646 q 413 672 454 664 q 319 679 371 679 q 248 671 285 679 q 181 645 211 663 q 131 601 150 628 q 111 536 111 574 q 128 482 111 513 q 168 435 144 451 q 221 414 194 418 q 274 407 247 410 q 285 406 279 407 q 296 406 292 406 q 376 394 333 403 q 460 360 418 385 q 522 290 497 333 q 546 201 546 246 m 107 1024 l 308 874 l 507 1018 l 482 928 l 332 815 l 282 815 l 133 929 l 107 1024 z "},"":{"ha":1035,"x_min":204,"x_max":936,"o":"m 539 368 l 204 906 l 260 932 l 571 435 l 882 932 l 936 906 l 603 368 q 602 184 603 281 q 601 0 601 88 l 540 0 l 539 368 m 479 1007 l 629 1119 l 732 1122 l 449 911 l 479 1007 z "},"":{"ha":796,"x_min":129,"x_max":672,"o":"m 369 296 l 129 718 l 182 743 l 400 360 l 618 743 l 672 718 l 429 296 l 429 0 l 368 0 l 369 296 m 307 849 l 457 961 l 560 964 l 276 753 l 307 849 z "},"":{"ha":797,"x_min":94,"x_max":685,"o":"m 685 385 l 94 385 l 94 446 l 685 446 l 685 385 z "},"":{"ha":246,"x_min":88,"x_max":149,"o":"m 149 1015 l 149 503 l 88 503 l 88 1015 l 149 1015 m 149 331 l 149 -181 l 88 -181 l 88 331 l 149 331 z "},"|":{"ha":294,"x_min":88,"x_max":149,"o":"m 149 1015 l 149 -181 l 88 -181 l 88 1015 l 149 1015 z "},"\\":{"ha":735,"x_min":-19,"x_max":739,"o":"m 49 1015 l 739 0 l 671 0 l -19 1015 l 49 1015 z "},"-":{"ha":771,"x_min":94,"x_max":685,"o":"m 685 385 l 94 385 l 94 446 l 685 446 l 685 385 z "},"":{"ha":903,"x_min":94,"x_max":788,"o":"m 788 385 l 94 385 l 94 446 l 788 446 l 788 385 z "},"":{"ha":1006,"x_min":96,"x_max":886,"o":"m 886 385 l 96 385 l 96 446 l 886 446 l 886 385 z "},"":{"ha":806,"x_min":129,"x_max":719,"o":"m 429 275 q 458 263 447 275 q 469 236 469 251 q 458 206 469 217 q 429 196 447 196 q 401 206 413 196 q 390 236 390 217 q 401 263 390 251 q 429 275 413 275 m 429 653 q 458 641 447 653 q 469 613 469 629 q 458 584 469 594 q 429 574 447 574 q 401 584 413 574 q 390 613 390 594 q 401 641 390 629 q 429 653 413 653 m 719 385 l 129 385 l 129 446 l 719 446 l 719 385 z "},"%":{"ha":1135,"x_min":64,"x_max":1043,"o":"m 928 1015 l 238 0 l 169 0 l 860 1015 l 928 1015 m 514 717 q 498 606 514 660 q 452 512 482 553 q 381 446 422 471 q 290 421 340 421 q 199 446 240 421 q 128 512 158 471 q 81 606 97 553 q 64 717 64 660 q 81 828 64 774 q 128 924 97 882 q 199 991 158 965 q 290 1017 240 1017 q 381 991 340 1017 q 452 924 422 965 q 498 828 482 882 q 514 717 514 774 m 453 717 q 441 804 453 761 q 408 881 429 847 q 358 935 388 914 q 290 956 328 956 q 224 935 254 956 q 171 881 193 914 q 136 804 149 847 q 124 717 124 761 q 136 632 124 674 q 171 557 149 590 q 224 503 193 524 q 290 482 254 482 q 358 503 328 482 q 408 557 388 524 q 441 632 429 590 q 453 717 453 674 m 1043 285 q 1027 174 1043 228 q 981 79 1011 121 q 910 13 951 38 q 819 -12 869 -12 q 729 13 771 -12 q 658 79 688 38 q 611 174 628 121 q 594 285 594 228 q 611 396 594 342 q 658 492 628 450 q 729 558 688 533 q 819 583 771 583 q 910 558 869 583 q 981 492 951 533 q 1027 396 1011 450 q 1043 285 1043 342 m 982 285 q 970 371 982 328 q 938 447 958 414 q 887 501 917 481 q 819 522 857 522 q 753 501 783 522 q 701 447 722 481 q 667 371 679 414 q 654 285 654 328 q 667 199 654 242 q 701 124 679 157 q 753 69 722 90 q 819 49 783 49 q 887 69 857 49 q 938 124 917 90 q 970 199 958 157 q 982 285 982 242 z "},"":{"ha":567,"x_min":50,"x_max":461,"o":"m 461 519 l 461 458 l 315 458 l 264 324 l 461 324 l 461 263 l 240 263 l 190 132 l 135 154 l 175 263 l 50 263 l 50 324 l 199 324 l 250 458 l 50 458 l 50 519 l 271 519 l 321 640 l 376 618 l 338 519 l 461 519 z "},"_":{"ha":903,"x_min":94,"x_max":788,"o":"m 788 -35 l 94 -35 l 94 26 l 788 26 l 788 -35 z "},"":{"ha":969,"x_min":58,"x_max":888,"o":"m 431 915 q 608 879 525 915 q 753 781 692 843 q 851 635 815 718 q 888 457 888 551 q 851 279 888 363 q 753 134 815 196 q 608 36 692 72 q 431 0 525 0 l 153 0 l 153 482 l 58 482 l 58 543 l 153 543 l 153 915 l 431 915 m 569 482 l 214 482 l 214 61 l 431 61 q 585 92 513 61 q 711 177 657 124 q 797 303 765 231 q 828 457 828 375 q 797 612 828 539 q 711 739 765 685 q 585 824 657 793 q 431 856 513 856 l 214 856 l 214 543 l 569 543 l 569 482 z "},"":{"ha":814,"x_min":14,"x_max":801,"o":"m 488 624 l 271 422 l 271 63 l 801 63 l 801 1 l 210 1 l 210 368 q 142 303 178 336 q 75 243 107 271 l 14 271 l 210 449 l 210 915 l 271 915 l 271 503 q 349 577 308 539 q 426 649 390 615 l 488 624 z "},"":{"ha":663,"x_min":18,"x_max":650,"o":"m 406 496 l 233 333 l 233 61 l 650 61 l 650 1 l 172 1 l 172 279 q 122 233 146 254 q 75 189 99 213 l 18 218 l 172 360 l 172 731 l 233 731 l 233 415 q 291 470 261 443 q 349 524 321 497 l 406 496 z "},"":{"ha":1029,"x_min":-11,"x_max":740,"o":"m 740 61 l 740 0 l -11 0 l 596 854 l 22 854 l 22 915 l 715 915 l 107 61 l 740 61 m 160 1185 l 361 1035 l 560 1179 l 535 1089 l 385 976 l 335 976 l 186 1090 l 160 1185 z "},"":{"ha":615,"x_min":-10,"x_max":596,"o":"m 596 61 l 596 0 l -10 0 l 465 671 l 19 671 l 19 731 l 582 731 l 107 61 l 596 61 m 107 1028 l 308 878 l 507 1022 l 482 932 l 332 819 l 282 819 l 133 933 l 107 1028 z "},"":{"ha":649,"x_min":56,"x_max":581,"o":"m 115 692 l 315 461 l 519 692 l 575 667 l 354 418 q 492 262 438 322 q 581 165 547 201 l 518 147 l 317 375 l 117 147 l 56 165 l 276 417 l 60 667 l 115 692 z "},"":{"ha":253,"x_min":50,"x_max":214,"o":"m 214 931 l 113 708 l 50 738 l 126 900 l 214 931 z "},"":{"ha":1636,"x_min":81,"x_max":1551,"o":"m 944 1015 l 253 0 l 186 0 l 876 1015 l 944 1015 m 529 717 q 513 606 529 660 q 468 512 497 553 q 398 446 439 471 q 307 421 357 421 q 216 446 257 421 q 144 512 175 471 q 97 606 114 553 q 81 717 81 660 q 97 828 81 774 q 144 924 114 882 q 216 991 175 965 q 307 1017 257 1017 q 398 991 357 1017 q 468 924 439 965 q 513 828 497 882 q 529 717 529 774 m 468 717 q 457 804 468 761 q 425 881 446 847 q 374 935 404 914 q 307 956 344 956 q 240 935 271 956 q 188 881 210 914 q 153 804 165 847 q 140 717 140 761 q 153 632 140 674 q 188 557 165 590 q 240 503 210 524 q 307 482 271 482 q 374 503 344 482 q 425 557 404 524 q 457 632 446 590 q 468 717 468 674 m 1060 285 q 1044 174 1060 228 q 998 79 1028 121 q 927 13 968 38 q 836 -12 886 -12 q 746 13 788 -12 q 674 79 704 38 q 628 174 644 121 q 611 285 611 228 q 628 396 611 342 q 674 492 644 450 q 746 558 704 533 q 836 583 788 583 q 927 558 886 583 q 998 492 968 533 q 1044 396 1028 450 q 1060 285 1060 342 m 999 285 q 987 371 999 328 q 954 447 975 414 q 903 501 933 481 q 836 522 874 522 q 769 501 800 522 q 717 447 739 481 q 683 371 696 414 q 671 285 671 328 q 683 199 671 242 q 717 124 696 157 q 769 69 739 90 q 836 49 800 49 q 903 69 874 49 q 954 124 933 90 q 987 199 975 157 q 999 285 999 242 m 1551 285 q 1535 174 1551 228 q 1490 79 1519 121 q 1419 13 1460 38 q 1328 -12 1378 -12 q 1238 13 1279 -12 q 1166 79 1196 38 q 1119 174 1136 121 q 1103 285 1103 228 q 1119 396 1103 342 q 1166 492 1136 450 q 1238 558 1196 533 q 1328 583 1279 583 q 1419 558 1378 583 q 1490 492 1460 533 q 1535 396 1519 450 q 1551 285 1551 342 m 1490 285 q 1478 371 1490 328 q 1446 447 1467 414 q 1395 501 1425 481 q 1328 522 1365 522 q 1261 501 1292 522 q 1208 447 1231 481 q 1174 371 1186 414 q 1163 285 1163 328 q 1174 199 1163 242 q 1208 124 1186 157 q 1261 69 1231 90 q 1328 49 1292 49 q 1395 69 1365 49 q 1446 124 1425 90 q 1478 199 1467 157 q 1490 285 1490 242 z "},"":{"ha":838,"x_min":33,"x_max":786,"o":"m 661 910 l 579 700 q 729 565 672 654 q 786 364 786 476 q 757 219 786 286 q 676 101 728 151 q 557 22 625 51 q 411 -7 489 -7 q 355 -3 382 -7 q 304 7 328 0 l 268 -86 l 268 -85 q 244 -145 257 -112 q 221 -206 231 -178 l 156 -206 l 249 28 q 92 160 150 71 q 33 364 33 249 q 63 510 33 442 q 144 630 93 579 q 263 710 194 681 q 411 739 332 739 q 467 734 439 739 q 521 722 496 729 q 559 817 539 768 q 596 910 579 865 l 661 910 m 96 364 q 144 200 96 275 q 272 86 193 125 l 499 663 q 455 673 478 669 q 411 676 432 676 q 288 652 346 676 q 188 585 231 628 q 120 485 144 542 q 96 364 96 428 m 725 364 q 678 526 725 454 q 554 639 631 599 l 328 64 q 368 57 347 60 q 411 54 389 54 q 532 78 475 54 q 632 145 589 103 q 700 244 675 188 q 725 364 725 300 z "},"":{"ha":596,"x_min":-4,"x_max":588,"o":"m 588 625 l 321 625 l 321 -181 l 260 -181 l 260 625 l -4 625 l -4 686 l 260 686 l 260 1015 l 321 1015 l 321 686 l 588 686 l 588 625 z "},"":{"ha":596,"x_min":-4,"x_max":588,"o":"m 321 353 l 588 353 l 588 292 l 321 292 l 321 -181 l 260 -181 l 260 292 l -4 292 l -4 353 l 260 353 l 260 625 l -4 625 l -4 686 l 260 686 l 260 1015 l 321 1015 l 321 686 l 588 686 l 588 625 l 321 625 l 321 353 z "},">":{"ha":768,"x_min":57,"x_max":783,"o":"m 783 418 l 82 93 l 57 147 l 640 418 q 348 554 496 485 q 57 689 200 624 l 82 743 l 783 418 z "},"":{"ha":311,"x_min":89,"x_max":261,"o":"m 89 849 l 89 1017 l 153 1017 l 153 907 l 89 849 m 197 849 l 197 1017 l 261 1017 l 261 907 l 197 849 z "},"":{"ha":314,"x_min":78,"x_max":264,"o":"m 200 904 l 200 1017 l 264 1017 l 264 846 l 200 904 m 78 904 l 78 1017 l 142 1017 l 142 846 l 78 904 z "},"":{"ha":235,"x_min":88,"x_max":151,"o":"m 88 849 l 88 1017 l 151 1017 l 151 907 l 88 849 z "},"":{"ha":349,"x_min":-7,"x_max":347,"o":"m 201 703 l 201 561 l 347 561 l 347 503 l 201 503 l 201 351 l 143 351 l 143 503 l -7 503 l -7 561 l 143 561 l 143 703 l 201 703 m 347 261 l -7 261 l -7 319 l 347 319 l 347 261 z "},"":{"ha":714,"x_min":-31,"x_max":696,"o":"m 671 928 l 696 874 l 113 603 q 405 467 257 536 q 696 332 553 397 l 671 278 l -31 603 l 671 928 m 692 146 l -6 146 l -6 207 l 692 207 l 692 146 z "},"":{"ha":714,"x_min":3,"x_max":729,"o":"m 729 603 l 28 278 l 3 332 l 586 603 q 294 739 442 669 q 3 874 146 808 l 28 928 l 729 603 m 7 207 l 704 207 l 704 146 l 7 146 l 7 207 z "},"":{"ha":735,"x_min":-19,"x_max":743,"o":"m 743 1015 l 51 0 l -19 0 l 671 1015 l 743 1015 z "},"":{"ha":367,"x_min":-14,"x_max":290,"o":"m 289 851 q 289 839 289 850 q 290 815 289 828 q 290 791 290 803 q 290 778 290 779 l 290 758 l 60 467 l 128 382 l 290 178 q 290 167 290 174 q 289 157 289 160 l 289 88 q 252 133 274 106 q 208 188 231 160 q 163 243 185 215 q 124 292 140 271 q 53 380 92 332 q -14 467 15 428 l 289 851 z "},"":{"ha":367,"x_min":69,"x_max":374,"o":"m 374 467 l 71 86 q 71 98 71 88 q 70 121 71 108 q 69 144 69 133 q 69 157 69 154 l 69 178 l 231 382 l 299 467 l 69 758 l 69 778 q 69 790 69 779 q 70 814 69 801 q 71 838 71 826 q 71 850 71 849 l 374 467 z "},"":{"ha":669,"x_min":17,"x_max":574,"o":"m 321 851 q 321 839 321 850 q 322 815 321 828 q 322 791 322 803 q 322 778 322 779 l 322 758 l 92 467 l 160 382 l 322 178 q 322 167 322 174 q 321 157 321 160 l 321 86 l 17 467 l 321 851 m 572 851 q 572 839 572 850 q 573 815 572 828 q 574 791 574 803 q 574 778 574 779 l 574 758 l 344 467 l 413 382 l 574 178 q 573 167 574 174 q 572 157 572 160 l 572 86 l 269 467 l 572 851 z "},"":{"ha":672,"x_min":82,"x_max":639,"o":"m 639 467 l 336 86 q 336 98 336 88 q 335 121 336 108 q 335 144 335 133 q 335 157 335 154 l 335 178 l 497 382 l 565 467 l 335 758 l 335 778 q 335 790 335 779 q 335 814 335 801 q 336 838 336 826 q 336 850 336 849 l 639 467 m 386 467 l 83 86 q 83 98 83 88 q 83 121 83 108 q 82 144 82 133 q 82 157 82 154 l 82 178 l 244 382 l 313 467 l 82 758 l 82 778 q 82 790 82 779 q 83 814 82 801 q 83 838 83 826 q 83 850 83 849 l 386 467 z "},"":{"ha":486,"x_min":75,"x_max":404,"o":"m 75 803 q 88 866 75 836 q 124 919 101 896 q 177 955 147 942 q 240 968 207 968 q 303 955 274 968 q 356 919 333 942 q 391 866 378 896 q 404 803 404 836 q 391 739 404 769 q 356 686 378 708 q 303 651 333 664 q 240 638 274 638 q 177 651 207 638 q 124 686 147 664 q 88 739 101 708 q 75 803 75 769 m 232 772 l 219 772 l 219 708 l 182 708 l 182 903 l 243 903 q 286 884 269 903 q 308 839 303 865 q 279 782 308 803 l 318 742 l 339 724 q 358 760 350 740 q 365 803 365 779 q 329 892 365 856 q 240 929 293 929 q 151 892 188 929 q 114 803 114 856 q 151 713 114 750 q 240 676 188 676 q 287 685 265 676 q 325 707 308 693 l 296 707 l 232 772 m 219 867 l 219 810 l 243 810 q 263 817 254 810 q 271 835 271 825 q 263 856 271 846 q 243 867 254 867 l 219 867 z "},"":{"ha":486,"x_min":75,"x_max":404,"o":"m 75 803 q 88 866 75 836 q 124 919 101 896 q 177 955 147 942 q 240 968 207 968 q 303 955 274 968 q 356 919 333 942 q 391 866 378 896 q 404 803 404 836 q 391 739 404 769 q 356 686 378 708 q 303 651 333 664 q 240 638 274 638 q 177 651 207 638 q 124 686 147 664 q 88 739 101 708 q 75 803 75 769 m 114 803 q 151 713 114 750 q 240 676 188 676 q 329 713 293 676 q 365 803 365 750 q 329 892 365 856 q 240 929 293 929 q 151 892 188 929 q 114 803 114 856 m 317 729 q 280 709 297 714 q 246 704 263 704 q 170 733 199 704 q 142 801 142 763 q 151 839 142 821 q 174 871 160 857 q 208 893 189 885 q 246 901 226 901 q 272 897 257 901 q 307 881 288 892 l 296 843 q 265 862 276 857 q 246 867 253 867 q 200 846 222 867 q 178 801 178 825 q 197 759 178 776 q 244 742 217 742 q 296 760 268 742 l 317 729 z "},"":{"ha":646,"x_min":57,"x_max":528,"o":"m 282 969 l 282 933 l 188 933 l 188 714 l 150 714 l 150 933 l 57 933 l 57 969 l 282 969 m 528 975 l 528 714 l 490 714 l 490 869 q 452 826 472 850 q 418 783 432 801 l 340 876 l 340 714 l 303 714 l 303 979 l 418 844 l 528 975 z "}}}
